ISO-10303-21;
HEADER;
/* Generated by software containing ST-Developer
 * from STEP Tools, Inc. (www.steptools.com) 
 */
/* OPTION: using custom renumber hook */

FILE_DESCRIPTION(
/* description */ ('STEP AP242',
'CAx-IF Rec.Pracs.---Representation and Presentation of Product Manufa
cturing Information (PMI)---4.0---2014-10-13',
'CAx-IF Rec.Pracs.---3D Tessellated Geometry---0.4---2014-09-14','2;1'),

/* implementation_level */ '2;1');

FILE_NAME(
/* name */ '68914ee39843164a08578618',
/* time_stamp */ '2025-08-05T00:23:00Z',
/* author */ (''),
/* organization */ (''),
/* preprocessor_version */ 'ST-DEVELOPER v20',
/* originating_system */ 'ONSHAPE BY PTC INC, 1.201',
/* authorisation */ '  ');

FILE_SCHEMA (('AP242_MANAGED_MODEL_BASED_3D_ENGINEERING_MIM_LF { 1 0 10303 442 1 1 4 }'));
ENDSEC;

DATA;
#10=SHAPE_REPRESENTATION_RELATIONSHIP('','',#1225,#11);
#11=ADVANCED_BREP_SHAPE_REPRESENTATION('',(#1223),#2019);
#12=CYLINDRICAL_SURFACE('',#1264,0.00235);
#13=CYLINDRICAL_SURFACE('',#1267,0.00235);
#14=CYLINDRICAL_SURFACE('',#1270,0.00235);
#15=CYLINDRICAL_SURFACE('',#1273,0.00235);
#16=CYLINDRICAL_SURFACE('',#1276,0.00235);
#17=CYLINDRICAL_SURFACE('',#1279,0.00235);
#18=CYLINDRICAL_SURFACE('',#1299,0.005);
#19=CYLINDRICAL_SURFACE('',#1301,0.005);
#20=CYLINDRICAL_SURFACE('',#1303,0.005);
#21=CYLINDRICAL_SURFACE('',#1305,0.005);
#22=CYLINDRICAL_SURFACE('',#1311,0.005);
#23=CYLINDRICAL_SURFACE('',#1313,0.005);
#24=CYLINDRICAL_SURFACE('',#1315,0.005);
#25=CYLINDRICAL_SURFACE('',#1316,0.005);
#26=CYLINDRICAL_SURFACE('',#1318,0.00235);
#27=CYLINDRICAL_SURFACE('',#1321,0.00235);
#28=CYLINDRICAL_SURFACE('',#1324,0.00235);
#29=CYLINDRICAL_SURFACE('',#1327,0.00235);
#30=CIRCLE('',#1229,0.00235);
#31=CIRCLE('',#1230,0.00235);
#32=CIRCLE('',#1231,0.00235);
#33=CIRCLE('',#1232,0.00235);
#34=CIRCLE('',#1233,0.005);
#35=CIRCLE('',#1234,0.005);
#36=CIRCLE('',#1235,0.005);
#37=CIRCLE('',#1236,0.005);
#38=CIRCLE('',#1237,0.005);
#39=CIRCLE('',#1238,0.005);
#40=CIRCLE('',#1239,0.005);
#41=CIRCLE('',#1240,0.005);
#42=CIRCLE('',#1265,0.00235);
#43=CIRCLE('',#1266,0.00235);
#44=CIRCLE('',#1268,0.00235);
#45=CIRCLE('',#1269,0.00235);
#46=CIRCLE('',#1271,0.00235);
#47=CIRCLE('',#1272,0.00235);
#48=CIRCLE('',#1274,0.00235);
#49=CIRCLE('',#1275,0.00235);
#50=CIRCLE('',#1277,0.00235);
#51=CIRCLE('',#1278,0.00235);
#52=CIRCLE('',#1280,0.00235);
#53=CIRCLE('',#1281,0.00235);
#54=CIRCLE('',#1285,0.005);
#55=CIRCLE('',#1286,0.005);
#56=CIRCLE('',#1287,0.005);
#57=CIRCLE('',#1288,0.005);
#58=CIRCLE('',#1307,0.005);
#59=CIRCLE('',#1308,0.005);
#60=CIRCLE('',#1309,0.005);
#61=CIRCLE('',#1310,0.005);
#62=CIRCLE('',#1319,0.00235);
#63=CIRCLE('',#1322,0.00235);
#64=CIRCLE('',#1325,0.00235);
#65=CIRCLE('',#1328,0.00235);
#66=ORIENTED_EDGE('',*,*,#382,.F.);
#67=ORIENTED_EDGE('',*,*,#383,.F.);
#68=ORIENTED_EDGE('',*,*,#384,.T.);
#69=ORIENTED_EDGE('',*,*,#385,.T.);
#70=ORIENTED_EDGE('',*,*,#386,.F.);
#71=ORIENTED_EDGE('',*,*,#387,.F.);
#72=ORIENTED_EDGE('',*,*,#388,.T.);
#73=ORIENTED_EDGE('',*,*,#389,.T.);
#74=ORIENTED_EDGE('',*,*,#390,.F.);
#75=ORIENTED_EDGE('',*,*,#391,.F.);
#76=ORIENTED_EDGE('',*,*,#392,.F.);
#77=ORIENTED_EDGE('',*,*,#393,.F.);
#78=ORIENTED_EDGE('',*,*,#394,.F.);
#79=ORIENTED_EDGE('',*,*,#395,.F.);
#80=ORIENTED_EDGE('',*,*,#383,.T.);
#81=ORIENTED_EDGE('',*,*,#396,.T.);
#82=ORIENTED_EDGE('',*,*,#397,.F.);
#83=ORIENTED_EDGE('',*,*,#398,.T.);
#84=ORIENTED_EDGE('',*,*,#399,.T.);
#85=ORIENTED_EDGE('',*,*,#400,.T.);
#86=ORIENTED_EDGE('',*,*,#401,.T.);
#87=ORIENTED_EDGE('',*,*,#402,.T.);
#88=ORIENTED_EDGE('',*,*,#403,.F.);
#89=ORIENTED_EDGE('',*,*,#404,.T.);
#90=ORIENTED_EDGE('',*,*,#405,.F.);
#91=ORIENTED_EDGE('',*,*,#406,.F.);
#92=ORIENTED_EDGE('',*,*,#387,.T.);
#93=ORIENTED_EDGE('',*,*,#407,.F.);
#94=ORIENTED_EDGE('',*,*,#408,.F.);
#95=ORIENTED_EDGE('',*,*,#409,.F.);
#96=ORIENTED_EDGE('',*,*,#410,.F.);
#97=ORIENTED_EDGE('',*,*,#411,.F.);
#98=ORIENTED_EDGE('',*,*,#412,.T.);
#99=ORIENTED_EDGE('',*,*,#413,.F.);
#100=ORIENTED_EDGE('',*,*,#397,.T.);
#101=ORIENTED_EDGE('',*,*,#414,.T.);
#102=ORIENTED_EDGE('',*,*,#415,.T.);
#103=ORIENTED_EDGE('',*,*,#416,.T.);
#104=ORIENTED_EDGE('',*,*,#417,.F.);
#105=ORIENTED_EDGE('',*,*,#418,.F.);
#106=ORIENTED_EDGE('',*,*,#405,.T.);
#107=ORIENTED_EDGE('',*,*,#419,.T.);
#108=ORIENTED_EDGE('',*,*,#420,.F.);
#109=ORIENTED_EDGE('',*,*,#421,.F.);
#110=ORIENTED_EDGE('',*,*,#422,.F.);
#111=ORIENTED_EDGE('',*,*,#423,.F.);
#112=ORIENTED_EDGE('',*,*,#424,.T.);
#113=ORIENTED_EDGE('',*,*,#425,.T.);
#114=ORIENTED_EDGE('',*,*,#426,.T.);
#115=ORIENTED_EDGE('',*,*,#427,.F.);
#116=ORIENTED_EDGE('',*,*,#428,.F.);
#117=ORIENTED_EDGE('',*,*,#423,.T.);
#118=ORIENTED_EDGE('',*,*,#429,.T.);
#119=ORIENTED_EDGE('',*,*,#430,.F.);
#120=ORIENTED_EDGE('',*,*,#431,.F.);
#121=ORIENTED_EDGE('',*,*,#427,.T.);
#122=ORIENTED_EDGE('',*,*,#432,.F.);
#123=ORIENTED_EDGE('',*,*,#433,.F.);
#124=ORIENTED_EDGE('',*,*,#434,.T.);
#125=ORIENTED_EDGE('',*,*,#435,.T.);
#126=ORIENTED_EDGE('',*,*,#436,.F.);
#127=ORIENTED_EDGE('',*,*,#437,.F.);
#128=ORIENTED_EDGE('',*,*,#438,.T.);
#129=ORIENTED_EDGE('',*,*,#433,.T.);
#130=ORIENTED_EDGE('',*,*,#439,.F.);
#131=ORIENTED_EDGE('',*,*,#440,.F.);
#132=ORIENTED_EDGE('',*,*,#441,.T.);
#133=ORIENTED_EDGE('',*,*,#437,.T.);
#134=ORIENTED_EDGE('',*,*,#442,.T.);
#135=ORIENTED_EDGE('',*,*,#443,.F.);
#136=ORIENTED_EDGE('',*,*,#444,.F.);
#137=ORIENTED_EDGE('',*,*,#440,.T.);
#138=ORIENTED_EDGE('',*,*,#445,.F.);
#139=ORIENTED_EDGE('',*,*,#446,.F.);
#140=ORIENTED_EDGE('',*,*,#447,.T.);
#141=ORIENTED_EDGE('',*,*,#448,.T.);
#142=ORIENTED_EDGE('',*,*,#449,.T.);
#143=ORIENTED_EDGE('',*,*,#450,.F.);
#144=ORIENTED_EDGE('',*,*,#451,.F.);
#145=ORIENTED_EDGE('',*,*,#446,.T.);
#146=ORIENTED_EDGE('',*,*,#452,.F.);
#147=ORIENTED_EDGE('',*,*,#453,.F.);
#148=ORIENTED_EDGE('',*,*,#454,.T.);
#149=ORIENTED_EDGE('',*,*,#450,.T.);
#150=ORIENTED_EDGE('',*,*,#455,.F.);
#151=ORIENTED_EDGE('',*,*,#456,.F.);
#152=ORIENTED_EDGE('',*,*,#457,.T.);
#153=ORIENTED_EDGE('',*,*,#453,.T.);
#154=ORIENTED_EDGE('',*,*,#458,.F.);
#155=ORIENTED_EDGE('',*,*,#459,.F.);
#156=ORIENTED_EDGE('',*,*,#460,.T.);
#157=ORIENTED_EDGE('',*,*,#456,.T.);
#158=ORIENTED_EDGE('',*,*,#461,.T.);
#159=ORIENTED_EDGE('',*,*,#462,.F.);
#160=ORIENTED_EDGE('',*,*,#463,.F.);
#161=ORIENTED_EDGE('',*,*,#459,.T.);
#162=ORIENTED_EDGE('',*,*,#464,.F.);
#163=ORIENTED_EDGE('',*,*,#465,.F.);
#164=ORIENTED_EDGE('',*,*,#466,.T.);
#165=ORIENTED_EDGE('',*,*,#462,.T.);
#166=ORIENTED_EDGE('',*,*,#467,.T.);
#167=ORIENTED_EDGE('',*,*,#468,.F.);
#168=ORIENTED_EDGE('',*,*,#469,.F.);
#169=ORIENTED_EDGE('',*,*,#465,.T.);
#170=ORIENTED_EDGE('',*,*,#470,.T.);
#171=ORIENTED_EDGE('',*,*,#471,.F.);
#172=ORIENTED_EDGE('',*,*,#472,.F.);
#173=ORIENTED_EDGE('',*,*,#468,.T.);
#174=ORIENTED_EDGE('',*,*,#473,.F.);
#175=ORIENTED_EDGE('',*,*,#474,.F.);
#176=ORIENTED_EDGE('',*,*,#475,.T.);
#177=ORIENTED_EDGE('',*,*,#471,.T.);
#178=ORIENTED_EDGE('',*,*,#476,.F.);
#179=ORIENTED_EDGE('',*,*,#477,.F.);
#180=ORIENTED_EDGE('',*,*,#478,.T.);
#181=ORIENTED_EDGE('',*,*,#479,.T.);
#182=ORIENTED_EDGE('',*,*,#480,.T.);
#183=ORIENTED_EDGE('',*,*,#481,.F.);
#184=ORIENTED_EDGE('',*,*,#482,.F.);
#185=ORIENTED_EDGE('',*,*,#477,.T.);
#186=ORIENTED_EDGE('',*,*,#483,.T.);
#187=ORIENTED_EDGE('',*,*,#484,.F.);
#188=ORIENTED_EDGE('',*,*,#485,.F.);
#189=ORIENTED_EDGE('',*,*,#481,.T.);
#190=ORIENTED_EDGE('',*,*,#486,.F.);
#191=ORIENTED_EDGE('',*,*,#425,.F.);
#192=ORIENTED_EDGE('',*,*,#487,.T.);
#193=ORIENTED_EDGE('',*,*,#430,.T.);
#194=ORIENTED_EDGE('',*,*,#488,.T.);
#195=ORIENTED_EDGE('',*,*,#435,.F.);
#196=ORIENTED_EDGE('',*,*,#489,.F.);
#197=ORIENTED_EDGE('',*,*,#443,.T.);
#198=ORIENTED_EDGE('',*,*,#490,.T.);
#199=ORIENTED_EDGE('',*,*,#491,.T.);
#200=ORIENTED_EDGE('',*,*,#492,.T.);
#201=ORIENTED_EDGE('',*,*,#493,.T.);
#202=ORIENTED_EDGE('',*,*,#494,.T.);
#203=ORIENTED_EDGE('',*,*,#495,.T.);
#204=ORIENTED_EDGE('',*,*,#496,.T.);
#205=ORIENTED_EDGE('',*,*,#497,.T.);
#206=ORIENTED_EDGE('',*,*,#498,.T.);
#207=ORIENTED_EDGE('',*,*,#499,.T.);
#208=ORIENTED_EDGE('',*,*,#500,.T.);
#209=ORIENTED_EDGE('',*,*,#501,.T.);
#210=ORIENTED_EDGE('',*,*,#502,.F.);
#211=ORIENTED_EDGE('',*,*,#448,.F.);
#212=ORIENTED_EDGE('',*,*,#503,.T.);
#213=ORIENTED_EDGE('',*,*,#474,.T.);
#214=ORIENTED_EDGE('',*,*,#504,.F.);
#215=ORIENTED_EDGE('',*,*,#479,.F.);
#216=ORIENTED_EDGE('',*,*,#505,.T.);
#217=ORIENTED_EDGE('',*,*,#484,.T.);
#218=ORIENTED_EDGE('',*,*,#506,.T.);
#219=ORIENTED_EDGE('',*,*,#385,.F.);
#220=ORIENTED_EDGE('',*,*,#507,.T.);
#221=ORIENTED_EDGE('',*,*,#508,.F.);
#222=ORIENTED_EDGE('',*,*,#509,.T.);
#223=ORIENTED_EDGE('',*,*,#510,.T.);
#224=ORIENTED_EDGE('',*,*,#511,.T.);
#225=ORIENTED_EDGE('',*,*,#512,.T.);
#226=ORIENTED_EDGE('',*,*,#478,.F.);
#227=ORIENTED_EDGE('',*,*,#482,.T.);
#228=ORIENTED_EDGE('',*,*,#485,.T.);
#229=ORIENTED_EDGE('',*,*,#505,.F.);
#230=ORIENTED_EDGE('',*,*,#447,.F.);
#231=ORIENTED_EDGE('',*,*,#451,.T.);
#232=ORIENTED_EDGE('',*,*,#454,.F.);
#233=ORIENTED_EDGE('',*,*,#457,.F.);
#234=ORIENTED_EDGE('',*,*,#460,.F.);
#235=ORIENTED_EDGE('',*,*,#463,.T.);
#236=ORIENTED_EDGE('',*,*,#466,.F.);
#237=ORIENTED_EDGE('',*,*,#469,.T.);
#238=ORIENTED_EDGE('',*,*,#472,.T.);
#239=ORIENTED_EDGE('',*,*,#475,.F.);
#240=ORIENTED_EDGE('',*,*,#503,.F.);
#241=ORIENTED_EDGE('',*,*,#500,.F.);
#242=ORIENTED_EDGE('',*,*,#498,.F.);
#243=ORIENTED_EDGE('',*,*,#496,.F.);
#244=ORIENTED_EDGE('',*,*,#494,.F.);
#245=ORIENTED_EDGE('',*,*,#492,.F.);
#246=ORIENTED_EDGE('',*,*,#490,.F.);
#247=ORIENTED_EDGE('',*,*,#434,.F.);
#248=ORIENTED_EDGE('',*,*,#438,.F.);
#249=ORIENTED_EDGE('',*,*,#441,.F.);
#250=ORIENTED_EDGE('',*,*,#444,.T.);
#251=ORIENTED_EDGE('',*,*,#489,.T.);
#252=ORIENTED_EDGE('',*,*,#424,.F.);
#253=ORIENTED_EDGE('',*,*,#428,.T.);
#254=ORIENTED_EDGE('',*,*,#431,.T.);
#255=ORIENTED_EDGE('',*,*,#487,.F.);
#256=ORIENTED_EDGE('',*,*,#476,.T.);
#257=ORIENTED_EDGE('',*,*,#504,.T.);
#258=ORIENTED_EDGE('',*,*,#483,.F.);
#259=ORIENTED_EDGE('',*,*,#480,.F.);
#260=ORIENTED_EDGE('',*,*,#445,.T.);
#261=ORIENTED_EDGE('',*,*,#502,.T.);
#262=ORIENTED_EDGE('',*,*,#473,.T.);
#263=ORIENTED_EDGE('',*,*,#470,.F.);
#264=ORIENTED_EDGE('',*,*,#467,.F.);
#265=ORIENTED_EDGE('',*,*,#464,.T.);
#266=ORIENTED_EDGE('',*,*,#461,.F.);
#267=ORIENTED_EDGE('',*,*,#458,.T.);
#268=ORIENTED_EDGE('',*,*,#455,.T.);
#269=ORIENTED_EDGE('',*,*,#452,.T.);
#270=ORIENTED_EDGE('',*,*,#449,.F.);
#271=ORIENTED_EDGE('',*,*,#501,.F.);
#272=ORIENTED_EDGE('',*,*,#499,.F.);
#273=ORIENTED_EDGE('',*,*,#497,.F.);
#274=ORIENTED_EDGE('',*,*,#495,.F.);
#275=ORIENTED_EDGE('',*,*,#493,.F.);
#276=ORIENTED_EDGE('',*,*,#491,.F.);
#277=ORIENTED_EDGE('',*,*,#432,.T.);
#278=ORIENTED_EDGE('',*,*,#488,.F.);
#279=ORIENTED_EDGE('',*,*,#442,.F.);
#280=ORIENTED_EDGE('',*,*,#439,.T.);
#281=ORIENTED_EDGE('',*,*,#436,.T.);
#282=ORIENTED_EDGE('',*,*,#422,.T.);
#283=ORIENTED_EDGE('',*,*,#486,.T.);
#284=ORIENTED_EDGE('',*,*,#429,.F.);
#285=ORIENTED_EDGE('',*,*,#426,.F.);
#286=ORIENTED_EDGE('',*,*,#506,.F.);
#287=ORIENTED_EDGE('',*,*,#513,.F.);
#288=ORIENTED_EDGE('',*,*,#407,.T.);
#289=ORIENTED_EDGE('',*,*,#386,.T.);
#290=ORIENTED_EDGE('',*,*,#512,.F.);
#291=ORIENTED_EDGE('',*,*,#514,.F.);
#292=ORIENTED_EDGE('',*,*,#408,.T.);
#293=ORIENTED_EDGE('',*,*,#513,.T.);
#294=ORIENTED_EDGE('',*,*,#511,.F.);
#295=ORIENTED_EDGE('',*,*,#515,.F.);
#296=ORIENTED_EDGE('',*,*,#409,.T.);
#297=ORIENTED_EDGE('',*,*,#514,.T.);
#298=ORIENTED_EDGE('',*,*,#510,.F.);
#299=ORIENTED_EDGE('',*,*,#516,.F.);
#300=ORIENTED_EDGE('',*,*,#410,.T.);
#301=ORIENTED_EDGE('',*,*,#515,.T.);
#302=ORIENTED_EDGE('',*,*,#509,.F.);
#303=ORIENTED_EDGE('',*,*,#517,.F.);
#304=ORIENTED_EDGE('',*,*,#411,.T.);
#305=ORIENTED_EDGE('',*,*,#516,.T.);
#306=ORIENTED_EDGE('',*,*,#508,.T.);
#307=ORIENTED_EDGE('',*,*,#518,.F.);
#308=ORIENTED_EDGE('',*,*,#412,.F.);
#309=ORIENTED_EDGE('',*,*,#517,.T.);
#310=ORIENTED_EDGE('',*,*,#507,.F.);
#311=ORIENTED_EDGE('',*,*,#384,.F.);
#312=ORIENTED_EDGE('',*,*,#413,.T.);
#313=ORIENTED_EDGE('',*,*,#518,.T.);
#314=ORIENTED_EDGE('',*,*,#519,.T.);
#315=ORIENTED_EDGE('',*,*,#520,.F.);
#316=ORIENTED_EDGE('',*,*,#521,.F.);
#317=ORIENTED_EDGE('',*,*,#522,.F.);
#318=ORIENTED_EDGE('',*,*,#523,.F.);
#319=ORIENTED_EDGE('',*,*,#524,.F.);
#320=ORIENTED_EDGE('',*,*,#420,.T.);
#321=ORIENTED_EDGE('',*,*,#525,.F.);
#322=ORIENTED_EDGE('',*,*,#520,.T.);
#323=ORIENTED_EDGE('',*,*,#526,.F.);
#324=ORIENTED_EDGE('',*,*,#402,.F.);
#325=ORIENTED_EDGE('',*,*,#527,.T.);
#326=ORIENTED_EDGE('',*,*,#521,.T.);
#327=ORIENTED_EDGE('',*,*,#527,.F.);
#328=ORIENTED_EDGE('',*,*,#401,.F.);
#329=ORIENTED_EDGE('',*,*,#528,.T.);
#330=ORIENTED_EDGE('',*,*,#522,.T.);
#331=ORIENTED_EDGE('',*,*,#528,.F.);
#332=ORIENTED_EDGE('',*,*,#400,.F.);
#333=ORIENTED_EDGE('',*,*,#529,.T.);
#334=ORIENTED_EDGE('',*,*,#523,.T.);
#335=ORIENTED_EDGE('',*,*,#529,.F.);
#336=ORIENTED_EDGE('',*,*,#399,.F.);
#337=ORIENTED_EDGE('',*,*,#530,.T.);
#338=ORIENTED_EDGE('',*,*,#524,.T.);
#339=ORIENTED_EDGE('',*,*,#530,.F.);
#340=ORIENTED_EDGE('',*,*,#398,.F.);
#341=ORIENTED_EDGE('',*,*,#421,.T.);
#342=ORIENTED_EDGE('',*,*,#525,.T.);
#343=ORIENTED_EDGE('',*,*,#419,.F.);
#344=ORIENTED_EDGE('',*,*,#404,.F.);
#345=ORIENTED_EDGE('',*,*,#531,.T.);
#346=ORIENTED_EDGE('',*,*,#519,.F.);
#347=ORIENTED_EDGE('',*,*,#531,.F.);
#348=ORIENTED_EDGE('',*,*,#403,.T.);
#349=ORIENTED_EDGE('',*,*,#526,.T.);
#350=ORIENTED_EDGE('',*,*,#532,.F.);
#351=ORIENTED_EDGE('',*,*,#395,.T.);
#352=ORIENTED_EDGE('',*,*,#532,.T.);
#353=ORIENTED_EDGE('',*,*,#533,.F.);
#354=ORIENTED_EDGE('',*,*,#394,.T.);
#355=ORIENTED_EDGE('',*,*,#533,.T.);
#356=ORIENTED_EDGE('',*,*,#534,.F.);
#357=ORIENTED_EDGE('',*,*,#393,.T.);
#358=ORIENTED_EDGE('',*,*,#534,.T.);
#359=ORIENTED_EDGE('',*,*,#535,.F.);
#360=ORIENTED_EDGE('',*,*,#392,.T.);
#361=ORIENTED_EDGE('',*,*,#535,.T.);
#362=ORIENTED_EDGE('',*,*,#382,.T.);
#363=ORIENTED_EDGE('',*,*,#536,.F.);
#364=ORIENTED_EDGE('',*,*,#414,.F.);
#365=ORIENTED_EDGE('',*,*,#396,.F.);
#366=ORIENTED_EDGE('',*,*,#391,.T.);
#367=ORIENTED_EDGE('',*,*,#537,.F.);
#368=ORIENTED_EDGE('',*,*,#415,.F.);
#369=ORIENTED_EDGE('',*,*,#536,.T.);
#370=ORIENTED_EDGE('',*,*,#390,.T.);
#371=ORIENTED_EDGE('',*,*,#538,.F.);
#372=ORIENTED_EDGE('',*,*,#416,.F.);
#373=ORIENTED_EDGE('',*,*,#537,.T.);
#374=ORIENTED_EDGE('',*,*,#539,.F.);
#375=ORIENTED_EDGE('',*,*,#417,.T.);
#376=ORIENTED_EDGE('',*,*,#538,.T.);
#377=ORIENTED_EDGE('',*,*,#389,.F.);
#378=ORIENTED_EDGE('',*,*,#406,.T.);
#379=ORIENTED_EDGE('',*,*,#418,.T.);
#380=ORIENTED_EDGE('',*,*,#539,.T.);
#381=ORIENTED_EDGE('',*,*,#388,.F.);
#382=EDGE_CURVE('',#540,#541,#652,.T.);
#383=EDGE_CURVE('',#542,#540,#653,.T.);
#384=EDGE_CURVE('',#542,#543,#654,.T.);
#385=EDGE_CURVE('',#543,#544,#655,.T.);
#386=EDGE_CURVE('',#545,#544,#656,.T.);
#387=EDGE_CURVE('',#546,#545,#657,.T.);
#388=EDGE_CURVE('',#546,#547,#658,.T.);
#389=EDGE_CURVE('',#547,#548,#659,.T.);
#390=EDGE_CURVE('',#549,#548,#660,.T.);
#391=EDGE_CURVE('',#541,#549,#661,.T.);
#392=EDGE_CURVE('',#550,#550,#30,.T.);
#393=EDGE_CURVE('',#551,#551,#31,.T.);
#394=EDGE_CURVE('',#552,#552,#32,.T.);
#395=EDGE_CURVE('',#553,#553,#33,.T.);
#396=EDGE_CURVE('',#540,#554,#662,.T.);
#397=EDGE_CURVE('',#555,#554,#663,.T.);
#398=EDGE_CURVE('',#555,#556,#34,.T.);
#399=EDGE_CURVE('',#556,#557,#664,.T.);
#400=EDGE_CURVE('',#557,#558,#35,.T.);
#401=EDGE_CURVE('',#558,#559,#665,.T.);
#402=EDGE_CURVE('',#559,#560,#36,.T.);
#403=EDGE_CURVE('',#561,#560,#666,.T.);
#404=EDGE_CURVE('',#561,#562,#37,.T.);
#405=EDGE_CURVE('',#563,#562,#667,.T.);
#406=EDGE_CURVE('',#546,#563,#668,.T.);
#407=EDGE_CURVE('',#564,#545,#38,.T.);
#408=EDGE_CURVE('',#565,#564,#669,.T.);
#409=EDGE_CURVE('',#566,#565,#39,.T.);
#410=EDGE_CURVE('',#567,#566,#670,.T.);
#411=EDGE_CURVE('',#568,#567,#40,.T.);
#412=EDGE_CURVE('',#568,#569,#671,.T.);
#413=EDGE_CURVE('',#542,#569,#41,.T.);
#414=EDGE_CURVE('',#554,#570,#672,.T.);
#415=EDGE_CURVE('',#570,#571,#673,.T.);
#416=EDGE_CURVE('',#571,#572,#674,.T.);
#417=EDGE_CURVE('',#573,#572,#675,.T.);
#418=EDGE_CURVE('',#563,#573,#676,.T.);
#419=EDGE_CURVE('',#562,#574,#677,.T.);
#420=EDGE_CURVE('',#575,#574,#678,.T.);
#421=EDGE_CURVE('',#555,#575,#679,.T.);
#422=EDGE_CURVE('',#576,#577,#680,.T.);
#423=EDGE_CURVE('',#578,#576,#681,.T.);
#424=EDGE_CURVE('',#578,#579,#682,.T.);
#425=EDGE_CURVE('',#579,#577,#683,.T.);
#426=EDGE_CURVE('',#576,#580,#684,.T.);
#427=EDGE_CURVE('',#581,#580,#685,.T.);
#428=EDGE_CURVE('',#578,#581,#686,.T.);
#429=EDGE_CURVE('',#580,#582,#687,.T.);
#430=EDGE_CURVE('',#583,#582,#688,.T.);
#431=EDGE_CURVE('',#581,#583,#689,.T.);
#432=EDGE_CURVE('',#584,#585,#690,.T.);
#433=EDGE_CURVE('',#586,#584,#691,.T.);
#434=EDGE_CURVE('',#586,#587,#692,.T.);
#435=EDGE_CURVE('',#587,#585,#693,.T.);
#436=EDGE_CURVE('',#588,#584,#694,.T.);
#437=EDGE_CURVE('',#589,#588,#695,.T.);
#438=EDGE_CURVE('',#589,#586,#696,.T.);
#439=EDGE_CURVE('',#590,#588,#697,.T.);
#440=EDGE_CURVE('',#591,#590,#698,.T.);
#441=EDGE_CURVE('',#591,#589,#699,.T.);
#442=EDGE_CURVE('',#590,#592,#700,.T.);
#443=EDGE_CURVE('',#593,#592,#701,.T.);
#444=EDGE_CURVE('',#591,#593,#702,.T.);
#445=EDGE_CURVE('',#594,#595,#703,.T.);
#446=EDGE_CURVE('',#596,#594,#704,.T.);
#447=EDGE_CURVE('',#596,#597,#705,.T.);
#448=EDGE_CURVE('',#597,#595,#706,.T.);
#449=EDGE_CURVE('',#594,#598,#707,.T.);
#450=EDGE_CURVE('',#599,#598,#708,.T.);
#451=EDGE_CURVE('',#596,#599,#709,.T.);
#452=EDGE_CURVE('',#600,#598,#710,.T.);
#453=EDGE_CURVE('',#601,#600,#711,.T.);
#454=EDGE_CURVE('',#601,#599,#712,.T.);
#455=EDGE_CURVE('',#602,#600,#713,.T.);
#456=EDGE_CURVE('',#603,#602,#714,.T.);
#457=EDGE_CURVE('',#603,#601,#715,.T.);
#458=EDGE_CURVE('',#604,#602,#716,.T.);
#459=EDGE_CURVE('',#605,#604,#717,.T.);
#460=EDGE_CURVE('',#605,#603,#718,.T.);
#461=EDGE_CURVE('',#604,#606,#719,.T.);
#462=EDGE_CURVE('',#607,#606,#720,.T.);
#463=EDGE_CURVE('',#605,#607,#721,.T.);
#464=EDGE_CURVE('',#608,#606,#722,.T.);
#465=EDGE_CURVE('',#609,#608,#723,.T.);
#466=EDGE_CURVE('',#609,#607,#724,.T.);
#467=EDGE_CURVE('',#608,#610,#725,.T.);
#468=EDGE_CURVE('',#611,#610,#726,.T.);
#469=EDGE_CURVE('',#609,#611,#727,.T.);
#470=EDGE_CURVE('',#610,#612,#728,.T.);
#471=EDGE_CURVE('',#613,#612,#729,.T.);
#472=EDGE_CURVE('',#611,#613,#730,.T.);
#473=EDGE_CURVE('',#614,#612,#731,.T.);
#474=EDGE_CURVE('',#615,#614,#732,.T.);
#475=EDGE_CURVE('',#615,#613,#733,.T.);
#476=EDGE_CURVE('',#616,#617,#734,.T.);
#477=EDGE_CURVE('',#618,#616,#735,.T.);
#478=EDGE_CURVE('',#618,#619,#736,.T.);
#479=EDGE_CURVE('',#619,#617,#737,.T.);
#480=EDGE_CURVE('',#616,#620,#738,.T.);
#481=EDGE_CURVE('',#621,#620,#739,.T.);
#482=EDGE_CURVE('',#618,#621,#740,.T.);
#483=EDGE_CURVE('',#620,#622,#741,.T.);
#484=EDGE_CURVE('',#623,#622,#742,.T.);
#485=EDGE_CURVE('',#621,#623,#743,.T.);
#486=EDGE_CURVE('',#577,#582,#744,.T.);
#487=EDGE_CURVE('',#579,#583,#745,.T.);
#488=EDGE_CURVE('',#592,#585,#746,.T.);
#489=EDGE_CURVE('',#593,#587,#747,.T.);
#490=EDGE_CURVE('',#624,#624,#42,.T.);
#491=EDGE_CURVE('',#625,#625,#43,.F.);
#492=EDGE_CURVE('',#626,#626,#44,.T.);
#493=EDGE_CURVE('',#627,#627,#45,.F.);
#494=EDGE_CURVE('',#628,#628,#46,.T.);
#495=EDGE_CURVE('',#629,#629,#47,.F.);
#496=EDGE_CURVE('',#630,#630,#48,.T.);
#497=EDGE_CURVE('',#631,#631,#49,.F.);
#498=EDGE_CURVE('',#632,#632,#50,.T.);
#499=EDGE_CURVE('',#633,#633,#51,.F.);
#500=EDGE_CURVE('',#634,#634,#52,.T.);
#501=EDGE_CURVE('',#635,#635,#53,.F.);
#502=EDGE_CURVE('',#595,#614,#748,.T.);
#503=EDGE_CURVE('',#597,#615,#749,.T.);
#504=EDGE_CURVE('',#617,#622,#750,.T.);
#505=EDGE_CURVE('',#619,#623,#751,.T.);
#506=EDGE_CURVE('',#636,#544,#54,.T.);
#507=EDGE_CURVE('',#543,#637,#55,.T.);
#508=EDGE_CURVE('',#638,#637,#752,.T.);
#509=EDGE_CURVE('',#638,#639,#56,.T.);
#510=EDGE_CURVE('',#639,#640,#753,.T.);
#511=EDGE_CURVE('',#640,#641,#57,.T.);
#512=EDGE_CURVE('',#641,#636,#754,.T.);
#513=EDGE_CURVE('',#564,#636,#755,.T.);
#514=EDGE_CURVE('',#565,#641,#756,.T.);
#515=EDGE_CURVE('',#566,#640,#757,.T.);
#516=EDGE_CURVE('',#567,#639,#758,.T.);
#517=EDGE_CURVE('',#568,#638,#759,.T.);
#518=EDGE_CURVE('',#569,#637,#760,.T.);
#519=EDGE_CURVE('',#642,#643,#761,.T.);
#520=EDGE_CURVE('',#644,#643,#58,.T.);
#521=EDGE_CURVE('',#645,#644,#762,.T.);
#522=EDGE_CURVE('',#646,#645,#59,.T.);
#523=EDGE_CURVE('',#647,#646,#763,.T.);
#524=EDGE_CURVE('',#575,#647,#60,.T.);
#525=EDGE_CURVE('',#642,#574,#61,.T.);
#526=EDGE_CURVE('',#560,#643,#764,.T.);
#527=EDGE_CURVE('',#559,#644,#765,.T.);
#528=EDGE_CURVE('',#558,#645,#766,.T.);
#529=EDGE_CURVE('',#557,#646,#767,.T.);
#530=EDGE_CURVE('',#556,#647,#768,.T.);
#531=EDGE_CURVE('',#561,#642,#769,.T.);
#532=EDGE_CURVE('',#648,#648,#62,.T.);
#533=EDGE_CURVE('',#649,#649,#63,.T.);
#534=EDGE_CURVE('',#650,#650,#64,.T.);
#535=EDGE_CURVE('',#651,#651,#65,.T.);
#536=EDGE_CURVE('',#570,#541,#770,.T.);
#537=EDGE_CURVE('',#571,#549,#771,.T.);
#538=EDGE_CURVE('',#572,#548,#772,.T.);
#539=EDGE_CURVE('',#573,#547,#773,.T.);
#540=VERTEX_POINT('',#1678);
#541=VERTEX_POINT('',#1679);
#542=VERTEX_POINT('',#1681);
#543=VERTEX_POINT('',#1683);
#544=VERTEX_POINT('',#1685);
#545=VERTEX_POINT('',#1687);
#546=VERTEX_POINT('',#1689);
#547=VERTEX_POINT('',#1691);
#548=VERTEX_POINT('',#1693);
#549=VERTEX_POINT('',#1695);
#550=VERTEX_POINT('',#1699);
#551=VERTEX_POINT('',#1701);
#552=VERTEX_POINT('',#1703);
#553=VERTEX_POINT('',#1705);
#554=VERTEX_POINT('',#1707);
#555=VERTEX_POINT('',#1709);
#556=VERTEX_POINT('',#1711);
#557=VERTEX_POINT('',#1713);
#558=VERTEX_POINT('',#1715);
#559=VERTEX_POINT('',#1717);
#560=VERTEX_POINT('',#1719);
#561=VERTEX_POINT('',#1721);
#562=VERTEX_POINT('',#1723);
#563=VERTEX_POINT('',#1725);
#564=VERTEX_POINT('',#1728);
#565=VERTEX_POINT('',#1730);
#566=VERTEX_POINT('',#1732);
#567=VERTEX_POINT('',#1734);
#568=VERTEX_POINT('',#1736);
#569=VERTEX_POINT('',#1738);
#570=VERTEX_POINT('',#1742);
#571=VERTEX_POINT('',#1744);
#572=VERTEX_POINT('',#1746);
#573=VERTEX_POINT('',#1748);
#574=VERTEX_POINT('',#1751);
#575=VERTEX_POINT('',#1753);
#576=VERTEX_POINT('',#1757);
#577=VERTEX_POINT('',#1758);
#578=VERTEX_POINT('',#1760);
#579=VERTEX_POINT('',#1762);
#580=VERTEX_POINT('',#1766);
#581=VERTEX_POINT('',#1768);
#582=VERTEX_POINT('',#1772);
#583=VERTEX_POINT('',#1774);
#584=VERTEX_POINT('',#1778);
#585=VERTEX_POINT('',#1779);
#586=VERTEX_POINT('',#1781);
#587=VERTEX_POINT('',#1783);
#588=VERTEX_POINT('',#1787);
#589=VERTEX_POINT('',#1789);
#590=VERTEX_POINT('',#1793);
#591=VERTEX_POINT('',#1795);
#592=VERTEX_POINT('',#1799);
#593=VERTEX_POINT('',#1801);
#594=VERTEX_POINT('',#1805);
#595=VERTEX_POINT('',#1806);
#596=VERTEX_POINT('',#1808);
#597=VERTEX_POINT('',#1810);
#598=VERTEX_POINT('',#1814);
#599=VERTEX_POINT('',#1816);
#600=VERTEX_POINT('',#1820);
#601=VERTEX_POINT('',#1822);
#602=VERTEX_POINT('',#1826);
#603=VERTEX_POINT('',#1828);
#604=VERTEX_POINT('',#1832);
#605=VERTEX_POINT('',#1834);
#606=VERTEX_POINT('',#1838);
#607=VERTEX_POINT('',#1840);
#608=VERTEX_POINT('',#1844);
#609=VERTEX_POINT('',#1846);
#610=VERTEX_POINT('',#1850);
#611=VERTEX_POINT('',#1852);
#612=VERTEX_POINT('',#1856);
#613=VERTEX_POINT('',#1858);
#614=VERTEX_POINT('',#1862);
#615=VERTEX_POINT('',#1864);
#616=VERTEX_POINT('',#1868);
#617=VERTEX_POINT('',#1869);
#618=VERTEX_POINT('',#1871);
#619=VERTEX_POINT('',#1873);
#620=VERTEX_POINT('',#1877);
#621=VERTEX_POINT('',#1879);
#622=VERTEX_POINT('',#1883);
#623=VERTEX_POINT('',#1885);
#624=VERTEX_POINT('',#1895);
#625=VERTEX_POINT('',#1897);
#626=VERTEX_POINT('',#1900);
#627=VERTEX_POINT('',#1902);
#628=VERTEX_POINT('',#1905);
#629=VERTEX_POINT('',#1907);
#630=VERTEX_POINT('',#1910);
#631=VERTEX_POINT('',#1912);
#632=VERTEX_POINT('',#1915);
#633=VERTEX_POINT('',#1917);
#634=VERTEX_POINT('',#1920);
#635=VERTEX_POINT('',#1922);
#636=VERTEX_POINT('',#1931);
#637=VERTEX_POINT('',#1933);
#638=VERTEX_POINT('',#1935);
#639=VERTEX_POINT('',#1937);
#640=VERTEX_POINT('',#1939);
#641=VERTEX_POINT('',#1941);
#642=VERTEX_POINT('',#1968);
#643=VERTEX_POINT('',#1969);
#644=VERTEX_POINT('',#1971);
#645=VERTEX_POINT('',#1973);
#646=VERTEX_POINT('',#1975);
#647=VERTEX_POINT('',#1977);
#648=VERTEX_POINT('',#1995);
#649=VERTEX_POINT('',#1999);
#650=VERTEX_POINT('',#2003);
#651=VERTEX_POINT('',#2007);
#652=LINE('',#1677,#774);
#653=LINE('',#1680,#775);
#654=LINE('',#1682,#776);
#655=LINE('',#1684,#777);
#656=LINE('',#1686,#778);
#657=LINE('',#1688,#779);
#658=LINE('',#1690,#780);
#659=LINE('',#1692,#781);
#660=LINE('',#1694,#782);
#661=LINE('',#1696,#783);
#662=LINE('',#1706,#784);
#663=LINE('',#1708,#785);
#664=LINE('',#1712,#786);
#665=LINE('',#1716,#787);
#666=LINE('',#1720,#788);
#667=LINE('',#1724,#789);
#668=LINE('',#1726,#790);
#669=LINE('',#1729,#791);
#670=LINE('',#1733,#792);
#671=LINE('',#1737,#793);
#672=LINE('',#1741,#794);
#673=LINE('',#1743,#795);
#674=LINE('',#1745,#796);
#675=LINE('',#1747,#797);
#676=LINE('',#1749,#798);
#677=LINE('',#1750,#799);
#678=LINE('',#1752,#800);
#679=LINE('',#1754,#801);
#680=LINE('',#1756,#802);
#681=LINE('',#1759,#803);
#682=LINE('',#1761,#804);
#683=LINE('',#1763,#805);
#684=LINE('',#1765,#806);
#685=LINE('',#1767,#807);
#686=LINE('',#1769,#808);
#687=LINE('',#1771,#809);
#688=LINE('',#1773,#810);
#689=LINE('',#1775,#811);
#690=LINE('',#1777,#812);
#691=LINE('',#1780,#813);
#692=LINE('',#1782,#814);
#693=LINE('',#1784,#815);
#694=LINE('',#1786,#816);
#695=LINE('',#1788,#817);
#696=LINE('',#1790,#818);
#697=LINE('',#1792,#819);
#698=LINE('',#1794,#820);
#699=LINE('',#1796,#821);
#700=LINE('',#1798,#822);
#701=LINE('',#1800,#823);
#702=LINE('',#1802,#824);
#703=LINE('',#1804,#825);
#704=LINE('',#1807,#826);
#705=LINE('',#1809,#827);
#706=LINE('',#1811,#828);
#707=LINE('',#1813,#829);
#708=LINE('',#1815,#830);
#709=LINE('',#1817,#831);
#710=LINE('',#1819,#832);
#711=LINE('',#1821,#833);
#712=LINE('',#1823,#834);
#713=LINE('',#1825,#835);
#714=LINE('',#1827,#836);
#715=LINE('',#1829,#837);
#716=LINE('',#1831,#838);
#717=LINE('',#1833,#839);
#718=LINE('',#1835,#840);
#719=LINE('',#1837,#841);
#720=LINE('',#1839,#842);
#721=LINE('',#1841,#843);
#722=LINE('',#1843,#844);
#723=LINE('',#1845,#845);
#724=LINE('',#1847,#846);
#725=LINE('',#1849,#847);
#726=LINE('',#1851,#848);
#727=LINE('',#1853,#849);
#728=LINE('',#1855,#850);
#729=LINE('',#1857,#851);
#730=LINE('',#1859,#852);
#731=LINE('',#1861,#853);
#732=LINE('',#1863,#854);
#733=LINE('',#1865,#855);
#734=LINE('',#1867,#856);
#735=LINE('',#1870,#857);
#736=LINE('',#1872,#858);
#737=LINE('',#1874,#859);
#738=LINE('',#1876,#860);
#739=LINE('',#1878,#861);
#740=LINE('',#1880,#862);
#741=LINE('',#1882,#863);
#742=LINE('',#1884,#864);
#743=LINE('',#1886,#865);
#744=LINE('',#1888,#866);
#745=LINE('',#1889,#867);
#746=LINE('',#1891,#868);
#747=LINE('',#1892,#869);
#748=LINE('',#1924,#870);
#749=LINE('',#1925,#871);
#750=LINE('',#1927,#872);
#751=LINE('',#1928,#873);
#752=LINE('',#1934,#874);
#753=LINE('',#1938,#875);
#754=LINE('',#1942,#876);
#755=LINE('',#1954,#877);
#756=LINE('',#1956,#878);
#757=LINE('',#1958,#879);
#758=LINE('',#1960,#880);
#759=LINE('',#1962,#881);
#760=LINE('',#1964,#882);
#761=LINE('',#1967,#883);
#762=LINE('',#1972,#884);
#763=LINE('',#1976,#885);
#764=LINE('',#1981,#886);
#765=LINE('',#1982,#887);
#766=LINE('',#1984,#888);
#767=LINE('',#1986,#889);
#768=LINE('',#1988,#890);
#769=LINE('',#1991,#891);
#770=LINE('',#2010,#892);
#771=LINE('',#2012,#893);
#772=LINE('',#2014,#894);
#773=LINE('',#2016,#895);
#774=VECTOR('',#1339,1.);
#775=VECTOR('',#1340,1.);
#776=VECTOR('',#1341,1.);
#777=VECTOR('',#1342,1.);
#778=VECTOR('',#1343,1.);
#779=VECTOR('',#1344,1.);
#780=VECTOR('',#1345,1.);
#781=VECTOR('',#1346,1.);
#782=VECTOR('',#1347,1.);
#783=VECTOR('',#1348,1.);
#784=VECTOR('',#1359,1.);
#785=VECTOR('',#1360,1.);
#786=VECTOR('',#1363,1.);
#787=VECTOR('',#1366,1.);
#788=VECTOR('',#1369,1.);
#789=VECTOR('',#1372,1.);
#790=VECTOR('',#1373,1.);
#791=VECTOR('',#1376,1.);
#792=VECTOR('',#1379,1.);
#793=VECTOR('',#1382,1.);
#794=VECTOR('',#1387,1.);
#795=VECTOR('',#1388,1.);
#796=VECTOR('',#1389,1.);
#797=VECTOR('',#1390,1.);
#798=VECTOR('',#1391,1.);
#799=VECTOR('',#1392,1.);
#800=VECTOR('',#1393,1.);
#801=VECTOR('',#1394,1.);
#802=VECTOR('',#1397,1.);
#803=VECTOR('',#1398,1.);
#804=VECTOR('',#1399,1.);
#805=VECTOR('',#1400,1.);
#806=VECTOR('',#1403,1.);
#807=VECTOR('',#1404,1.);
#808=VECTOR('',#1405,1.);
#809=VECTOR('',#1408,1.);
#810=VECTOR('',#1409,1.);
#811=VECTOR('',#1410,1.);
#812=VECTOR('',#1413,1.);
#813=VECTOR('',#1414,1.);
#814=VECTOR('',#1415,1.);
#815=VECTOR('',#1416,1.);
#816=VECTOR('',#1419,1.);
#817=VECTOR('',#1420,1.);
#818=VECTOR('',#1421,1.);
#819=VECTOR('',#1424,1.);
#820=VECTOR('',#1425,1.);
#821=VECTOR('',#1426,1.);
#822=VECTOR('',#1429,1.);
#823=VECTOR('',#1430,1.);
#824=VECTOR('',#1431,1.);
#825=VECTOR('',#1434,1.);
#826=VECTOR('',#1435,1.);
#827=VECTOR('',#1436,1.);
#828=VECTOR('',#1437,1.);
#829=VECTOR('',#1440,1.);
#830=VECTOR('',#1441,1.);
#831=VECTOR('',#1442,1.);
#832=VECTOR('',#1445,1.);
#833=VECTOR('',#1446,1.);
#834=VECTOR('',#1447,1.);
#835=VECTOR('',#1450,1.);
#836=VECTOR('',#1451,1.);
#837=VECTOR('',#1452,1.);
#838=VECTOR('',#1455,1.);
#839=VECTOR('',#1456,1.);
#840=VECTOR('',#1457,1.);
#841=VECTOR('',#1460,1.);
#842=VECTOR('',#1461,1.);
#843=VECTOR('',#1462,1.);
#844=VECTOR('',#1465,1.);
#845=VECTOR('',#1466,1.);
#846=VECTOR('',#1467,1.);
#847=VECTOR('',#1470,1.);
#848=VECTOR('',#1471,1.);
#849=VECTOR('',#1472,1.);
#850=VECTOR('',#1475,1.);
#851=VECTOR('',#1476,1.);
#852=VECTOR('',#1477,1.);
#853=VECTOR('',#1480,1.);
#854=VECTOR('',#1481,1.);
#855=VECTOR('',#1482,1.);
#856=VECTOR('',#1485,1.);
#857=VECTOR('',#1486,1.);
#858=VECTOR('',#1487,1.);
#859=VECTOR('',#1488,1.);
#860=VECTOR('',#1491,1.);
#861=VECTOR('',#1492,1.);
#862=VECTOR('',#1493,1.);
#863=VECTOR('',#1496,1.);
#864=VECTOR('',#1497,1.);
#865=VECTOR('',#1498,1.);
#866=VECTOR('',#1501,1.);
#867=VECTOR('',#1502,1.);
#868=VECTOR('',#1505,1.);
#869=VECTOR('',#1506,1.);
#870=VECTOR('',#1545,1.);
#871=VECTOR('',#1546,1.);
#872=VECTOR('',#1549,1.);
#873=VECTOR('',#1550,1.);
#874=VECTOR('',#1557,1.);
#875=VECTOR('',#1560,1.);
#876=VECTOR('',#1563,1.);
#877=VECTOR('',#1586,1.);
#878=VECTOR('',#1589,1.);
#879=VECTOR('',#1592,1.);
#880=VECTOR('',#1595,1.);
#881=VECTOR('',#1598,1.);
#882=VECTOR('',#1601,1.);
#883=VECTOR('',#1606,1.);
#884=VECTOR('',#1609,1.);
#885=VECTOR('',#1612,1.);
#886=VECTOR('',#1619,1.);
#887=VECTOR('',#1620,1.);
#888=VECTOR('',#1623,1.);
#889=VECTOR('',#1626,1.);
#890=VECTOR('',#1629,1.);
#891=VECTOR('',#1634,1.);
#892=VECTOR('',#1663,1.);
#893=VECTOR('',#1666,1.);
#894=VECTOR('',#1669,1.);
#895=VECTOR('',#1672,1.);
#896=EDGE_LOOP('',(#66,#67,#68,#69,#70,#71,#72,#73,#74,#75));
#897=EDGE_LOOP('',(#76));
#898=EDGE_LOOP('',(#77));
#899=EDGE_LOOP('',(#78));
#900=EDGE_LOOP('',(#79));
#901=EDGE_LOOP('',(#80,#81,#82,#83,#84,#85,#86,#87,#88,#89,#90,#91,#92,
#93,#94,#95,#96,#97,#98,#99));
#902=EDGE_LOOP('',(#100,#101,#102,#103,#104,#105,#106,#107,#108,#109));
#903=EDGE_LOOP('',(#110,#111,#112,#113));
#904=EDGE_LOOP('',(#114,#115,#116,#117));
#905=EDGE_LOOP('',(#118,#119,#120,#121));
#906=EDGE_LOOP('',(#122,#123,#124,#125));
#907=EDGE_LOOP('',(#126,#127,#128,#129));
#908=EDGE_LOOP('',(#130,#131,#132,#133));
#909=EDGE_LOOP('',(#134,#135,#136,#137));
#910=EDGE_LOOP('',(#138,#139,#140,#141));
#911=EDGE_LOOP('',(#142,#143,#144,#145));
#912=EDGE_LOOP('',(#146,#147,#148,#149));
#913=EDGE_LOOP('',(#150,#151,#152,#153));
#914=EDGE_LOOP('',(#154,#155,#156,#157));
#915=EDGE_LOOP('',(#158,#159,#160,#161));
#916=EDGE_LOOP('',(#162,#163,#164,#165));
#917=EDGE_LOOP('',(#166,#167,#168,#169));
#918=EDGE_LOOP('',(#170,#171,#172,#173));
#919=EDGE_LOOP('',(#174,#175,#176,#177));
#920=EDGE_LOOP('',(#178,#179,#180,#181));
#921=EDGE_LOOP('',(#182,#183,#184,#185));
#922=EDGE_LOOP('',(#186,#187,#188,#189));
#923=EDGE_LOOP('',(#190,#191,#192,#193));
#924=EDGE_LOOP('',(#194,#195,#196,#197));
#925=EDGE_LOOP('',(#198));
#926=EDGE_LOOP('',(#199));
#927=EDGE_LOOP('',(#200));
#928=EDGE_LOOP('',(#201));
#929=EDGE_LOOP('',(#202));
#930=EDGE_LOOP('',(#203));
#931=EDGE_LOOP('',(#204));
#932=EDGE_LOOP('',(#205));
#933=EDGE_LOOP('',(#206));
#934=EDGE_LOOP('',(#207));
#935=EDGE_LOOP('',(#208));
#936=EDGE_LOOP('',(#209));
#937=EDGE_LOOP('',(#210,#211,#212,#213));
#938=EDGE_LOOP('',(#214,#215,#216,#217));
#939=EDGE_LOOP('',(#218,#219,#220,#221,#222,#223,#224,#225));
#940=EDGE_LOOP('',(#226,#227,#228,#229));
#941=EDGE_LOOP('',(#230,#231,#232,#233,#234,#235,#236,#237,#238,#239,#240));
#942=EDGE_LOOP('',(#241));
#943=EDGE_LOOP('',(#242));
#944=EDGE_LOOP('',(#243));
#945=EDGE_LOOP('',(#244));
#946=EDGE_LOOP('',(#245));
#947=EDGE_LOOP('',(#246));
#948=EDGE_LOOP('',(#247,#248,#249,#250,#251));
#949=EDGE_LOOP('',(#252,#253,#254,#255));
#950=EDGE_LOOP('',(#256,#257,#258,#259));
#951=EDGE_LOOP('',(#260,#261,#262,#263,#264,#265,#266,#267,#268,#269,#270));
#952=EDGE_LOOP('',(#271));
#953=EDGE_LOOP('',(#272));
#954=EDGE_LOOP('',(#273));
#955=EDGE_LOOP('',(#274));
#956=EDGE_LOOP('',(#275));
#957=EDGE_LOOP('',(#276));
#958=EDGE_LOOP('',(#277,#278,#279,#280,#281));
#959=EDGE_LOOP('',(#282,#283,#284,#285));
#960=EDGE_LOOP('',(#286,#287,#288,#289));
#961=EDGE_LOOP('',(#290,#291,#292,#293));
#962=EDGE_LOOP('',(#294,#295,#296,#297));
#963=EDGE_LOOP('',(#298,#299,#300,#301));
#964=EDGE_LOOP('',(#302,#303,#304,#305));
#965=EDGE_LOOP('',(#306,#307,#308,#309));
#966=EDGE_LOOP('',(#310,#311,#312,#313));
#967=EDGE_LOOP('',(#314,#315,#316,#317,#318,#319,#320,#321));
#968=EDGE_LOOP('',(#322,#323,#324,#325));
#969=EDGE_LOOP('',(#326,#327,#328,#329));
#970=EDGE_LOOP('',(#330,#331,#332,#333));
#971=EDGE_LOOP('',(#334,#335,#336,#337));
#972=EDGE_LOOP('',(#338,#339,#340,#341));
#973=EDGE_LOOP('',(#342,#343,#344,#345));
#974=EDGE_LOOP('',(#346,#347,#348,#349));
#975=EDGE_LOOP('',(#350));
#976=EDGE_LOOP('',(#351));
#977=EDGE_LOOP('',(#352));
#978=EDGE_LOOP('',(#353));
#979=EDGE_LOOP('',(#354));
#980=EDGE_LOOP('',(#355));
#981=EDGE_LOOP('',(#356));
#982=EDGE_LOOP('',(#357));
#983=EDGE_LOOP('',(#358));
#984=EDGE_LOOP('',(#359));
#985=EDGE_LOOP('',(#360));
#986=EDGE_LOOP('',(#361));
#987=EDGE_LOOP('',(#362,#363,#364,#365));
#988=EDGE_LOOP('',(#366,#367,#368,#369));
#989=EDGE_LOOP('',(#370,#371,#372,#373));
#990=EDGE_LOOP('',(#374,#375,#376,#377));
#991=EDGE_LOOP('',(#378,#379,#380,#381));
#992=FACE_BOUND('',#896,.T.);
#993=FACE_BOUND('',#897,.T.);
#994=FACE_BOUND('',#898,.T.);
#995=FACE_BOUND('',#899,.T.);
#996=FACE_BOUND('',#900,.T.);
#997=FACE_BOUND('',#901,.T.);
#998=FACE_BOUND('',#902,.T.);
#999=FACE_BOUND('',#903,.T.);
#1000=FACE_BOUND('',#904,.T.);
#1001=FACE_BOUND('',#905,.T.);
#1002=FACE_BOUND('',#906,.T.);
#1003=FACE_BOUND('',#907,.T.);
#1004=FACE_BOUND('',#908,.T.);
#1005=FACE_BOUND('',#909,.T.);
#1006=FACE_BOUND('',#910,.T.);
#1007=FACE_BOUND('',#911,.T.);
#1008=FACE_BOUND('',#912,.T.);
#1009=FACE_BOUND('',#913,.T.);
#1010=FACE_BOUND('',#914,.T.);
#1011=FACE_BOUND('',#915,.T.);
#1012=FACE_BOUND('',#916,.T.);
#1013=FACE_BOUND('',#917,.T.);
#1014=FACE_BOUND('',#918,.T.);
#1015=FACE_BOUND('',#919,.T.);
#1016=FACE_BOUND('',#920,.T.);
#1017=FACE_BOUND('',#921,.T.);
#1018=FACE_BOUND('',#922,.T.);
#1019=FACE_BOUND('',#923,.T.);
#1020=FACE_BOUND('',#924,.T.);
#1021=FACE_BOUND('',#925,.T.);
#1022=FACE_BOUND('',#926,.T.);
#1023=FACE_BOUND('',#927,.T.);
#1024=FACE_BOUND('',#928,.T.);
#1025=FACE_BOUND('',#929,.T.);
#1026=FACE_BOUND('',#930,.T.);
#1027=FACE_BOUND('',#931,.T.);
#1028=FACE_BOUND('',#932,.T.);
#1029=FACE_BOUND('',#933,.T.);
#1030=FACE_BOUND('',#934,.T.);
#1031=FACE_BOUND('',#935,.T.);
#1032=FACE_BOUND('',#936,.T.);
#1033=FACE_BOUND('',#937,.T.);
#1034=FACE_BOUND('',#938,.T.);
#1035=FACE_BOUND('',#939,.T.);
#1036=FACE_BOUND('',#940,.T.);
#1037=FACE_BOUND('',#941,.T.);
#1038=FACE_BOUND('',#942,.T.);
#1039=FACE_BOUND('',#943,.T.);
#1040=FACE_BOUND('',#944,.T.);
#1041=FACE_BOUND('',#945,.T.);
#1042=FACE_BOUND('',#946,.T.);
#1043=FACE_BOUND('',#947,.T.);
#1044=FACE_BOUND('',#948,.T.);
#1045=FACE_BOUND('',#949,.T.);
#1046=FACE_BOUND('',#950,.T.);
#1047=FACE_BOUND('',#951,.T.);
#1048=FACE_BOUND('',#952,.T.);
#1049=FACE_BOUND('',#953,.T.);
#1050=FACE_BOUND('',#954,.T.);
#1051=FACE_BOUND('',#955,.T.);
#1052=FACE_BOUND('',#956,.T.);
#1053=FACE_BOUND('',#957,.T.);
#1054=FACE_BOUND('',#958,.T.);
#1055=FACE_BOUND('',#959,.T.);
#1056=FACE_BOUND('',#960,.T.);
#1057=FACE_BOUND('',#961,.T.);
#1058=FACE_BOUND('',#962,.T.);
#1059=FACE_BOUND('',#963,.T.);
#1060=FACE_BOUND('',#964,.T.);
#1061=FACE_BOUND('',#965,.T.);
#1062=FACE_BOUND('',#966,.T.);
#1063=FACE_BOUND('',#967,.T.);
#1064=FACE_BOUND('',#968,.T.);
#1065=FACE_BOUND('',#969,.T.);
#1066=FACE_BOUND('',#970,.T.);
#1067=FACE_BOUND('',#971,.T.);
#1068=FACE_BOUND('',#972,.T.);
#1069=FACE_BOUND('',#973,.T.);
#1070=FACE_BOUND('',#974,.T.);
#1071=FACE_BOUND('',#975,.T.);
#1072=FACE_BOUND('',#976,.T.);
#1073=FACE_BOUND('',#977,.T.);
#1074=FACE_BOUND('',#978,.T.);
#1075=FACE_BOUND('',#979,.T.);
#1076=FACE_BOUND('',#980,.T.);
#1077=FACE_BOUND('',#981,.T.);
#1078=FACE_BOUND('',#982,.T.);
#1079=FACE_BOUND('',#983,.T.);
#1080=FACE_BOUND('',#984,.T.);
#1081=FACE_BOUND('',#985,.T.);
#1082=FACE_BOUND('',#986,.T.);
#1083=FACE_BOUND('',#987,.T.);
#1084=FACE_BOUND('',#988,.T.);
#1085=FACE_BOUND('',#989,.T.);
#1086=FACE_BOUND('',#990,.T.);
#1087=FACE_BOUND('',#991,.T.);
#1088=PLANE('',#1227);
#1089=PLANE('',#1228);
#1090=PLANE('',#1241);
#1091=PLANE('',#1242);
#1092=PLANE('',#1243);
#1093=PLANE('',#1244);
#1094=PLANE('',#1245);
#1095=PLANE('',#1246);
#1096=PLANE('',#1247);
#1097=PLANE('',#1248);
#1098=PLANE('',#1249);
#1099=PLANE('',#1250);
#1100=PLANE('',#1251);
#1101=PLANE('',#1252);
#1102=PLANE('',#1253);
#1103=PLANE('',#1254);
#1104=PLANE('',#1255);
#1105=PLANE('',#1256);
#1106=PLANE('',#1257);
#1107=PLANE('',#1258);
#1108=PLANE('',#1259);
#1109=PLANE('',#1260);
#1110=PLANE('',#1261);
#1111=PLANE('',#1262);
#1112=PLANE('',#1263);
#1113=PLANE('',#1282);
#1114=PLANE('',#1283);
#1115=PLANE('',#1284);
#1116=PLANE('',#1289);
#1117=PLANE('',#1290);
#1118=PLANE('',#1291);
#1119=PLANE('',#1292);
#1120=PLANE('',#1293);
#1121=PLANE('',#1294);
#1122=PLANE('',#1295);
#1123=PLANE('',#1296);
#1124=PLANE('',#1297);
#1125=PLANE('',#1298);
#1126=PLANE('',#1300);
#1127=PLANE('',#1302);
#1128=PLANE('',#1304);
#1129=PLANE('',#1306);
#1130=PLANE('',#1312);
#1131=PLANE('',#1314);
#1132=PLANE('',#1317);
#1133=PLANE('',#1320);
#1134=PLANE('',#1323);
#1135=PLANE('',#1326);
#1136=PLANE('',#1329);
#1137=PLANE('',#1330);
#1138=PLANE('',#1331);
#1139=PLANE('',#1332);
#1140=PLANE('',#1333);
#1141=PLANE('',#1334);
#1142=ADVANCED_FACE('',(#992),#1088,.F.);
#1143=ADVANCED_FACE('',(#993,#994,#995,#996,#997),#1089,.T.);
#1144=ADVANCED_FACE('',(#998),#1090,.T.);
#1145=ADVANCED_FACE('',(#999),#1091,.T.);
#1146=ADVANCED_FACE('',(#1000),#1092,.F.);
#1147=ADVANCED_FACE('',(#1001),#1093,.F.);
#1148=ADVANCED_FACE('',(#1002),#1094,.T.);
#1149=ADVANCED_FACE('',(#1003),#1095,.T.);
#1150=ADVANCED_FACE('',(#1004),#1096,.T.);
#1151=ADVANCED_FACE('',(#1005),#1097,.F.);
#1152=ADVANCED_FACE('',(#1006),#1098,.T.);
#1153=ADVANCED_FACE('',(#1007),#1099,.F.);
#1154=ADVANCED_FACE('',(#1008),#1100,.T.);
#1155=ADVANCED_FACE('',(#1009),#1101,.T.);
#1156=ADVANCED_FACE('',(#1010),#1102,.T.);
#1157=ADVANCED_FACE('',(#1011),#1103,.F.);
#1158=ADVANCED_FACE('',(#1012),#1104,.T.);
#1159=ADVANCED_FACE('',(#1013),#1105,.F.);
#1160=ADVANCED_FACE('',(#1014),#1106,.F.);
#1161=ADVANCED_FACE('',(#1015),#1107,.T.);
#1162=ADVANCED_FACE('',(#1016),#1108,.T.);
#1163=ADVANCED_FACE('',(#1017),#1109,.F.);
#1164=ADVANCED_FACE('',(#1018),#1110,.F.);
#1165=ADVANCED_FACE('',(#1019),#1111,.T.);
#1166=ADVANCED_FACE('',(#1020),#1112,.F.);
#1167=ADVANCED_FACE('',(#1021,#1022),#12,.F.);
#1168=ADVANCED_FACE('',(#1023,#1024),#13,.F.);
#1169=ADVANCED_FACE('',(#1025,#1026),#14,.F.);
#1170=ADVANCED_FACE('',(#1027,#1028),#15,.F.);
#1171=ADVANCED_FACE('',(#1029,#1030),#16,.F.);
#1172=ADVANCED_FACE('',(#1031,#1032),#17,.F.);
#1173=ADVANCED_FACE('',(#1033),#1113,.T.);
#1174=ADVANCED_FACE('',(#1034),#1114,.T.);
#1175=ADVANCED_FACE('',(#1035,#1036,#1037,#1038,#1039,#1040,#1041,#1042,
#1043,#1044,#1045),#1115,.T.);
#1176=ADVANCED_FACE('',(#1046),#1116,.T.);
#1177=ADVANCED_FACE('',(#1047),#1117,.T.);
#1178=ADVANCED_FACE('',(#1048),#1118,.T.);
#1179=ADVANCED_FACE('',(#1049),#1119,.T.);
#1180=ADVANCED_FACE('',(#1050),#1120,.T.);
#1181=ADVANCED_FACE('',(#1051),#1121,.T.);
#1182=ADVANCED_FACE('',(#1052),#1122,.T.);
#1183=ADVANCED_FACE('',(#1053),#1123,.T.);
#1184=ADVANCED_FACE('',(#1054),#1124,.T.);
#1185=ADVANCED_FACE('',(#1055),#1125,.T.);
#1186=ADVANCED_FACE('',(#1056),#18,.F.);
#1187=ADVANCED_FACE('',(#1057),#1126,.T.);
#1188=ADVANCED_FACE('',(#1058),#19,.F.);
#1189=ADVANCED_FACE('',(#1059),#1127,.T.);
#1190=ADVANCED_FACE('',(#1060),#20,.F.);
#1191=ADVANCED_FACE('',(#1061),#1128,.F.);
#1192=ADVANCED_FACE('',(#1062),#21,.F.);
#1193=ADVANCED_FACE('',(#1063),#1129,.F.);
#1194=ADVANCED_FACE('',(#1064),#22,.T.);
#1195=ADVANCED_FACE('',(#1065),#1130,.F.);
#1196=ADVANCED_FACE('',(#1066),#23,.T.);
#1197=ADVANCED_FACE('',(#1067),#1131,.F.);
#1198=ADVANCED_FACE('',(#1068),#24,.T.);
#1199=ADVANCED_FACE('',(#1069),#25,.T.);
#1200=ADVANCED_FACE('',(#1070),#1132,.T.);
#1201=ADVANCED_FACE('',(#1071,#1072),#26,.F.);
#1202=ADVANCED_FACE('',(#1073),#1133,.T.);
#1203=ADVANCED_FACE('',(#1074,#1075),#27,.F.);
#1204=ADVANCED_FACE('',(#1076),#1134,.T.);
#1205=ADVANCED_FACE('',(#1077,#1078),#28,.F.);
#1206=ADVANCED_FACE('',(#1079),#1135,.T.);
#1207=ADVANCED_FACE('',(#1080,#1081),#29,.F.);
#1208=ADVANCED_FACE('',(#1082),#1136,.T.);
#1209=ADVANCED_FACE('',(#1083),#1137,.T.);
#1210=ADVANCED_FACE('',(#1084),#1138,.T.);
#1211=ADVANCED_FACE('',(#1085),#1139,.T.);
#1212=ADVANCED_FACE('',(#1086),#1140,.F.);
#1213=ADVANCED_FACE('',(#1087),#1141,.F.);
#1214=CLOSED_SHELL('',(#1142,#1143,#1144,#1145,#1146,#1147,#1148,#1149,
#1150,#1151,#1152,#1153,#1154,#1155,#1156,#1157,#1158,#1159,#1160,#1161,
#1162,#1163,#1164,#1165,#1166,#1167,#1168,#1169,#1170,#1171,#1172,#1173,
#1174,#1175,#1176,#1177,#1178,#1179,#1180,#1181,#1182,#1183,#1184,#1185,
#1186,#1187,#1188,#1189,#1190,#1191,#1192,#1193,#1194,#1195,#1196,#1197,
#1198,#1199,#1200,#1201,#1202,#1203,#1204,#1205,#1206,#1207,#1208,#1209,
#1210,#1211,#1212,#1213));
#1215=STYLED_ITEM('',(#1216),#1223);
#1216=PRESENTATION_STYLE_ASSIGNMENT((#1217));
#1217=SURFACE_STYLE_USAGE(.BOTH.,#1218);
#1218=SURFACE_SIDE_STYLE('',(#1219));
#1219=SURFACE_STYLE_FILL_AREA(#1220);
#1220=FILL_AREA_STYLE('',(#1221));
#1221=FILL_AREA_STYLE_COLOUR('',#1222);
#1222=COLOUR_RGB('',0.615686274509804,0.811764705882353,0.929411764705882);
#1223=MANIFOLD_SOLID_BREP('Part 1',#1214);
#1224=SHAPE_DEFINITION_REPRESENTATION(#2024,#1225);
#1225=SHAPE_REPRESENTATION('Part 1',(#1226),#2019);
#1226=AXIS2_PLACEMENT_3D('',#1675,#1335,#1336);
#1227=AXIS2_PLACEMENT_3D('',#1676,#1337,#1338);
#1228=AXIS2_PLACEMENT_3D('',#1697,#1349,#1350);
#1229=AXIS2_PLACEMENT_3D('',#1698,#1351,#1352);
#1230=AXIS2_PLACEMENT_3D('',#1700,#1353,#1354);
#1231=AXIS2_PLACEMENT_3D('',#1702,#1355,#1356);
#1232=AXIS2_PLACEMENT_3D('',#1704,#1357,#1358);
#1233=AXIS2_PLACEMENT_3D('',#1710,#1361,#1362);
#1234=AXIS2_PLACEMENT_3D('',#1714,#1364,#1365);
#1235=AXIS2_PLACEMENT_3D('',#1718,#1367,#1368);
#1236=AXIS2_PLACEMENT_3D('',#1722,#1370,#1371);
#1237=AXIS2_PLACEMENT_3D('',#1727,#1374,#1375);
#1238=AXIS2_PLACEMENT_3D('',#1731,#1377,#1378);
#1239=AXIS2_PLACEMENT_3D('',#1735,#1380,#1381);
#1240=AXIS2_PLACEMENT_3D('',#1739,#1383,#1384);
#1241=AXIS2_PLACEMENT_3D('',#1740,#1385,#1386);
#1242=AXIS2_PLACEMENT_3D('',#1755,#1395,#1396);
#1243=AXIS2_PLACEMENT_3D('',#1764,#1401,#1402);
#1244=AXIS2_PLACEMENT_3D('',#1770,#1406,#1407);
#1245=AXIS2_PLACEMENT_3D('',#1776,#1411,#1412);
#1246=AXIS2_PLACEMENT_3D('',#1785,#1417,#1418);
#1247=AXIS2_PLACEMENT_3D('',#1791,#1422,#1423);
#1248=AXIS2_PLACEMENT_3D('',#1797,#1427,#1428);
#1249=AXIS2_PLACEMENT_3D('',#1803,#1432,#1433);
#1250=AXIS2_PLACEMENT_3D('',#1812,#1438,#1439);
#1251=AXIS2_PLACEMENT_3D('',#1818,#1443,#1444);
#1252=AXIS2_PLACEMENT_3D('',#1824,#1448,#1449);
#1253=AXIS2_PLACEMENT_3D('',#1830,#1453,#1454);
#1254=AXIS2_PLACEMENT_3D('',#1836,#1458,#1459);
#1255=AXIS2_PLACEMENT_3D('',#1842,#1463,#1464);
#1256=AXIS2_PLACEMENT_3D('',#1848,#1468,#1469);
#1257=AXIS2_PLACEMENT_3D('',#1854,#1473,#1474);
#1258=AXIS2_PLACEMENT_3D('',#1860,#1478,#1479);
#1259=AXIS2_PLACEMENT_3D('',#1866,#1483,#1484);
#1260=AXIS2_PLACEMENT_3D('',#1875,#1489,#1490);
#1261=AXIS2_PLACEMENT_3D('',#1881,#1494,#1495);
#1262=AXIS2_PLACEMENT_3D('',#1887,#1499,#1500);
#1263=AXIS2_PLACEMENT_3D('',#1890,#1503,#1504);
#1264=AXIS2_PLACEMENT_3D('',#1893,#1507,#1508);
#1265=AXIS2_PLACEMENT_3D('',#1894,#1509,#1510);
#1266=AXIS2_PLACEMENT_3D('',#1896,#1511,#1512);
#1267=AXIS2_PLACEMENT_3D('',#1898,#1513,#1514);
#1268=AXIS2_PLACEMENT_3D('',#1899,#1515,#1516);
#1269=AXIS2_PLACEMENT_3D('',#1901,#1517,#1518);
#1270=AXIS2_PLACEMENT_3D('',#1903,#1519,#1520);
#1271=AXIS2_PLACEMENT_3D('',#1904,#1521,#1522);
#1272=AXIS2_PLACEMENT_3D('',#1906,#1523,#1524);
#1273=AXIS2_PLACEMENT_3D('',#1908,#1525,#1526);
#1274=AXIS2_PLACEMENT_3D('',#1909,#1527,#1528);
#1275=AXIS2_PLACEMENT_3D('',#1911,#1529,#1530);
#1276=AXIS2_PLACEMENT_3D('',#1913,#1531,#1532);
#1277=AXIS2_PLACEMENT_3D('',#1914,#1533,#1534);
#1278=AXIS2_PLACEMENT_3D('',#1916,#1535,#1536);
#1279=AXIS2_PLACEMENT_3D('',#1918,#1537,#1538);
#1280=AXIS2_PLACEMENT_3D('',#1919,#1539,#1540);
#1281=AXIS2_PLACEMENT_3D('',#1921,#1541,#1542);
#1282=AXIS2_PLACEMENT_3D('',#1923,#1543,#1544);
#1283=AXIS2_PLACEMENT_3D('',#1926,#1547,#1548);
#1284=AXIS2_PLACEMENT_3D('',#1929,#1551,#1552);
#1285=AXIS2_PLACEMENT_3D('',#1930,#1553,#1554);
#1286=AXIS2_PLACEMENT_3D('',#1932,#1555,#1556);
#1287=AXIS2_PLACEMENT_3D('',#1936,#1558,#1559);
#1288=AXIS2_PLACEMENT_3D('',#1940,#1561,#1562);
#1289=AXIS2_PLACEMENT_3D('',#1943,#1564,#1565);
#1290=AXIS2_PLACEMENT_3D('',#1944,#1566,#1567);
#1291=AXIS2_PLACEMENT_3D('',#1945,#1568,#1569);
#1292=AXIS2_PLACEMENT_3D('',#1946,#1570,#1571);
#1293=AXIS2_PLACEMENT_3D('',#1947,#1572,#1573);
#1294=AXIS2_PLACEMENT_3D('',#1948,#1574,#1575);
#1295=AXIS2_PLACEMENT_3D('',#1949,#1576,#1577);
#1296=AXIS2_PLACEMENT_3D('',#1950,#1578,#1579);
#1297=AXIS2_PLACEMENT_3D('',#1951,#1580,#1581);
#1298=AXIS2_PLACEMENT_3D('',#1952,#1582,#1583);
#1299=AXIS2_PLACEMENT_3D('',#1953,#1584,#1585);
#1300=AXIS2_PLACEMENT_3D('',#1955,#1587,#1588);
#1301=AXIS2_PLACEMENT_3D('',#1957,#1590,#1591);
#1302=AXIS2_PLACEMENT_3D('',#1959,#1593,#1594);
#1303=AXIS2_PLACEMENT_3D('',#1961,#1596,#1597);
#1304=AXIS2_PLACEMENT_3D('',#1963,#1599,#1600);
#1305=AXIS2_PLACEMENT_3D('',#1965,#1602,#1603);
#1306=AXIS2_PLACEMENT_3D('',#1966,#1604,#1605);
#1307=AXIS2_PLACEMENT_3D('',#1970,#1607,#1608);
#1308=AXIS2_PLACEMENT_3D('',#1974,#1610,#1611);
#1309=AXIS2_PLACEMENT_3D('',#1978,#1613,#1614);
#1310=AXIS2_PLACEMENT_3D('',#1979,#1615,#1616);
#1311=AXIS2_PLACEMENT_3D('',#1980,#1617,#1618);
#1312=AXIS2_PLACEMENT_3D('',#1983,#1621,#1622);
#1313=AXIS2_PLACEMENT_3D('',#1985,#1624,#1625);
#1314=AXIS2_PLACEMENT_3D('',#1987,#1627,#1628);
#1315=AXIS2_PLACEMENT_3D('',#1989,#1630,#1631);
#1316=AXIS2_PLACEMENT_3D('',#1990,#1632,#1633);
#1317=AXIS2_PLACEMENT_3D('',#1992,#1635,#1636);
#1318=AXIS2_PLACEMENT_3D('',#1993,#1637,#1638);
#1319=AXIS2_PLACEMENT_3D('',#1994,#1639,#1640);
#1320=AXIS2_PLACEMENT_3D('',#1996,#1641,#1642);
#1321=AXIS2_PLACEMENT_3D('',#1997,#1643,#1644);
#1322=AXIS2_PLACEMENT_3D('',#1998,#1645,#1646);
#1323=AXIS2_PLACEMENT_3D('',#2000,#1647,#1648);
#1324=AXIS2_PLACEMENT_3D('',#2001,#1649,#1650);
#1325=AXIS2_PLACEMENT_3D('',#2002,#1651,#1652);
#1326=AXIS2_PLACEMENT_3D('',#2004,#1653,#1654);
#1327=AXIS2_PLACEMENT_3D('',#2005,#1655,#1656);
#1328=AXIS2_PLACEMENT_3D('',#2006,#1657,#1658);
#1329=AXIS2_PLACEMENT_3D('',#2008,#1659,#1660);
#1330=AXIS2_PLACEMENT_3D('',#2009,#1661,#1662);
#1331=AXIS2_PLACEMENT_3D('',#2011,#1664,#1665);
#1332=AXIS2_PLACEMENT_3D('',#2013,#1667,#1668);
#1333=AXIS2_PLACEMENT_3D('',#2015,#1670,#1671);
#1334=AXIS2_PLACEMENT_3D('',#2017,#1673,#1674);
#1335=DIRECTION('',(0.,0.,1.));
#1336=DIRECTION('',(1.,0.,0.));
#1337=DIRECTION('',(0.,1.,0.));
#1338=DIRECTION('',(0.,0.,1.));
#1339=DIRECTION('',(0.,0.,-1.));
#1340=DIRECTION('',(1.,0.,0.));
#1341=DIRECTION('',(0.,0.,-1.));
#1342=DIRECTION('',(1.,0.,0.));
#1343=DIRECTION('',(0.,0.,-1.));
#1344=DIRECTION('',(1.,0.,0.));
#1345=DIRECTION('',(0.,0.,-1.));
#1346=DIRECTION('',(-0.707106781186548,0.,-0.707106781186547));
#1347=DIRECTION('',(1.,0.,0.));
#1348=DIRECTION('',(0.707106781186548,0.,-0.707106781186547));
#1349=DIRECTION('',(0.,0.,1.));
#1350=DIRECTION('',(1.,0.,0.));
#1351=DIRECTION('',(0.,0.,1.));
#1352=DIRECTION('',(1.,0.,0.));
#1353=DIRECTION('',(0.,0.,1.));
#1354=DIRECTION('',(1.,0.,0.));
#1355=DIRECTION('',(0.,0.,1.));
#1356=DIRECTION('',(1.,0.,0.));
#1357=DIRECTION('',(0.,0.,1.));
#1358=DIRECTION('',(1.,0.,0.));
#1359=DIRECTION('',(0.,1.,0.));
#1360=DIRECTION('',(1.,0.,0.));
#1361=DIRECTION('',(0.,0.,1.));
#1362=DIRECTION('',(1.,0.,0.));
#1363=DIRECTION('',(0.,-1.,0.));
#1364=DIRECTION('',(0.,0.,1.));
#1365=DIRECTION('',(1.,0.,0.));
#1366=DIRECTION('',(1.,0.,0.));
#1367=DIRECTION('',(0.,0.,1.));
#1368=DIRECTION('',(1.,0.,0.));
#1369=DIRECTION('',(0.,-1.,0.));
#1370=DIRECTION('',(0.,0.,1.));
#1371=DIRECTION('',(1.,0.,0.));
#1372=DIRECTION('',(1.,0.,0.));
#1373=DIRECTION('',(0.,1.,0.));
#1374=DIRECTION('',(0.,0.,1.));
#1375=DIRECTION('',(1.,0.,0.));
#1376=DIRECTION('',(0.,1.,0.));
#1377=DIRECTION('',(0.,0.,1.));
#1378=DIRECTION('',(1.,0.,0.));
#1379=DIRECTION('',(1.,0.,0.));
#1380=DIRECTION('',(0.,0.,1.));
#1381=DIRECTION('',(1.,0.,0.));
#1382=DIRECTION('',(0.,1.,0.));
#1383=DIRECTION('',(0.,0.,1.));
#1384=DIRECTION('',(1.,0.,0.));
#1385=DIRECTION('',(0.,1.,0.));
#1386=DIRECTION('',(0.,0.,1.));
#1387=DIRECTION('',(0.,0.,-1.));
#1388=DIRECTION('',(0.707106781186548,0.,-0.707106781186547));
#1389=DIRECTION('',(1.,0.,0.));
#1390=DIRECTION('',(-0.707106781186548,0.,-0.707106781186547));
#1391=DIRECTION('',(0.,0.,-1.));
#1392=DIRECTION('',(0.,0.,-1.));
#1393=DIRECTION('',(1.,0.,0.));
#1394=DIRECTION('',(0.,0.,-1.));
#1395=DIRECTION('',(1.,0.,0.));
#1396=DIRECTION('',(0.,0.,-1.));
#1397=DIRECTION('',(0.,-1.,0.));
#1398=DIRECTION('',(0.,0.,-1.));
#1399=DIRECTION('',(0.,-1.,0.));
#1400=DIRECTION('',(0.,0.,-1.));
#1401=DIRECTION('',(0.,1.,0.));
#1402=DIRECTION('',(0.,0.,1.));
#1403=DIRECTION('',(1.,0.,0.));
#1404=DIRECTION('',(0.,0.,-1.));
#1405=DIRECTION('',(1.,0.,0.));
#1406=DIRECTION('',(1.,0.,0.));
#1407=DIRECTION('',(0.,0.,-1.));
#1408=DIRECTION('',(0.,-1.,0.));
#1409=DIRECTION('',(0.,0.,-1.));
#1410=DIRECTION('',(0.,-1.,0.));
#1411=DIRECTION('',(-1.,0.,0.));
#1412=DIRECTION('',(0.,0.,1.));
#1413=DIRECTION('',(0.,1.,0.));
#1414=DIRECTION('',(0.,0.,-1.));
#1415=DIRECTION('',(0.,1.,0.));
#1416=DIRECTION('',(0.,0.,-1.));
#1417=DIRECTION('',(0.,1.,0.));
#1418=DIRECTION('',(0.,0.,1.));
#1419=DIRECTION('',(1.,0.,0.));
#1420=DIRECTION('',(0.,0.,-1.));
#1421=DIRECTION('',(1.,0.,0.));
#1422=DIRECTION('',(1.,0.,0.));
#1423=DIRECTION('',(0.,0.,-1.));
#1424=DIRECTION('',(0.,-1.,0.));
#1425=DIRECTION('',(0.,0.,-1.));
#1426=DIRECTION('',(0.,-1.,0.));
#1427=DIRECTION('',(-0.707106781186548,0.707106781186548,0.));
#1428=DIRECTION('',(-0.707106781186548,-0.707106781186548,0.));
#1429=DIRECTION('',(0.707106781186548,0.707106781186548,0.));
#1430=DIRECTION('',(0.,0.,-1.));
#1431=DIRECTION('',(0.707106781186548,0.707106781186548,0.));
#1432=DIRECTION('',(0.,1.,0.));
#1433=DIRECTION('',(0.,0.,1.));
#1434=DIRECTION('',(1.,0.,0.));
#1435=DIRECTION('',(0.,0.,-1.));
#1436=DIRECTION('',(1.,0.,0.));
#1437=DIRECTION('',(0.,0.,-1.));
#1438=DIRECTION('',(-0.707106781186547,-0.707106781186548,0.));
#1439=DIRECTION('',(0.707106781186548,-0.707106781186547,0.));
#1440=DIRECTION('',(-0.707106781186548,0.707106781186547,0.));
#1441=DIRECTION('',(0.,0.,-1.));
#1442=DIRECTION('',(-0.707106781186548,0.707106781186547,0.));
#1443=DIRECTION('',(0.,1.,0.));
#1444=DIRECTION('',(0.,0.,1.));
#1445=DIRECTION('',(1.,0.,0.));
#1446=DIRECTION('',(0.,0.,-1.));
#1447=DIRECTION('',(1.,0.,0.));
#1448=DIRECTION('',(1.,0.,0.));
#1449=DIRECTION('',(0.,0.,-1.));
#1450=DIRECTION('',(0.,-1.,0.));
#1451=DIRECTION('',(0.,0.,-1.));
#1452=DIRECTION('',(0.,-1.,0.));
#1453=DIRECTION('',(7.98875249527074E-17,-1.,0.));
#1454=DIRECTION('',(1.,7.98875249527074E-17,0.));
#1455=DIRECTION('',(-1.,-7.98875249527074E-17,0.));
#1456=DIRECTION('',(0.,0.,-1.));
#1457=DIRECTION('',(-1.,-7.98875249527074E-17,0.));
#1458=DIRECTION('',(1.,0.,0.));
#1459=DIRECTION('',(0.,0.,-1.));
#1460=DIRECTION('',(0.,-1.,0.));
#1461=DIRECTION('',(0.,0.,-1.));
#1462=DIRECTION('',(0.,-1.,0.));
#1463=DIRECTION('',(-6.40868109547659E-17,1.,0.));
#1464=DIRECTION('',(-1.,-6.40868109547659E-17,0.));
#1465=DIRECTION('',(1.,6.40868109547659E-17,0.));
#1466=DIRECTION('',(0.,0.,-1.));
#1467=DIRECTION('',(1.,6.40868109547659E-17,0.));
#1468=DIRECTION('',(0.707106781186548,-0.707106781186548,0.));
#1469=DIRECTION('',(0.707106781186548,0.707106781186548,0.));
#1470=DIRECTION('',(-0.707106781186548,-0.707106781186548,0.));
#1471=DIRECTION('',(0.,0.,-1.));
#1472=DIRECTION('',(-0.707106781186548,-0.707106781186548,0.));
#1473=DIRECTION('',(1.,0.,0.));
#1474=DIRECTION('',(0.,0.,-1.));
#1475=DIRECTION('',(0.,-1.,0.));
#1476=DIRECTION('',(0.,0.,-1.));
#1477=DIRECTION('',(0.,-1.,0.));
#1478=DIRECTION('',(0.,1.,0.));
#1479=DIRECTION('',(0.,0.,1.));
#1480=DIRECTION('',(1.,0.,0.));
#1481=DIRECTION('',(0.,0.,-1.));
#1482=DIRECTION('',(1.,0.,0.));
#1483=DIRECTION('',(0.,1.,0.));
#1484=DIRECTION('',(0.,0.,1.));
#1485=DIRECTION('',(1.,0.,0.));
#1486=DIRECTION('',(0.,0.,-1.));
#1487=DIRECTION('',(1.,0.,0.));
#1488=DIRECTION('',(0.,0.,-1.));
#1489=DIRECTION('',(-1.,0.,0.));
#1490=DIRECTION('',(0.,0.,1.));
#1491=DIRECTION('',(0.,1.,0.));
#1492=DIRECTION('',(0.,0.,-1.));
#1493=DIRECTION('',(0.,1.,0.));
#1494=DIRECTION('',(0.,1.,0.));
#1495=DIRECTION('',(0.,0.,1.));
#1496=DIRECTION('',(1.,0.,0.));
#1497=DIRECTION('',(0.,0.,-1.));
#1498=DIRECTION('',(1.,0.,0.));
#1499=DIRECTION('',(0.,1.,0.));
#1500=DIRECTION('',(0.,0.,1.));
#1501=DIRECTION('',(1.,0.,0.));
#1502=DIRECTION('',(1.,0.,0.));
#1503=DIRECTION('',(0.,1.,0.));
#1504=DIRECTION('',(0.,0.,1.));
#1505=DIRECTION('',(1.,0.,0.));
#1506=DIRECTION('',(1.,0.,0.));
#1507=DIRECTION('',(0.,0.,-1.));
#1508=DIRECTION('',(-1.,0.,0.));
#1509=DIRECTION('',(0.,0.,1.));
#1510=DIRECTION('',(1.,0.,0.));
#1511=DIRECTION('',(0.,0.,1.));
#1512=DIRECTION('',(1.,0.,0.));
#1513=DIRECTION('',(0.,0.,-1.));
#1514=DIRECTION('',(-1.,0.,0.));
#1515=DIRECTION('',(0.,0.,1.));
#1516=DIRECTION('',(1.,0.,0.));
#1517=DIRECTION('',(0.,0.,1.));
#1518=DIRECTION('',(1.,0.,0.));
#1519=DIRECTION('',(0.,0.,-1.));
#1520=DIRECTION('',(-1.,0.,0.));
#1521=DIRECTION('',(0.,0.,1.));
#1522=DIRECTION('',(1.,0.,0.));
#1523=DIRECTION('',(0.,0.,1.));
#1524=DIRECTION('',(1.,0.,0.));
#1525=DIRECTION('',(0.,0.,-1.));
#1526=DIRECTION('',(-1.,0.,0.));
#1527=DIRECTION('',(0.,0.,1.));
#1528=DIRECTION('',(1.,0.,0.));
#1529=DIRECTION('',(0.,0.,1.));
#1530=DIRECTION('',(1.,0.,0.));
#1531=DIRECTION('',(0.,0.,-1.));
#1532=DIRECTION('',(-1.,0.,0.));
#1533=DIRECTION('',(0.,0.,1.));
#1534=DIRECTION('',(1.,0.,0.));
#1535=DIRECTION('',(0.,0.,1.));
#1536=DIRECTION('',(1.,0.,0.));
#1537=DIRECTION('',(0.,0.,-1.));
#1538=DIRECTION('',(-1.,0.,0.));
#1539=DIRECTION('',(0.,0.,1.));
#1540=DIRECTION('',(1.,0.,0.));
#1541=DIRECTION('',(0.,0.,1.));
#1542=DIRECTION('',(1.,0.,0.));
#1543=DIRECTION('',(-0.707106781186548,0.707106781186548,0.));
#1544=DIRECTION('',(-0.707106781186548,-0.707106781186548,0.));
#1545=DIRECTION('',(0.707106781186548,0.707106781186548,0.));
#1546=DIRECTION('',(0.707106781186548,0.707106781186548,0.));
#1547=DIRECTION('',(-1.,0.,0.));
#1548=DIRECTION('',(0.,0.,1.));
#1549=DIRECTION('',(0.,1.,0.));
#1550=DIRECTION('',(0.,1.,0.));
#1551=DIRECTION('',(0.,0.,1.));
#1552=DIRECTION('',(1.,0.,0.));
#1553=DIRECTION('',(0.,0.,1.));
#1554=DIRECTION('',(1.,0.,0.));
#1555=DIRECTION('',(0.,0.,1.));
#1556=DIRECTION('',(1.,0.,0.));
#1557=DIRECTION('',(0.,1.,0.));
#1558=DIRECTION('',(0.,0.,1.));
#1559=DIRECTION('',(1.,0.,0.));
#1560=DIRECTION('',(1.,0.,0.));
#1561=DIRECTION('',(0.,0.,1.));
#1562=DIRECTION('',(1.,0.,0.));
#1563=DIRECTION('',(0.,1.,0.));
#1564=DIRECTION('',(0.,0.,1.));
#1565=DIRECTION('',(1.,0.,0.));
#1566=DIRECTION('',(0.,0.,1.));
#1567=DIRECTION('',(1.,0.,0.));
#1568=DIRECTION('',(0.,0.,1.));
#1569=DIRECTION('',(1.,0.,0.));
#1570=DIRECTION('',(0.,0.,1.));
#1571=DIRECTION('',(1.,0.,0.));
#1572=DIRECTION('',(0.,0.,1.));
#1573=DIRECTION('',(1.,0.,0.));
#1574=DIRECTION('',(0.,0.,1.));
#1575=DIRECTION('',(1.,0.,0.));
#1576=DIRECTION('',(0.,0.,1.));
#1577=DIRECTION('',(1.,0.,0.));
#1578=DIRECTION('',(0.,0.,1.));
#1579=DIRECTION('',(1.,0.,0.));
#1580=DIRECTION('',(0.,0.,1.));
#1581=DIRECTION('',(1.,0.,0.));
#1582=DIRECTION('',(0.,0.,1.));
#1583=DIRECTION('',(1.,0.,0.));
#1584=DIRECTION('',(0.,0.,-1.));
#1585=DIRECTION('',(-1.,0.,0.));
#1586=DIRECTION('',(0.,0.,-1.));
#1587=DIRECTION('',(-1.,0.,0.));
#1588=DIRECTION('',(0.,0.,1.));
#1589=DIRECTION('',(0.,0.,-1.));
#1590=DIRECTION('',(0.,0.,-1.));
#1591=DIRECTION('',(-1.,0.,0.));
#1592=DIRECTION('',(0.,0.,-1.));
#1593=DIRECTION('',(0.,1.,0.));
#1594=DIRECTION('',(0.,0.,1.));
#1595=DIRECTION('',(0.,0.,-1.));
#1596=DIRECTION('',(0.,0.,-1.));
#1597=DIRECTION('',(-1.,0.,0.));
#1598=DIRECTION('',(0.,0.,-1.));
#1599=DIRECTION('',(-1.,0.,0.));
#1600=DIRECTION('',(0.,0.,1.));
#1601=DIRECTION('',(0.,0.,-1.));
#1602=DIRECTION('',(0.,0.,-1.));
#1603=DIRECTION('',(-1.,0.,0.));
#1604=DIRECTION('',(0.,0.,1.));
#1605=DIRECTION('',(1.,0.,0.));
#1606=DIRECTION('',(0.,-1.,0.));
#1607=DIRECTION('',(0.,0.,1.));
#1608=DIRECTION('',(1.,0.,0.));
#1609=DIRECTION('',(1.,0.,0.));
#1610=DIRECTION('',(0.,0.,1.));
#1611=DIRECTION('',(1.,0.,0.));
#1612=DIRECTION('',(0.,-1.,0.));
#1613=DIRECTION('',(0.,0.,1.));
#1614=DIRECTION('',(1.,0.,0.));
#1615=DIRECTION('',(0.,0.,1.));
#1616=DIRECTION('',(1.,0.,0.));
#1617=DIRECTION('',(0.,0.,-1.));
#1618=DIRECTION('',(-1.,0.,0.));
#1619=DIRECTION('',(0.,0.,-1.));
#1620=DIRECTION('',(0.,0.,-1.));
#1621=DIRECTION('',(0.,1.,0.));
#1622=DIRECTION('',(0.,0.,1.));
#1623=DIRECTION('',(0.,0.,-1.));
#1624=DIRECTION('',(0.,0.,-1.));
#1625=DIRECTION('',(-1.,0.,0.));
#1626=DIRECTION('',(0.,0.,-1.));
#1627=DIRECTION('',(1.,0.,0.));
#1628=DIRECTION('',(0.,0.,-1.));
#1629=DIRECTION('',(0.,0.,-1.));
#1630=DIRECTION('',(0.,0.,-1.));
#1631=DIRECTION('',(-1.,0.,0.));
#1632=DIRECTION('',(0.,0.,-1.));
#1633=DIRECTION('',(-1.,0.,0.));
#1634=DIRECTION('',(0.,0.,-1.));
#1635=DIRECTION('',(1.,0.,0.));
#1636=DIRECTION('',(0.,0.,-1.));
#1637=DIRECTION('',(0.,0.,1.));
#1638=DIRECTION('',(1.,0.,0.));
#1639=DIRECTION('',(0.,0.,1.));
#1640=DIRECTION('',(1.,0.,0.));
#1641=DIRECTION('',(0.,0.,1.));
#1642=DIRECTION('',(1.,0.,0.));
#1643=DIRECTION('',(0.,0.,1.));
#1644=DIRECTION('',(1.,0.,0.));
#1645=DIRECTION('',(0.,0.,1.));
#1646=DIRECTION('',(1.,0.,0.));
#1647=DIRECTION('',(0.,0.,1.));
#1648=DIRECTION('',(1.,0.,0.));
#1649=DIRECTION('',(0.,0.,1.));
#1650=DIRECTION('',(1.,0.,0.));
#1651=DIRECTION('',(0.,0.,1.));
#1652=DIRECTION('',(1.,0.,0.));
#1653=DIRECTION('',(0.,0.,1.));
#1654=DIRECTION('',(1.,0.,0.));
#1655=DIRECTION('',(0.,0.,1.));
#1656=DIRECTION('',(1.,0.,0.));
#1657=DIRECTION('',(0.,0.,1.));
#1658=DIRECTION('',(1.,0.,0.));
#1659=DIRECTION('',(0.,0.,1.));
#1660=DIRECTION('',(1.,0.,0.));
#1661=DIRECTION('',(1.,0.,0.));
#1662=DIRECTION('',(0.,0.,-1.));
#1663=DIRECTION('',(0.,-1.,0.));
#1664=DIRECTION('',(0.707106781186547,0.,0.707106781186548));
#1665=DIRECTION('',(0.707106781186548,0.,-0.707106781186547));
#1666=DIRECTION('',(0.,-1.,0.));
#1667=DIRECTION('',(0.,0.,1.));
#1668=DIRECTION('',(1.,0.,0.));
#1669=DIRECTION('',(0.,-1.,0.));
#1670=DIRECTION('',(0.707106781186547,0.,-0.707106781186548));
#1671=DIRECTION('',(-0.707106781186548,0.,-0.707106781186547));
#1672=DIRECTION('',(0.,-1.,0.));
#1673=DIRECTION('',(1.,0.,0.));
#1674=DIRECTION('',(0.,0.,-1.));
#1675=CARTESIAN_POINT('',(0.,0.,0.));
#1676=CARTESIAN_POINT('',(-0.000252837294283104,0.0945777206153895,0.012));
#1677=CARTESIAN_POINT('',(0.178191483020782,0.0945777206153895,0.012));
#1678=CARTESIAN_POINT('',(0.178191483020782,0.0945777206153895,0.012));
#1679=CARTESIAN_POINT('',(0.178191483020782,0.0945777206153895,0.0100368769030721));
#1680=CARTESIAN_POINT('',(-0.000252837294283104,0.0945777206153895,0.012));
#1681=CARTESIAN_POINT('',(-0.209075837294283,0.0945777206153895,0.012));
#1682=CARTESIAN_POINT('',(-0.209075837294283,0.0945777206153895,0.012));
#1683=CARTESIAN_POINT('',(-0.209075837294283,0.0945777206153895,0.007));
#1684=CARTESIAN_POINT('',(-0.000252837294283104,0.0945777206153895,0.007));
#1685=CARTESIAN_POINT('',(0.208570162705717,0.0945777206153895,0.007));
#1686=CARTESIAN_POINT('',(0.208570162705717,0.0945777206153895,0.012));
#1687=CARTESIAN_POINT('',(0.208570162705717,0.0945777206153895,0.012));
#1688=CARTESIAN_POINT('',(-0.000252837294283104,0.0945777206153895,0.012));
#1689=CARTESIAN_POINT('',(0.200649738311767,0.0945777206153895,0.012));
#1690=CARTESIAN_POINT('',(0.200649738311767,0.0945777206153895,0.012));
#1691=CARTESIAN_POINT('',(0.200649738311767,0.0945777206153895,0.0100368769030721));
#1692=CARTESIAN_POINT('',(0.101180012057206,0.0945777206153895,-0.0894328493514893));
#1693=CARTESIAN_POINT('',(0.197649738311767,0.0945777206153895,0.0070368769030721));
#1694=CARTESIAN_POINT('',(-0.000252837294283104,0.0945777206153895,0.0070368769030721));
#1695=CARTESIAN_POINT('',(0.181191483020782,0.0945777206153895,0.0070368769030721));
#1696=CARTESIAN_POINT('',(0.0879877613147856,0.0945777206153895,0.100240598609069));
#1697=CARTESIAN_POINT('',(-0.000252837294283104,0.0247721403684759,0.012));
#1698=CARTESIAN_POINT('',(0.218570162705717,0.099215489133908,0.012));
#1699=CARTESIAN_POINT('',(0.220920162705717,0.099215489133908,0.012));
#1700=CARTESIAN_POINT('',(0.218570162705717,-0.0496712083969561,0.012));
#1701=CARTESIAN_POINT('',(0.220920162705717,-0.0496712083969561,0.012));
#1702=CARTESIAN_POINT('',(-0.219075837294283,-0.0496712083969561,0.012));
#1703=CARTESIAN_POINT('',(-0.216725837294283,-0.0496712083969561,0.012));
#1704=CARTESIAN_POINT('',(-0.219075837294283,0.099215489133908,0.012));
#1705=CARTESIAN_POINT('',(-0.216725837294283,0.099215489133908,0.012));
#1706=CARTESIAN_POINT('',(0.178191483020782,0.0247721403684759,0.012));
#1707=CARTESIAN_POINT('',(0.178191483020782,0.104215489133908,0.012));
#1708=CARTESIAN_POINT('',(-0.000252837294283104,0.104215489133908,0.012));
#1709=CARTESIAN_POINT('',(-0.219075837294283,0.104215489133908,0.012));
#1710=CARTESIAN_POINT('',(-0.219075837294283,0.099215489133908,0.012));
#1711=CARTESIAN_POINT('',(-0.224075837294283,0.099215489133908,0.012));
#1712=CARTESIAN_POINT('',(-0.224075837294283,0.0247721403684759,0.012));
#1713=CARTESIAN_POINT('',(-0.224075837294283,-0.0496712083969561,0.012));
#1714=CARTESIAN_POINT('',(-0.219075837294283,-0.0496712083969562,0.012));
#1715=CARTESIAN_POINT('',(-0.219075837294283,-0.0546712083969561,0.012));
#1716=CARTESIAN_POINT('',(-0.000252837294283104,-0.0546712083969561,0.012));
#1717=CARTESIAN_POINT('',(0.218570162705717,-0.0546712083969561,0.012));
#1718=CARTESIAN_POINT('',(0.218570162705717,-0.0496712083969561,0.012));
#1719=CARTESIAN_POINT('',(0.223570162705717,-0.0496712083969561,0.012));
#1720=CARTESIAN_POINT('',(0.223570162705717,0.0247721403684759,0.012));
#1721=CARTESIAN_POINT('',(0.223570162705717,0.099215489133908,0.012));
#1722=CARTESIAN_POINT('',(0.218570162705717,0.099215489133908,0.012));
#1723=CARTESIAN_POINT('',(0.218570162705717,0.104215489133908,0.012));
#1724=CARTESIAN_POINT('',(-0.000252837294283104,0.104215489133908,0.012));
#1725=CARTESIAN_POINT('',(0.200649738311767,0.104215489133908,0.012));
#1726=CARTESIAN_POINT('',(0.200649738311767,0.0247721403684759,0.012));
#1727=CARTESIAN_POINT('',(0.208570162705717,0.0895777206153896,0.012));
#1728=CARTESIAN_POINT('',(0.213570162705717,0.0895777206153895,0.012));
#1729=CARTESIAN_POINT('',(0.213570162705717,0.0249532561092167,0.012));
#1730=CARTESIAN_POINT('',(0.213570162705717,-0.039671208396956,0.012));
#1731=CARTESIAN_POINT('',(0.208570162705717,-0.0396712083969561,0.012));
#1732=CARTESIAN_POINT('',(0.208570162705717,-0.0446712083969562,0.012));
#1733=CARTESIAN_POINT('',(-0.000252837294283104,-0.0446712083969562,0.012));
#1734=CARTESIAN_POINT('',(-0.209075837294283,-0.0446712083969561,0.012));
#1735=CARTESIAN_POINT('',(-0.209075837294283,-0.0396712083969561,0.012));
#1736=CARTESIAN_POINT('',(-0.214075837294283,-0.039671208396956,0.012));
#1737=CARTESIAN_POINT('',(-0.214075837294283,0.0249532561092167,0.012));
#1738=CARTESIAN_POINT('',(-0.214075837294283,0.0895777206153895,0.012));
#1739=CARTESIAN_POINT('',(-0.209075837294283,0.0895777206153896,0.012));
#1740=CARTESIAN_POINT('',(-0.000252837294283104,0.104215489133908,0.003));
#1741=CARTESIAN_POINT('',(0.178191483020782,0.104215489133908,0.003));
#1742=CARTESIAN_POINT('',(0.178191483020782,0.104215489133908,0.0100368769030721));
#1743=CARTESIAN_POINT('',(0.0924877613147856,0.104215489133908,0.0957405986090688));
#1744=CARTESIAN_POINT('',(0.181191483020782,0.104215489133908,0.0070368769030721));
#1745=CARTESIAN_POINT('',(-0.000252837294283104,0.104215489133908,0.0070368769030721));
#1746=CARTESIAN_POINT('',(0.197649738311767,0.104215489133908,0.0070368769030721));
#1747=CARTESIAN_POINT('',(0.0966800120572061,0.104215489133908,-0.0939328493514893));
#1748=CARTESIAN_POINT('',(0.200649738311767,0.104215489133908,0.0100368769030721));
#1749=CARTESIAN_POINT('',(0.200649738311767,0.104215489133908,0.003));
#1750=CARTESIAN_POINT('',(0.218570162705717,0.104215489133908,0.003));
#1751=CARTESIAN_POINT('',(0.218570162705717,0.104215489133908,0.));
#1752=CARTESIAN_POINT('',(-0.000252837294283104,0.104215489133908,0.));
#1753=CARTESIAN_POINT('',(-0.219075837294283,0.104215489133908,0.));
#1754=CARTESIAN_POINT('',(-0.219075837294283,0.104215489133908,0.003));
#1755=CARTESIAN_POINT('',(0.146493032574654,0.074432160705328,0.007));
#1756=CARTESIAN_POINT('',(0.146493032574654,0.074432160705328,0.003));
#1757=CARTESIAN_POINT('',(0.146493032574654,0.0841341838240624,0.003));
#1758=CARTESIAN_POINT('',(0.146493032574654,0.0647301375865936,0.003));
#1759=CARTESIAN_POINT('',(0.146493032574654,0.0841341838240624,0.007));
#1760=CARTESIAN_POINT('',(0.146493032574654,0.0841341838240624,0.007));
#1761=CARTESIAN_POINT('',(0.146493032574654,0.074432160705328,0.007));
#1762=CARTESIAN_POINT('',(0.146493032574654,0.0647301375865936,0.007));
#1763=CARTESIAN_POINT('',(0.146493032574654,0.0647301375865936,0.007));
#1764=CARTESIAN_POINT('',(0.156247787177563,0.0841341838240624,0.007));
#1765=CARTESIAN_POINT('',(0.156247787177563,0.0841341838240624,0.003));
#1766=CARTESIAN_POINT('',(0.166002541780472,0.0841341838240624,0.003));
#1767=CARTESIAN_POINT('',(0.166002541780472,0.0841341838240624,0.007));
#1768=CARTESIAN_POINT('',(0.166002541780472,0.0841341838240624,0.007));
#1769=CARTESIAN_POINT('',(0.156247787177563,0.0841341838240624,0.007));
#1770=CARTESIAN_POINT('',(0.166002541780472,0.074432160705328,0.007));
#1771=CARTESIAN_POINT('',(0.166002541780472,0.074432160705328,0.003));
#1772=CARTESIAN_POINT('',(0.166002541780472,0.0647301375865936,0.003));
#1773=CARTESIAN_POINT('',(0.166002541780472,0.0647301375865936,0.007));
#1774=CARTESIAN_POINT('',(0.166002541780472,0.0647301375865936,0.007));
#1775=CARTESIAN_POINT('',(0.166002541780472,0.074432160705328,0.007));
#1776=CARTESIAN_POINT('',(0.14125981926918,-0.0141887152418494,0.007));
#1777=CARTESIAN_POINT('',(0.14125981926918,-0.0141887152418494,0.003));
#1778=CARTESIAN_POINT('',(0.14125981926918,-0.0324342457056046,0.003));
#1779=CARTESIAN_POINT('',(0.14125981926918,0.0040568152219057,0.003));
#1780=CARTESIAN_POINT('',(0.14125981926918,-0.0324342457056046,0.007));
#1781=CARTESIAN_POINT('',(0.14125981926918,-0.0324342457056046,0.007));
#1782=CARTESIAN_POINT('',(0.14125981926918,-0.0141887152418494,0.007));
#1783=CARTESIAN_POINT('',(0.14125981926918,0.0040568152219057,0.007));
#1784=CARTESIAN_POINT('',(0.14125981926918,0.0040568152219057,0.007));
#1785=CARTESIAN_POINT('',(0.112864494174719,-0.0324342457056046,0.007));
#1786=CARTESIAN_POINT('',(0.112864494174719,-0.0324342457056046,0.003));
#1787=CARTESIAN_POINT('',(0.0844691690802574,-0.0324342457056046,0.003));
#1788=CARTESIAN_POINT('',(0.0844691690802574,-0.0324342457056046,0.007));
#1789=CARTESIAN_POINT('',(0.0844691690802574,-0.0324342457056046,0.007));
#1790=CARTESIAN_POINT('',(0.112864494174719,-0.0324342457056046,0.007));
#1791=CARTESIAN_POINT('',(0.0844691690802574,-0.0169920161007486,0.007));
#1792=CARTESIAN_POINT('',(0.0844691690802574,-0.0169920161007486,0.003));
#1793=CARTESIAN_POINT('',(0.0844691690802574,-0.00154978649589253,0.003));
#1794=CARTESIAN_POINT('',(0.0844691690802574,-0.00154978649589253,0.007));
#1795=CARTESIAN_POINT('',(0.0844691690802574,-0.00154978649589253,0.007));
#1796=CARTESIAN_POINT('',(0.0844691690802574,-0.0169920161007486,0.007));
#1797=CARTESIAN_POINT('',(0.0872724699391565,0.00125351436300659,0.007));
#1798=CARTESIAN_POINT('',(0.0872724699391565,0.00125351436300659,0.003));
#1799=CARTESIAN_POINT('',(0.0900757707980556,0.0040568152219057,0.003));
#1800=CARTESIAN_POINT('',(0.0900757707980556,0.0040568152219057,0.007));
#1801=CARTESIAN_POINT('',(0.0900757707980556,0.0040568152219057,0.007));
#1802=CARTESIAN_POINT('',(0.0872724699391565,0.00125351436300659,0.007));
#1803=CARTESIAN_POINT('',(-0.0728875952124213,-0.0389342457056046,0.007));
#1804=CARTESIAN_POINT('',(-0.0728875952124213,-0.0389342457056046,0.003));
#1805=CARTESIAN_POINT('',(-0.12403896172039,-0.0389342457056046,0.003));
#1806=CARTESIAN_POINT('',(-0.0217362287044525,-0.0389342457056046,0.003));
#1807=CARTESIAN_POINT('',(-0.12403896172039,-0.0389342457056046,0.007));
#1808=CARTESIAN_POINT('',(-0.12403896172039,-0.0389342457056046,0.007));
#1809=CARTESIAN_POINT('',(-0.0728875952124213,-0.0389342457056046,0.007));
#1810=CARTESIAN_POINT('',(-0.0217362287044525,-0.0389342457056046,0.007));
#1811=CARTESIAN_POINT('',(-0.0217362287044525,-0.0389342457056046,0.007));
#1812=CARTESIAN_POINT('',(-0.12728896172039,-0.0356842457056046,0.007));
#1813=CARTESIAN_POINT('',(-0.12728896172039,-0.0356842457056046,0.003));
#1814=CARTESIAN_POINT('',(-0.13053896172039,-0.0324342457056046,0.003));
#1815=CARTESIAN_POINT('',(-0.13053896172039,-0.0324342457056046,0.007));
#1816=CARTESIAN_POINT('',(-0.13053896172039,-0.0324342457056046,0.007));
#1817=CARTESIAN_POINT('',(-0.12728896172039,-0.0356842457056046,0.007));
#1818=CARTESIAN_POINT('',(-0.168433140432796,-0.0324342457056046,0.007));
#1819=CARTESIAN_POINT('',(-0.168433140432796,-0.0324342457056046,0.003));
#1820=CARTESIAN_POINT('',(-0.206327319145202,-0.0324342457056046,0.003));
#1821=CARTESIAN_POINT('',(-0.206327319145202,-0.0324342457056046,0.007));
#1822=CARTESIAN_POINT('',(-0.206327319145202,-0.0324342457056046,0.007));
#1823=CARTESIAN_POINT('',(-0.168433140432796,-0.0324342457056046,0.007));
#1824=CARTESIAN_POINT('',(-0.206327319145202,0.0257727446556092,0.007));
#1825=CARTESIAN_POINT('',(-0.206327319145202,0.0257727446556092,0.003));
#1826=CARTESIAN_POINT('',(-0.206327319145202,0.0839797350168228,0.003));
#1827=CARTESIAN_POINT('',(-0.206327319145202,0.0839797350168228,0.007));
#1828=CARTESIAN_POINT('',(-0.206327319145202,0.0839797350168228,0.007));
#1829=CARTESIAN_POINT('',(-0.206327319145202,0.0257727446556092,0.007));
#1830=CARTESIAN_POINT('',(-0.0326107367873192,0.0839797350168228,0.007));
#1831=CARTESIAN_POINT('',(-0.0326107367873192,0.0839797350168228,0.003));
#1832=CARTESIAN_POINT('',(0.141105845570564,0.0839797350168228,0.003));
#1833=CARTESIAN_POINT('',(0.141105845570564,0.0839797350168228,0.007));
#1834=CARTESIAN_POINT('',(0.141105845570564,0.0839797350168228,0.007));
#1835=CARTESIAN_POINT('',(-0.0326107367873192,0.0839797350168228,0.007));
#1836=CARTESIAN_POINT('',(0.141105845570564,0.0477682751193643,0.007));
#1837=CARTESIAN_POINT('',(0.141105845570564,0.0477682751193643,0.003));
#1838=CARTESIAN_POINT('',(0.141105845570564,0.0115568152219057,0.003));
#1839=CARTESIAN_POINT('',(0.141105845570564,0.0115568152219057,0.007));
#1840=CARTESIAN_POINT('',(0.141105845570564,0.0115568152219057,0.007));
#1841=CARTESIAN_POINT('',(0.141105845570564,0.0477682751193643,0.007));
#1842=CARTESIAN_POINT('',(0.114037507325411,0.0115568152219057,0.007));
#1843=CARTESIAN_POINT('',(0.114037507325411,0.0115568152219057,0.003));
#1844=CARTESIAN_POINT('',(0.0869691690802574,0.0115568152219057,0.003));
#1845=CARTESIAN_POINT('',(0.0869691690802574,0.0115568152219057,0.007));
#1846=CARTESIAN_POINT('',(0.0869691690802574,0.0115568152219057,0.007));
#1847=CARTESIAN_POINT('',(0.114037507325411,0.0115568152219057,0.007));
#1848=CARTESIAN_POINT('',(0.0819691690802574,0.0065568152219057,0.007));
#1849=CARTESIAN_POINT('',(0.0819691690802574,0.0065568152219057,0.003));
#1850=CARTESIAN_POINT('',(0.0769691690802574,0.0015568152219057,0.003));
#1851=CARTESIAN_POINT('',(0.0769691690802574,0.0015568152219057,0.007));
#1852=CARTESIAN_POINT('',(0.0769691690802574,0.0015568152219057,0.007));
#1853=CARTESIAN_POINT('',(0.0819691690802574,0.0065568152219057,0.007));
#1854=CARTESIAN_POINT('',(0.0769691690802574,-0.0154387152418494,0.007));
#1855=CARTESIAN_POINT('',(0.0769691690802574,-0.0154387152418494,0.003));
#1856=CARTESIAN_POINT('',(0.0769691690802574,-0.0324342457056046,0.003));
#1857=CARTESIAN_POINT('',(0.0769691690802574,-0.0324342457056046,0.007));
#1858=CARTESIAN_POINT('',(0.0769691690802574,-0.0324342457056046,0.007));
#1859=CARTESIAN_POINT('',(0.0769691690802574,-0.0154387152418494,0.007));
#1860=CARTESIAN_POINT('',(0.0308664701879025,-0.0324342457056046,0.007));
#1861=CARTESIAN_POINT('',(0.0308664701879025,-0.0324342457056046,0.003));
#1862=CARTESIAN_POINT('',(-0.0152362287044525,-0.0324342457056046,0.003));
#1863=CARTESIAN_POINT('',(-0.0152362287044525,-0.0324342457056046,0.007));
#1864=CARTESIAN_POINT('',(-0.0152362287044525,-0.0324342457056046,0.007));
#1865=CARTESIAN_POINT('',(0.0308664701879025,-0.0324342457056046,0.007));
#1866=CARTESIAN_POINT('',(0.156252883374691,-0.0324342457056046,0.007));
#1867=CARTESIAN_POINT('',(0.156252883374691,-0.0324342457056046,0.003));
#1868=CARTESIAN_POINT('',(0.146502658724785,-0.0324342457056046,0.003));
#1869=CARTESIAN_POINT('',(0.166003108024597,-0.0324342457056046,0.003));
#1870=CARTESIAN_POINT('',(0.146502658724785,-0.0324342457056046,0.007));
#1871=CARTESIAN_POINT('',(0.146502658724785,-0.0324342457056046,0.007));
#1872=CARTESIAN_POINT('',(0.156252883374691,-0.0324342457056046,0.007));
#1873=CARTESIAN_POINT('',(0.166003108024597,-0.0324342457056046,0.007));
#1874=CARTESIAN_POINT('',(0.166003108024597,-0.0324342457056046,0.007));
#1875=CARTESIAN_POINT('',(0.146502658724785,0.0129253024756908,0.007));
#1876=CARTESIAN_POINT('',(0.146502658724785,0.0129253024756908,0.003));
#1877=CARTESIAN_POINT('',(0.146502658724785,0.0582848506569862,0.003));
#1878=CARTESIAN_POINT('',(0.146502658724785,0.0582848506569862,0.007));
#1879=CARTESIAN_POINT('',(0.146502658724785,0.0582848506569862,0.007));
#1880=CARTESIAN_POINT('',(0.146502658724785,0.0129253024756908,0.007));
#1881=CARTESIAN_POINT('',(0.156252883374691,0.0582848506569862,0.007));
#1882=CARTESIAN_POINT('',(0.156252883374691,0.0582848506569862,0.003));
#1883=CARTESIAN_POINT('',(0.166003108024597,0.0582848506569863,0.003));
#1884=CARTESIAN_POINT('',(0.166003108024597,0.0582848506569863,0.007));
#1885=CARTESIAN_POINT('',(0.166003108024597,0.0582848506569863,0.007));
#1886=CARTESIAN_POINT('',(0.156252883374691,0.0582848506569862,0.007));
#1887=CARTESIAN_POINT('',(0.156247787177563,0.0647301375865936,0.007));
#1888=CARTESIAN_POINT('',(0.156247787177563,0.0647301375865936,0.003));
#1889=CARTESIAN_POINT('',(0.156247787177563,0.0647301375865936,0.007));
#1890=CARTESIAN_POINT('',(0.115667795033618,0.0040568152219057,0.007));
#1891=CARTESIAN_POINT('',(0.115667795033618,0.0040568152219057,0.003));
#1892=CARTESIAN_POINT('',(0.115667795033618,0.0040568152219057,0.007));
#1893=CARTESIAN_POINT('',(0.206709355115891,-0.0380611307919025,0.007));
#1894=CARTESIAN_POINT('',(0.206709355115891,-0.0380611307919025,0.007));
#1895=CARTESIAN_POINT('',(0.20905935511589,-0.0380611307919025,0.007));
#1896=CARTESIAN_POINT('',(0.206709355115891,-0.0380611307919025,0.003));
#1897=CARTESIAN_POINT('',(0.20905935511589,-0.0380611307919025,0.003));
#1898=CARTESIAN_POINT('',(-0.00026,-0.038006038558163,0.007));
#1899=CARTESIAN_POINT('',(-0.00026,-0.038006038558163,0.007));
#1900=CARTESIAN_POINT('',(0.00209,-0.038006038558163,0.007));
#1901=CARTESIAN_POINT('',(-0.00026,-0.038006038558163,0.003));
#1902=CARTESIAN_POINT('',(0.00209,-0.038006038558163,0.003));
#1903=CARTESIAN_POINT('',(-0.207159548997879,-0.0381183475255966,0.007));
#1904=CARTESIAN_POINT('',(-0.207159548997879,-0.0381183475255966,0.007));
#1905=CARTESIAN_POINT('',(-0.204809548997879,-0.0381183475255966,0.007));
#1906=CARTESIAN_POINT('',(-0.207159548997879,-0.0381183475255966,0.003));
#1907=CARTESIAN_POINT('',(-0.204809548997879,-0.0381183475255966,0.003));
#1908=CARTESIAN_POINT('',(-0.207257571023759,0.087674029783073,0.007));
#1909=CARTESIAN_POINT('',(-0.207257571023759,0.087674029783073,0.007));
#1910=CARTESIAN_POINT('',(-0.20490757102376,0.087674029783073,0.007));
#1911=CARTESIAN_POINT('',(-0.207257571023759,0.087674029783073,0.003));
#1912=CARTESIAN_POINT('',(-0.20490757102376,0.087674029783073,0.003));
#1913=CARTESIAN_POINT('',(-0.000265207495296442,0.0876522365341627,0.007));
#1914=CARTESIAN_POINT('',(-0.000265207495296442,0.0876522365341627,0.007));
#1915=CARTESIAN_POINT('',(0.00208479250470356,0.0876522365341627,0.007));
#1916=CARTESIAN_POINT('',(-0.000265207495296442,0.0876522365341627,0.003));
#1917=CARTESIAN_POINT('',(0.00208479250470356,0.0876522365341627,0.003));
#1918=CARTESIAN_POINT('',(0.206737667322159,0.0877447053790093,0.007));
#1919=CARTESIAN_POINT('',(0.206737667322159,0.0877447053790093,0.007));
#1920=CARTESIAN_POINT('',(0.209087667322159,0.0877447053790093,0.007));
#1921=CARTESIAN_POINT('',(0.206737667322159,0.0877447053790093,0.003));
#1922=CARTESIAN_POINT('',(0.209087667322159,0.0877447053790093,0.003));
#1923=CARTESIAN_POINT('',(-0.0184862287044525,-0.0356842457056046,0.007));
#1924=CARTESIAN_POINT('',(-0.0184862287044525,-0.0356842457056046,0.003));
#1925=CARTESIAN_POINT('',(-0.0184862287044525,-0.0356842457056046,0.007));
#1926=CARTESIAN_POINT('',(0.166003108024597,0.0129253024756909,0.007));
#1927=CARTESIAN_POINT('',(0.166003108024597,0.0129253024756909,0.003));
#1928=CARTESIAN_POINT('',(0.166003108024597,0.0129253024756909,0.007));
#1929=CARTESIAN_POINT('',(-0.000252837294283104,0.0247721403684759,0.007));
#1930=CARTESIAN_POINT('',(0.208570162705717,0.0895777206153896,0.007));
#1931=CARTESIAN_POINT('',(0.213570162705717,0.0895777206153895,0.007));
#1932=CARTESIAN_POINT('',(-0.209075837294283,0.0895777206153896,0.007));
#1933=CARTESIAN_POINT('',(-0.214075837294283,0.0895777206153895,0.007));
#1934=CARTESIAN_POINT('',(-0.214075837294283,0.0249532561092167,0.007));
#1935=CARTESIAN_POINT('',(-0.214075837294283,-0.039671208396956,0.007));
#1936=CARTESIAN_POINT('',(-0.209075837294283,-0.0396712083969561,0.007));
#1937=CARTESIAN_POINT('',(-0.209075837294283,-0.0446712083969561,0.007));
#1938=CARTESIAN_POINT('',(-0.000252837294283104,-0.0446712083969562,0.007));
#1939=CARTESIAN_POINT('',(0.208570162705717,-0.0446712083969562,0.007));
#1940=CARTESIAN_POINT('',(0.208570162705717,-0.0396712083969561,0.007));
#1941=CARTESIAN_POINT('',(0.213570162705717,-0.039671208396956,0.007));
#1942=CARTESIAN_POINT('',(0.213570162705717,0.0249532561092167,0.007));
#1943=CARTESIAN_POINT('',(-0.000252837294283104,0.0247721403684759,0.003));
#1944=CARTESIAN_POINT('',(-0.000252837294283104,0.0247721403684759,0.003));
#1945=CARTESIAN_POINT('',(-0.000252837294283104,0.0247721403684759,0.003));
#1946=CARTESIAN_POINT('',(-0.000252837294283104,0.0247721403684759,0.003));
#1947=CARTESIAN_POINT('',(-0.000252837294283104,0.0247721403684759,0.003));
#1948=CARTESIAN_POINT('',(-0.000252837294283104,0.0247721403684759,0.003));
#1949=CARTESIAN_POINT('',(-0.000252837294283104,0.0247721403684759,0.003));
#1950=CARTESIAN_POINT('',(-0.000252837294283104,0.0247721403684759,0.003));
#1951=CARTESIAN_POINT('',(-0.000252837294283104,0.0247721403684759,0.003));
#1952=CARTESIAN_POINT('',(-0.000252837294283104,0.0247721403684759,0.003));
#1953=CARTESIAN_POINT('',(0.208570162705717,0.0895777206153896,0.012));
#1954=CARTESIAN_POINT('',(0.213570162705717,0.0895777206153895,0.012));
#1955=CARTESIAN_POINT('',(0.213570162705717,0.0249532561092167,0.012));
#1956=CARTESIAN_POINT('',(0.213570162705717,-0.039671208396956,0.012));
#1957=CARTESIAN_POINT('',(0.208570162705717,-0.0396712083969561,0.012));
#1958=CARTESIAN_POINT('',(0.208570162705717,-0.0446712083969562,0.012));
#1959=CARTESIAN_POINT('',(-0.000252837294283104,-0.0446712083969562,0.012));
#1960=CARTESIAN_POINT('',(-0.209075837294283,-0.0446712083969561,0.012));
#1961=CARTESIAN_POINT('',(-0.209075837294283,-0.0396712083969561,0.012));
#1962=CARTESIAN_POINT('',(-0.214075837294283,-0.039671208396956,0.012));
#1963=CARTESIAN_POINT('',(-0.214075837294283,0.0249532561092167,0.012));
#1964=CARTESIAN_POINT('',(-0.214075837294283,0.0895777206153895,0.012));
#1965=CARTESIAN_POINT('',(-0.209075837294283,0.0895777206153896,0.012));
#1966=CARTESIAN_POINT('',(-0.000252837294283104,0.0247721403684759,0.));
#1967=CARTESIAN_POINT('',(0.223570162705717,0.0247721403684759,0.));
#1968=CARTESIAN_POINT('',(0.223570162705717,0.099215489133908,0.));
#1969=CARTESIAN_POINT('',(0.223570162705717,-0.0496712083969561,0.));
#1970=CARTESIAN_POINT('',(0.218570162705717,-0.0496712083969561,0.));
#1971=CARTESIAN_POINT('',(0.218570162705717,-0.0546712083969561,0.));
#1972=CARTESIAN_POINT('',(-0.000252837294283104,-0.0546712083969561,0.));
#1973=CARTESIAN_POINT('',(-0.219075837294283,-0.0546712083969561,0.));
#1974=CARTESIAN_POINT('',(-0.219075837294283,-0.0496712083969562,0.));
#1975=CARTESIAN_POINT('',(-0.224075837294283,-0.0496712083969561,0.));
#1976=CARTESIAN_POINT('',(-0.224075837294283,0.0247721403684759,0.));
#1977=CARTESIAN_POINT('',(-0.224075837294283,0.099215489133908,0.));
#1978=CARTESIAN_POINT('',(-0.219075837294283,0.099215489133908,0.));
#1979=CARTESIAN_POINT('',(0.218570162705717,0.099215489133908,0.));
#1980=CARTESIAN_POINT('',(0.218570162705717,-0.0496712083969561,0.003));
#1981=CARTESIAN_POINT('',(0.223570162705717,-0.0496712083969561,0.003));
#1982=CARTESIAN_POINT('',(0.218570162705717,-0.0546712083969561,0.003));
#1983=CARTESIAN_POINT('',(-0.000252837294283104,-0.0546712083969561,0.003));
#1984=CARTESIAN_POINT('',(-0.219075837294283,-0.0546712083969561,0.003));
#1985=CARTESIAN_POINT('',(-0.219075837294283,-0.0496712083969562,0.003));
#1986=CARTESIAN_POINT('',(-0.224075837294283,-0.0496712083969561,0.003));
#1987=CARTESIAN_POINT('',(-0.224075837294283,0.0247721403684759,0.003));
#1988=CARTESIAN_POINT('',(-0.224075837294283,0.099215489133908,0.003));
#1989=CARTESIAN_POINT('',(-0.219075837294283,0.099215489133908,0.003));
#1990=CARTESIAN_POINT('',(0.218570162705717,0.099215489133908,0.003));
#1991=CARTESIAN_POINT('',(0.223570162705717,0.099215489133908,0.003));
#1992=CARTESIAN_POINT('',(0.223570162705717,0.0247721403684759,0.003));
#1993=CARTESIAN_POINT('',(-0.219075837294283,0.099215489133908,0.008));
#1994=CARTESIAN_POINT('',(-0.219075837294283,0.099215489133908,0.008));
#1995=CARTESIAN_POINT('',(-0.216725837294283,0.099215489133908,0.008));
#1996=CARTESIAN_POINT('',(-0.000252837294283104,0.0247721403684759,0.008));
#1997=CARTESIAN_POINT('',(-0.219075837294283,-0.0496712083969561,0.008));
#1998=CARTESIAN_POINT('',(-0.219075837294283,-0.0496712083969561,0.008));
#1999=CARTESIAN_POINT('',(-0.216725837294283,-0.0496712083969561,0.008));
#2000=CARTESIAN_POINT('',(-0.000252837294283104,0.0247721403684759,0.008));
#2001=CARTESIAN_POINT('',(0.218570162705717,-0.0496712083969561,0.008));
#2002=CARTESIAN_POINT('',(0.218570162705717,-0.0496712083969561,0.008));
#2003=CARTESIAN_POINT('',(0.220920162705717,-0.0496712083969561,0.008));
#2004=CARTESIAN_POINT('',(-0.000252837294283104,0.0247721403684759,0.008));
#2005=CARTESIAN_POINT('',(0.218570162705717,0.099215489133908,0.008));
#2006=CARTESIAN_POINT('',(0.218570162705717,0.099215489133908,0.008));
#2007=CARTESIAN_POINT('',(0.220920162705717,0.099215489133908,0.008));
#2008=CARTESIAN_POINT('',(-0.000252837294283104,0.0247721403684759,0.008));
#2009=CARTESIAN_POINT('',(0.178191483020782,0.115,0.0111812720647461));
#2010=CARTESIAN_POINT('',(0.178191483020782,0.115,0.0100368769030721));
#2011=CARTESIAN_POINT('',(0.179691483020782,0.115,0.0085368769030721));
#2012=CARTESIAN_POINT('',(0.181191483020782,0.115,0.0070368769030721));
#2013=CARTESIAN_POINT('',(0.189420610666275,0.115,0.0070368769030721));
#2014=CARTESIAN_POINT('',(0.197649738311767,0.115,0.0070368769030721));
#2015=CARTESIAN_POINT('',(0.199149738311767,0.115,0.0085368769030721));
#2016=CARTESIAN_POINT('',(0.200649738311767,0.115,0.0100368769030721));
#2017=CARTESIAN_POINT('',(0.200649738311767,0.115,0.0111812720647461));
#2018=MECHANICAL_DESIGN_GEOMETRIC_PRESENTATION_REPRESENTATION('',(#1215),
#2019);
#2019=(
GEOMETRIC_REPRESENTATION_CONTEXT(3)
GLOBAL_UNCERTAINTY_ASSIGNED_CONTEXT((#2020))
GLOBAL_UNIT_ASSIGNED_CONTEXT((#2023,#2022,#2021))
REPRESENTATION_CONTEXT('Part 1','TOP_LEVEL_ASSEMBLY_PART')
);
#2020=UNCERTAINTY_MEASURE_WITH_UNIT(LENGTH_MEASURE(1.E-8),#2023,
'DISTANCE_ACCURACY_VALUE','Maximum Tolerance applied to model');
#2021=(
NAMED_UNIT(*)
SI_UNIT($,.STERADIAN.)
SOLID_ANGLE_UNIT()
);
#2022=(
NAMED_UNIT(*)
PLANE_ANGLE_UNIT()
SI_UNIT($,.RADIAN.)
);
#2023=(
LENGTH_UNIT()
NAMED_UNIT(*)
SI_UNIT($,.METRE.)
);
#2024=PRODUCT_DEFINITION_SHAPE('','',#2025);
#2025=PRODUCT_DEFINITION('','',#2027,#2026);
#2026=PRODUCT_DEFINITION_CONTEXT('',#2033,'design');
#2027=PRODUCT_DEFINITION_FORMATION_WITH_SPECIFIED_SOURCE('','',#2029,
 .NOT_KNOWN.);
#2028=PRODUCT_RELATED_PRODUCT_CATEGORY('','',(#2029));
#2029=PRODUCT('Part 1','Part 1','Part 1',(#2031));
#2030=PRODUCT_CATEGORY('','');
#2031=PRODUCT_CONTEXT('',#2033,'mechanical');
#2032=APPLICATION_PROTOCOL_DEFINITION('international standard',
'ap242_managed_model_based_3d_engineering',2011,#2033);
#2033=APPLICATION_CONTEXT('managed model based 3d engineering');
ENDSEC;
END-ISO-10303-21;
