ISO-10303-21;
HEADER;
/* Generated by software containing ST-Developer
 * from STEP Tools, Inc. (www.steptools.com) 
 */
/* OPTION: using custom renumber hook */

FILE_DESCRIPTION(
/* description */ ('STEP AP242',
'CAx-IF Rec.Pracs.---Representation and Presentation of Product Manufa
cturing Information (PMI)---4.0---2014-10-13',
'CAx-IF Rec.Pracs.---3D Tessellated Geometry---0.4---2014-09-14','2;1'),

/* implementation_level */ '2;1');

FILE_NAME(
/* name */ '68914ef39843164a08578620',
/* time_stamp */ '2025-08-05T00:23:15Z',
/* author */ (''),
/* organization */ (''),
/* preprocessor_version */ 'ST-DEVELOPER v20',
/* originating_system */ 'ONSHAPE BY PTC INC, 1.201',
/* authorisation */ '  ');

FILE_SCHEMA (('AP242_MANAGED_MODEL_BASED_3D_ENGINEERING_MIM_LF { 1 0 10303 442 1 1 4 }'));
ENDSEC;

DATA;
#10=SHAPE_REPRESENTATION_RELATIONSHIP('','',#750,#11);
#11=ADVANCED_BREP_SHAPE_REPRESENTATION('',(#748),#1304);
#12=(
BOUNDED_SURFACE()
B_SPLINE_SURFACE(3,2,((#1238,#1239,#1240),(#1241,#1242,#1243),(#1244,#1245,
#1246),(#1247,#1248,#1249),(#1250,#1251,#1252),(#1253,#1254,#1255),(#1256,
#1257,#1258)),.UNSPECIFIED.,.F.,.F.,.F.)
B_SPLINE_SURFACE_WITH_KNOTS((4,1,1,1,4),(3,3),(6.28318530717959,6.49906752181833,
6.71494973645708,6.93083195109582,7.14671416573457),(0.,1.),
 .UNSPECIFIED.)
GEOMETRIC_REPRESENTATION_ITEM()
RATIONAL_B_SPLINE_SURFACE(((1.,0.707106781186548,1.),(1.,0.707106781899053,
1.),(1.,0.718395334388573,1.),(1.,0.763843207065367,1.),(1.,0.825380472759475,
1.),(1.,0.868196283875879,1.),(1.,0.888204121291843,1.)))
REPRESENTATION_ITEM('')
SURFACE()
);
#13=(
BOUNDED_SURFACE()
B_SPLINE_SURFACE(3,2,((#1262,#1263,#1264),(#1265,#1266,#1267),(#1268,#1269,
#1270),(#1271,#1272,#1273),(#1274,#1275,#1276),(#1277,#1278,#1279),(#1280,
#1281,#1282)),.UNSPECIFIED.,.F.,.F.,.F.)
B_SPLINE_SURFACE_WITH_KNOTS((4,1,1,1,4),(3,3),(6.28318530717959,6.49906752181832,
6.71494973645705,6.93083195109579,7.14671416573452),(0.,1.),
 .UNSPECIFIED.)
GEOMETRIC_REPRESENTATION_ITEM()
RATIONAL_B_SPLINE_SURFACE(((1.,0.707106781186548,1.),(1.,0.707106781898909,
1.),(1.,0.71839533438864,1.),(1.,0.763843207065336,1.),(1.,0.825380472759484,
1.),(1.,0.868196283875838,1.),(1.,0.888204121291831,1.)))
REPRESENTATION_ITEM('')
SURFACE()
);
#14=ELLIPSE('',#800,0.00552268050859362,0.0055);
#15=ELLIPSE('',#801,0.00777817459305203,0.0055);
#16=ELLIPSE('',#802,0.00552268050859362,0.0055);
#17=ELLIPSE('',#804,0.00552268050859363,0.0055);
#18=ELLIPSE('',#805,0.00552268050859363,0.0055);
#19=ELLIPSE('',#807,0.00777817459305203,0.0055);
#20=B_SPLINE_CURVE_WITH_KNOTS('',3,(#1072,#1073,#1074,#1075,#1076),
 .UNSPECIFIED.,.F.,.F.,(4,1,4),(0.,0.00259647207811574,0.00519294415623149),
 .UNSPECIFIED.);
#21=B_SPLINE_CURVE_WITH_KNOTS('',3,(#1079,#1080,#1081,#1082,#1083,#1084),
 .UNSPECIFIED.,.F.,.F.,(4,1,1,4),(0.,0.00268484955831771,0.00402727433747657,
0.00536969911663543),.UNSPECIFIED.);
#22=B_SPLINE_CURVE_WITH_KNOTS('',3,(#1088,#1089,#1090,#1091,#1092,#1093,
#1094),.UNSPECIFIED.,.F.,.F.,(4,1,1,1,4),(0.,0.00134298941470981,0.00268597882941961,
0.00402896824412942,0.00537195765883922),.UNSPECIFIED.);
#23=B_SPLINE_CURVE_WITH_KNOTS('',3,(#1101,#1102,#1103,#1104,#1105,#1106,
#1107),.UNSPECIFIED.,.F.,.F.,(4,1,1,1,4),(0.,0.00134298941470978,0.00268597882941956,
0.00402896824412934,0.00537195765883911),.UNSPECIFIED.);
#24=B_SPLINE_CURVE_WITH_KNOTS('',3,(#1109,#1110,#1111,#1112,#1113),
 .UNSPECIFIED.,.F.,.F.,(4,1,4),(0.,0.00259647207811559,0.00519294415623118),
 .UNSPECIFIED.);
#25=B_SPLINE_CURVE_WITH_KNOTS('',3,(#1115,#1116,#1117,#1118,#1119,#1120),
 .UNSPECIFIED.,.F.,.F.,(4,1,1,4),(0.,0.00268484955831796,0.00402727433747693,
0.00536969911663591),.UNSPECIFIED.);
#26=B_SPLINE_CURVE_WITH_KNOTS('',3,(#1171,#1172,#1173,#1174),
 .UNSPECIFIED.,.F.,.F.,(4,4),(1.04083408558608E-17,0.00321421693778603),
 .UNSPECIFIED.);
#27=B_SPLINE_CURVE_WITH_KNOTS('',3,(#1181,#1182,#1183,#1184),
 .UNSPECIFIED.,.F.,.F.,(4,4),(0.,0.00321421693778605),.UNSPECIFIED.);
#28=PLANE('',#755);
#29=PLANE('',#759);
#30=PLANE('',#760);
#31=PLANE('',#761);
#32=PLANE('',#762);
#33=PLANE('',#769);
#34=PLANE('',#770);
#35=PLANE('',#771);
#36=PLANE('',#772);
#37=PLANE('',#781);
#38=PLANE('',#784);
#39=PLANE('',#785);
#40=PLANE('',#786);
#41=PLANE('',#787);
#42=PLANE('',#788);
#43=PLANE('',#789);
#44=PLANE('',#790);
#45=PLANE('',#791);
#46=PLANE('',#798);
#47=PLANE('',#810);
#48=PLANE('',#813);
#49=PLANE('',#816);
#50=PLANE('',#819);
#51=PLANE('',#820);
#52=CIRCLE('',#753,0.00500000000000007);
#53=CIRCLE('',#754,0.00500000000000007);
#54=CIRCLE('',#757,0.00500000000000008);
#55=CIRCLE('',#758,0.00500000000000008);
#56=CIRCLE('',#764,0.0031);
#57=CIRCLE('',#765,0.0031);
#58=CIRCLE('',#767,0.0031);
#59=CIRCLE('',#768,0.0031);
#60=CIRCLE('',#773,0.005);
#61=CIRCLE('',#774,0.00500000000000006);
#62=CIRCLE('',#775,0.0015);
#63=CIRCLE('',#776,0.0015);
#64=CIRCLE('',#777,0.0015);
#65=CIRCLE('',#778,0.0015);
#66=CIRCLE('',#780,0.00500000000000006);
#67=CIRCLE('',#783,0.005);
#68=CIRCLE('',#793,0.0031);
#69=CIRCLE('',#794,0.0031);
#70=CIRCLE('',#796,0.0031);
#71=CIRCLE('',#797,0.0031);
#72=CIRCLE('',#809,0.0015);
#73=CIRCLE('',#812,0.0015);
#74=CIRCLE('',#815,0.0015);
#75=CIRCLE('',#818,0.0015);
#76=ORIENTED_EDGE('',*,*,#270,.F.);
#77=ORIENTED_EDGE('',*,*,#271,.T.);
#78=ORIENTED_EDGE('',*,*,#272,.T.);
#79=ORIENTED_EDGE('',*,*,#273,.T.);
#80=ORIENTED_EDGE('',*,*,#274,.F.);
#81=ORIENTED_EDGE('',*,*,#275,.T.);
#82=ORIENTED_EDGE('',*,*,#270,.T.);
#83=ORIENTED_EDGE('',*,*,#276,.T.);
#84=ORIENTED_EDGE('',*,*,#277,.F.);
#85=ORIENTED_EDGE('',*,*,#278,.T.);
#86=ORIENTED_EDGE('',*,*,#274,.T.);
#87=ORIENTED_EDGE('',*,*,#279,.T.);
#88=ORIENTED_EDGE('',*,*,#280,.F.);
#89=ORIENTED_EDGE('',*,*,#281,.T.);
#90=ORIENTED_EDGE('',*,*,#277,.T.);
#91=ORIENTED_EDGE('',*,*,#282,.T.);
#92=ORIENTED_EDGE('',*,*,#283,.F.);
#93=ORIENTED_EDGE('',*,*,#284,.F.);
#94=ORIENTED_EDGE('',*,*,#285,.T.);
#95=ORIENTED_EDGE('',*,*,#286,.T.);
#96=ORIENTED_EDGE('',*,*,#287,.T.);
#97=ORIENTED_EDGE('',*,*,#288,.F.);
#98=ORIENTED_EDGE('',*,*,#289,.F.);
#99=ORIENTED_EDGE('',*,*,#284,.T.);
#100=ORIENTED_EDGE('',*,*,#290,.T.);
#101=ORIENTED_EDGE('',*,*,#291,.F.);
#102=ORIENTED_EDGE('',*,*,#292,.F.);
#103=ORIENTED_EDGE('',*,*,#288,.T.);
#104=ORIENTED_EDGE('',*,*,#293,.F.);
#105=ORIENTED_EDGE('',*,*,#294,.T.);
#106=ORIENTED_EDGE('',*,*,#295,.T.);
#107=ORIENTED_EDGE('',*,*,#296,.T.);
#108=ORIENTED_EDGE('',*,*,#297,.T.);
#109=ORIENTED_EDGE('',*,*,#298,.F.);
#110=ORIENTED_EDGE('',*,*,#299,.T.);
#111=ORIENTED_EDGE('',*,*,#300,.T.);
#112=ORIENTED_EDGE('',*,*,#301,.T.);
#113=ORIENTED_EDGE('',*,*,#302,.T.);
#114=ORIENTED_EDGE('',*,*,#303,.F.);
#115=ORIENTED_EDGE('',*,*,#286,.F.);
#116=ORIENTED_EDGE('',*,*,#304,.T.);
#117=ORIENTED_EDGE('',*,*,#291,.T.);
#118=ORIENTED_EDGE('',*,*,#272,.F.);
#119=ORIENTED_EDGE('',*,*,#305,.T.);
#120=ORIENTED_EDGE('',*,*,#306,.T.);
#121=ORIENTED_EDGE('',*,*,#307,.F.);
#122=ORIENTED_EDGE('',*,*,#285,.F.);
#123=ORIENTED_EDGE('',*,*,#289,.T.);
#124=ORIENTED_EDGE('',*,*,#292,.T.);
#125=ORIENTED_EDGE('',*,*,#304,.F.);
#126=ORIENTED_EDGE('',*,*,#308,.T.);
#127=ORIENTED_EDGE('',*,*,#309,.T.);
#128=ORIENTED_EDGE('',*,*,#310,.T.);
#129=ORIENTED_EDGE('',*,*,#299,.F.);
#130=ORIENTED_EDGE('',*,*,#311,.T.);
#131=ORIENTED_EDGE('',*,*,#296,.F.);
#132=ORIENTED_EDGE('',*,*,#283,.T.);
#133=ORIENTED_EDGE('',*,*,#303,.T.);
#134=ORIENTED_EDGE('',*,*,#290,.F.);
#135=ORIENTED_EDGE('',*,*,#287,.F.);
#136=ORIENTED_EDGE('',*,*,#273,.F.);
#137=ORIENTED_EDGE('',*,*,#307,.T.);
#138=ORIENTED_EDGE('',*,*,#312,.F.);
#139=ORIENTED_EDGE('',*,*,#313,.T.);
#140=ORIENTED_EDGE('',*,*,#314,.F.);
#141=ORIENTED_EDGE('',*,*,#282,.F.);
#142=ORIENTED_EDGE('',*,*,#279,.F.);
#143=ORIENTED_EDGE('',*,*,#276,.F.);
#144=ORIENTED_EDGE('',*,*,#315,.T.);
#145=ORIENTED_EDGE('',*,*,#316,.T.);
#146=ORIENTED_EDGE('',*,*,#317,.F.);
#147=ORIENTED_EDGE('',*,*,#318,.F.);
#148=ORIENTED_EDGE('',*,*,#319,.T.);
#149=ORIENTED_EDGE('',*,*,#320,.T.);
#150=ORIENTED_EDGE('',*,*,#321,.F.);
#151=ORIENTED_EDGE('',*,*,#322,.F.);
#152=ORIENTED_EDGE('',*,*,#323,.T.);
#153=ORIENTED_EDGE('',*,*,#324,.T.);
#154=ORIENTED_EDGE('',*,*,#325,.T.);
#155=ORIENTED_EDGE('',*,*,#326,.T.);
#156=ORIENTED_EDGE('',*,*,#327,.F.);
#157=ORIENTED_EDGE('',*,*,#328,.T.);
#158=ORIENTED_EDGE('',*,*,#280,.T.);
#159=ORIENTED_EDGE('',*,*,#314,.T.);
#160=ORIENTED_EDGE('',*,*,#329,.F.);
#161=ORIENTED_EDGE('',*,*,#313,.F.);
#162=ORIENTED_EDGE('',*,*,#330,.F.);
#163=ORIENTED_EDGE('',*,*,#331,.T.);
#164=ORIENTED_EDGE('',*,*,#329,.T.);
#165=ORIENTED_EDGE('',*,*,#306,.F.);
#166=ORIENTED_EDGE('',*,*,#332,.T.);
#167=ORIENTED_EDGE('',*,*,#333,.F.);
#168=ORIENTED_EDGE('',*,*,#330,.T.);
#169=ORIENTED_EDGE('',*,*,#312,.T.);
#170=ORIENTED_EDGE('',*,*,#319,.F.);
#171=ORIENTED_EDGE('',*,*,#334,.F.);
#172=ORIENTED_EDGE('',*,*,#335,.T.);
#173=ORIENTED_EDGE('',*,*,#336,.T.);
#174=ORIENTED_EDGE('',*,*,#322,.T.);
#175=ORIENTED_EDGE('',*,*,#337,.F.);
#176=ORIENTED_EDGE('',*,*,#338,.F.);
#177=ORIENTED_EDGE('',*,*,#334,.T.);
#178=ORIENTED_EDGE('',*,*,#321,.T.);
#179=ORIENTED_EDGE('',*,*,#339,.F.);
#180=ORIENTED_EDGE('',*,*,#340,.F.);
#181=ORIENTED_EDGE('',*,*,#337,.T.);
#182=ORIENTED_EDGE('',*,*,#315,.F.);
#183=ORIENTED_EDGE('',*,*,#341,.F.);
#184=ORIENTED_EDGE('',*,*,#342,.T.);
#185=ORIENTED_EDGE('',*,*,#343,.T.);
#186=ORIENTED_EDGE('',*,*,#318,.T.);
#187=ORIENTED_EDGE('',*,*,#344,.F.);
#188=ORIENTED_EDGE('',*,*,#345,.F.);
#189=ORIENTED_EDGE('',*,*,#341,.T.);
#190=ORIENTED_EDGE('',*,*,#317,.T.);
#191=ORIENTED_EDGE('',*,*,#346,.F.);
#192=ORIENTED_EDGE('',*,*,#347,.F.);
#193=ORIENTED_EDGE('',*,*,#344,.T.);
#194=ORIENTED_EDGE('',*,*,#320,.F.);
#195=ORIENTED_EDGE('',*,*,#336,.F.);
#196=ORIENTED_EDGE('',*,*,#348,.T.);
#197=ORIENTED_EDGE('',*,*,#339,.T.);
#198=ORIENTED_EDGE('',*,*,#316,.F.);
#199=ORIENTED_EDGE('',*,*,#343,.F.);
#200=ORIENTED_EDGE('',*,*,#349,.T.);
#201=ORIENTED_EDGE('',*,*,#346,.T.);
#202=ORIENTED_EDGE('',*,*,#350,.F.);
#203=ORIENTED_EDGE('',*,*,#351,.T.);
#204=ORIENTED_EDGE('',*,*,#352,.F.);
#205=ORIENTED_EDGE('',*,*,#353,.T.);
#206=ORIENTED_EDGE('',*,*,#353,.F.);
#207=ORIENTED_EDGE('',*,*,#351,.F.);
#208=ORIENTED_EDGE('',*,*,#342,.F.);
#209=ORIENTED_EDGE('',*,*,#345,.T.);
#210=ORIENTED_EDGE('',*,*,#347,.T.);
#211=ORIENTED_EDGE('',*,*,#349,.F.);
#212=ORIENTED_EDGE('',*,*,#335,.F.);
#213=ORIENTED_EDGE('',*,*,#338,.T.);
#214=ORIENTED_EDGE('',*,*,#340,.T.);
#215=ORIENTED_EDGE('',*,*,#348,.F.);
#216=ORIENTED_EDGE('',*,*,#354,.T.);
#217=ORIENTED_EDGE('',*,*,#355,.T.);
#218=ORIENTED_EDGE('',*,*,#356,.T.);
#219=ORIENTED_EDGE('',*,*,#327,.T.);
#220=ORIENTED_EDGE('',*,*,#331,.F.);
#221=ORIENTED_EDGE('',*,*,#333,.T.);
#222=ORIENTED_EDGE('',*,*,#308,.F.);
#223=ORIENTED_EDGE('',*,*,#295,.F.);
#224=ORIENTED_EDGE('',*,*,#357,.F.);
#225=ORIENTED_EDGE('',*,*,#281,.F.);
#226=ORIENTED_EDGE('',*,*,#328,.F.);
#227=ORIENTED_EDGE('',*,*,#356,.F.);
#228=ORIENTED_EDGE('',*,*,#358,.T.);
#229=ORIENTED_EDGE('',*,*,#357,.T.);
#230=ORIENTED_EDGE('',*,*,#294,.F.);
#231=ORIENTED_EDGE('',*,*,#359,.F.);
#232=ORIENTED_EDGE('',*,*,#278,.F.);
#233=ORIENTED_EDGE('',*,*,#311,.F.);
#234=ORIENTED_EDGE('',*,*,#302,.F.);
#235=ORIENTED_EDGE('',*,*,#360,.F.);
#236=ORIENTED_EDGE('',*,*,#275,.F.);
#237=ORIENTED_EDGE('',*,*,#359,.T.);
#238=ORIENTED_EDGE('',*,*,#297,.F.);
#239=ORIENTED_EDGE('',*,*,#360,.T.);
#240=ORIENTED_EDGE('',*,*,#301,.F.);
#241=ORIENTED_EDGE('',*,*,#361,.F.);
#242=ORIENTED_EDGE('',*,*,#271,.F.);
#243=ORIENTED_EDGE('',*,*,#300,.F.);
#244=ORIENTED_EDGE('',*,*,#310,.F.);
#245=ORIENTED_EDGE('',*,*,#362,.T.);
#246=ORIENTED_EDGE('',*,*,#354,.F.);
#247=ORIENTED_EDGE('',*,*,#332,.F.);
#248=ORIENTED_EDGE('',*,*,#305,.F.);
#249=ORIENTED_EDGE('',*,*,#361,.T.);
#250=ORIENTED_EDGE('',*,*,#363,.T.);
#251=ORIENTED_EDGE('',*,*,#323,.F.);
#252=ORIENTED_EDGE('',*,*,#363,.F.);
#253=ORIENTED_EDGE('',*,*,#352,.T.);
#254=ORIENTED_EDGE('',*,*,#364,.T.);
#255=ORIENTED_EDGE('',*,*,#324,.F.);
#256=ORIENTED_EDGE('',*,*,#364,.F.);
#257=ORIENTED_EDGE('',*,*,#350,.T.);
#258=ORIENTED_EDGE('',*,*,#365,.T.);
#259=ORIENTED_EDGE('',*,*,#325,.F.);
#260=ORIENTED_EDGE('',*,*,#365,.F.);
#261=ORIENTED_EDGE('',*,*,#298,.T.);
#262=ORIENTED_EDGE('',*,*,#366,.T.);
#263=ORIENTED_EDGE('',*,*,#326,.F.);
#264=ORIENTED_EDGE('',*,*,#366,.F.);
#265=ORIENTED_EDGE('',*,*,#293,.T.);
#266=ORIENTED_EDGE('',*,*,#362,.F.);
#267=ORIENTED_EDGE('',*,*,#309,.F.);
#268=ORIENTED_EDGE('',*,*,#358,.F.);
#269=ORIENTED_EDGE('',*,*,#355,.F.);
#270=EDGE_CURVE('',#367,#368,#435,.T.);
#271=EDGE_CURVE('',#367,#369,#52,.T.);
#272=EDGE_CURVE('',#369,#370,#436,.T.);
#273=EDGE_CURVE('',#370,#368,#53,.T.);
#274=EDGE_CURVE('',#371,#372,#437,.T.);
#275=EDGE_CURVE('',#371,#367,#438,.F.);
#276=EDGE_CURVE('',#368,#372,#439,.T.);
#277=EDGE_CURVE('',#373,#374,#440,.T.);
#278=EDGE_CURVE('',#373,#371,#54,.T.);
#279=EDGE_CURVE('',#372,#374,#55,.T.);
#280=EDGE_CURVE('',#375,#376,#441,.T.);
#281=EDGE_CURVE('',#375,#373,#442,.F.);
#282=EDGE_CURVE('',#374,#376,#443,.T.);
#283=EDGE_CURVE('',#377,#378,#444,.T.);
#284=EDGE_CURVE('',#379,#377,#445,.T.);
#285=EDGE_CURVE('',#379,#380,#446,.T.);
#286=EDGE_CURVE('',#380,#378,#447,.T.);
#287=EDGE_CURVE('',#377,#381,#448,.T.);
#288=EDGE_CURVE('',#382,#381,#449,.T.);
#289=EDGE_CURVE('',#379,#382,#450,.T.);
#290=EDGE_CURVE('',#381,#383,#451,.T.);
#291=EDGE_CURVE('',#384,#383,#452,.T.);
#292=EDGE_CURVE('',#382,#384,#453,.T.);
#293=EDGE_CURVE('',#385,#385,#56,.T.);
#294=EDGE_CURVE('',#386,#387,#20,.T.);
#295=EDGE_CURVE('',#387,#388,#21,.T.);
#296=EDGE_CURVE('',#388,#389,#57,.T.);
#297=EDGE_CURVE('',#389,#386,#22,.T.);
#298=EDGE_CURVE('',#390,#390,#58,.T.);
#299=EDGE_CURVE('',#391,#392,#59,.T.);
#300=EDGE_CURVE('',#392,#393,#23,.T.);
#301=EDGE_CURVE('',#393,#394,#24,.T.);
#302=EDGE_CURVE('',#394,#391,#25,.T.);
#303=EDGE_CURVE('',#378,#383,#454,.T.);
#304=EDGE_CURVE('',#380,#384,#455,.T.);
#305=EDGE_CURVE('',#369,#395,#456,.T.);
#306=EDGE_CURVE('',#395,#396,#457,.T.);
#307=EDGE_CURVE('',#370,#396,#458,.T.);
#308=EDGE_CURVE('',#388,#397,#459,.T.);
#309=EDGE_CURVE('',#397,#398,#460,.F.);
#310=EDGE_CURVE('',#398,#392,#461,.F.);
#311=EDGE_CURVE('',#391,#389,#462,.T.);
#312=EDGE_CURVE('',#399,#396,#60,.T.);
#313=EDGE_CURVE('',#399,#400,#463,.T.);
#314=EDGE_CURVE('',#376,#400,#61,.T.);
#315=EDGE_CURVE('',#401,#402,#464,.T.);
#316=EDGE_CURVE('',#402,#403,#465,.T.);
#317=EDGE_CURVE('',#404,#403,#466,.T.);
#318=EDGE_CURVE('',#401,#404,#467,.T.);
#319=EDGE_CURVE('',#405,#406,#468,.T.);
#320=EDGE_CURVE('',#406,#407,#469,.T.);
#321=EDGE_CURVE('',#408,#407,#470,.T.);
#322=EDGE_CURVE('',#405,#408,#471,.T.);
#323=EDGE_CURVE('',#409,#409,#62,.T.);
#324=EDGE_CURVE('',#410,#410,#63,.T.);
#325=EDGE_CURVE('',#411,#411,#64,.T.);
#326=EDGE_CURVE('',#412,#412,#65,.T.);
#327=EDGE_CURVE('',#413,#414,#66,.T.);
#328=EDGE_CURVE('',#413,#375,#26,.T.);
#329=EDGE_CURVE('',#414,#400,#472,.T.);
#330=EDGE_CURVE('',#415,#399,#473,.T.);
#331=EDGE_CURVE('',#415,#414,#474,.T.);
#332=EDGE_CURVE('',#395,#416,#27,.F.);
#333=EDGE_CURVE('',#415,#416,#67,.T.);
#334=EDGE_CURVE('',#417,#405,#475,.T.);
#335=EDGE_CURVE('',#417,#418,#476,.T.);
#336=EDGE_CURVE('',#418,#406,#477,.T.);
#337=EDGE_CURVE('',#419,#408,#478,.T.);
#338=EDGE_CURVE('',#417,#419,#479,.T.);
#339=EDGE_CURVE('',#420,#407,#480,.T.);
#340=EDGE_CURVE('',#419,#420,#481,.T.);
#341=EDGE_CURVE('',#421,#401,#482,.T.);
#342=EDGE_CURVE('',#421,#422,#483,.T.);
#343=EDGE_CURVE('',#422,#402,#484,.T.);
#344=EDGE_CURVE('',#423,#404,#485,.T.);
#345=EDGE_CURVE('',#421,#423,#486,.T.);
#346=EDGE_CURVE('',#424,#403,#487,.T.);
#347=EDGE_CURVE('',#423,#424,#488,.T.);
#348=EDGE_CURVE('',#418,#420,#489,.T.);
#349=EDGE_CURVE('',#422,#424,#490,.T.);
#350=EDGE_CURVE('',#425,#425,#68,.T.);
#351=EDGE_CURVE('',#426,#426,#69,.T.);
#352=EDGE_CURVE('',#427,#427,#70,.T.);
#353=EDGE_CURVE('',#428,#428,#71,.T.);
#354=EDGE_CURVE('',#416,#429,#491,.F.);
#355=EDGE_CURVE('',#429,#430,#492,.T.);
#356=EDGE_CURVE('',#430,#413,#493,.F.);
#357=EDGE_CURVE('',#373,#387,#14,.F.);
#358=EDGE_CURVE('',#430,#397,#15,.F.);
#359=EDGE_CURVE('',#371,#386,#16,.F.);
#360=EDGE_CURVE('',#367,#394,#17,.F.);
#361=EDGE_CURVE('',#369,#393,#18,.F.);
#362=EDGE_CURVE('',#398,#429,#19,.F.);
#363=EDGE_CURVE('',#431,#431,#72,.T.);
#364=EDGE_CURVE('',#432,#432,#73,.T.);
#365=EDGE_CURVE('',#433,#433,#74,.T.);
#366=EDGE_CURVE('',#434,#434,#75,.T.);
#367=VERTEX_POINT('',#1023);
#368=VERTEX_POINT('',#1024);
#369=VERTEX_POINT('',#1026);
#370=VERTEX_POINT('',#1028);
#371=VERTEX_POINT('',#1032);
#372=VERTEX_POINT('',#1033);
#373=VERTEX_POINT('',#1038);
#374=VERTEX_POINT('',#1039);
#375=VERTEX_POINT('',#1044);
#376=VERTEX_POINT('',#1045);
#377=VERTEX_POINT('',#1050);
#378=VERTEX_POINT('',#1051);
#379=VERTEX_POINT('',#1053);
#380=VERTEX_POINT('',#1055);
#381=VERTEX_POINT('',#1059);
#382=VERTEX_POINT('',#1061);
#383=VERTEX_POINT('',#1065);
#384=VERTEX_POINT('',#1067);
#385=VERTEX_POINT('',#1071);
#386=VERTEX_POINT('',#1077);
#387=VERTEX_POINT('',#1078);
#388=VERTEX_POINT('',#1085);
#389=VERTEX_POINT('',#1087);
#390=VERTEX_POINT('',#1097);
#391=VERTEX_POINT('',#1099);
#392=VERTEX_POINT('',#1100);
#393=VERTEX_POINT('',#1108);
#394=VERTEX_POINT('',#1114);
#395=VERTEX_POINT('',#1126);
#396=VERTEX_POINT('',#1128);
#397=VERTEX_POINT('',#1132);
#398=VERTEX_POINT('',#1134);
#399=VERTEX_POINT('',#1139);
#400=VERTEX_POINT('',#1141);
#401=VERTEX_POINT('',#1144);
#402=VERTEX_POINT('',#1145);
#403=VERTEX_POINT('',#1147);
#404=VERTEX_POINT('',#1149);
#405=VERTEX_POINT('',#1152);
#406=VERTEX_POINT('',#1153);
#407=VERTEX_POINT('',#1155);
#408=VERTEX_POINT('',#1157);
#409=VERTEX_POINT('',#1160);
#410=VERTEX_POINT('',#1162);
#411=VERTEX_POINT('',#1164);
#412=VERTEX_POINT('',#1166);
#413=VERTEX_POINT('',#1169);
#414=VERTEX_POINT('',#1170);
#415=VERTEX_POINT('',#1178);
#416=VERTEX_POINT('',#1185);
#417=VERTEX_POINT('',#1189);
#418=VERTEX_POINT('',#1191);
#419=VERTEX_POINT('',#1195);
#420=VERTEX_POINT('',#1199);
#421=VERTEX_POINT('',#1203);
#422=VERTEX_POINT('',#1205);
#423=VERTEX_POINT('',#1209);
#424=VERTEX_POINT('',#1213);
#425=VERTEX_POINT('',#1221);
#426=VERTEX_POINT('',#1223);
#427=VERTEX_POINT('',#1226);
#428=VERTEX_POINT('',#1228);
#429=VERTEX_POINT('',#1231);
#430=VERTEX_POINT('',#1233);
#431=VERTEX_POINT('',#1288);
#432=VERTEX_POINT('',#1292);
#433=VERTEX_POINT('',#1296);
#434=VERTEX_POINT('',#1300);
#435=LINE('',#1022,#494);
#436=LINE('',#1027,#495);
#437=LINE('',#1031,#496);
#438=LINE('',#1034,#497);
#439=LINE('',#1035,#498);
#440=LINE('',#1037,#499);
#441=LINE('',#1043,#500);
#442=LINE('',#1046,#501);
#443=LINE('',#1047,#502);
#444=LINE('',#1049,#503);
#445=LINE('',#1052,#504);
#446=LINE('',#1054,#505);
#447=LINE('',#1056,#506);
#448=LINE('',#1058,#507);
#449=LINE('',#1060,#508);
#450=LINE('',#1062,#509);
#451=LINE('',#1064,#510);
#452=LINE('',#1066,#511);
#453=LINE('',#1068,#512);
#454=LINE('',#1122,#513);
#455=LINE('',#1123,#514);
#456=LINE('',#1125,#515);
#457=LINE('',#1127,#516);
#458=LINE('',#1129,#517);
#459=LINE('',#1131,#518);
#460=LINE('',#1133,#519);
#461=LINE('',#1135,#520);
#462=LINE('',#1136,#521);
#463=LINE('',#1140,#522);
#464=LINE('',#1143,#523);
#465=LINE('',#1146,#524);
#466=LINE('',#1148,#525);
#467=LINE('',#1150,#526);
#468=LINE('',#1151,#527);
#469=LINE('',#1154,#528);
#470=LINE('',#1156,#529);
#471=LINE('',#1158,#530);
#472=LINE('',#1175,#531);
#473=LINE('',#1177,#532);
#474=LINE('',#1179,#533);
#475=LINE('',#1188,#534);
#476=LINE('',#1190,#535);
#477=LINE('',#1192,#536);
#478=LINE('',#1194,#537);
#479=LINE('',#1196,#538);
#480=LINE('',#1198,#539);
#481=LINE('',#1200,#540);
#482=LINE('',#1202,#541);
#483=LINE('',#1204,#542);
#484=LINE('',#1206,#543);
#485=LINE('',#1208,#544);
#486=LINE('',#1210,#545);
#487=LINE('',#1212,#546);
#488=LINE('',#1214,#547);
#489=LINE('',#1216,#548);
#490=LINE('',#1218,#549);
#491=LINE('',#1230,#550);
#492=LINE('',#1232,#551);
#493=LINE('',#1234,#552);
#494=VECTOR('',#825,1.);
#495=VECTOR('',#828,1.);
#496=VECTOR('',#833,1.);
#497=VECTOR('',#834,1.);
#498=VECTOR('',#835,1.);
#499=VECTOR('',#838,1.);
#500=VECTOR('',#845,1.);
#501=VECTOR('',#846,1.);
#502=VECTOR('',#847,1.);
#503=VECTOR('',#850,1.);
#504=VECTOR('',#851,1.);
#505=VECTOR('',#852,1.);
#506=VECTOR('',#853,1.);
#507=VECTOR('',#856,1.);
#508=VECTOR('',#857,1.);
#509=VECTOR('',#858,1.);
#510=VECTOR('',#861,1.);
#511=VECTOR('',#862,1.);
#512=VECTOR('',#863,1.);
#513=VECTOR('',#878,1.);
#514=VECTOR('',#879,1.);
#515=VECTOR('',#882,1.);
#516=VECTOR('',#883,1.);
#517=VECTOR('',#884,1.);
#518=VECTOR('',#887,1.);
#519=VECTOR('',#888,1.);
#520=VECTOR('',#889,1.);
#521=VECTOR('',#890,1.);
#522=VECTOR('',#895,1.);
#523=VECTOR('',#898,1.);
#524=VECTOR('',#899,1.);
#525=VECTOR('',#900,1.);
#526=VECTOR('',#901,1.);
#527=VECTOR('',#902,1.);
#528=VECTOR('',#903,1.);
#529=VECTOR('',#904,1.);
#530=VECTOR('',#905,1.);
#531=VECTOR('',#918,1.);
#532=VECTOR('',#921,1.);
#533=VECTOR('',#922,1.);
#534=VECTOR('',#929,1.);
#535=VECTOR('',#930,1.);
#536=VECTOR('',#931,1.);
#537=VECTOR('',#934,1.);
#538=VECTOR('',#935,1.);
#539=VECTOR('',#938,1.);
#540=VECTOR('',#939,1.);
#541=VECTOR('',#942,1.);
#542=VECTOR('',#943,1.);
#543=VECTOR('',#944,1.);
#544=VECTOR('',#947,1.);
#545=VECTOR('',#948,1.);
#546=VECTOR('',#951,1.);
#547=VECTOR('',#952,1.);
#548=VECTOR('',#955,1.);
#549=VECTOR('',#958,1.);
#550=VECTOR('',#973,1.);
#551=VECTOR('',#974,1.);
#552=VECTOR('',#975,1.);
#553=EDGE_LOOP('',(#76,#77,#78,#79));
#554=EDGE_LOOP('',(#80,#81,#82,#83));
#555=EDGE_LOOP('',(#84,#85,#86,#87));
#556=EDGE_LOOP('',(#88,#89,#90,#91));
#557=EDGE_LOOP('',(#92,#93,#94,#95));
#558=EDGE_LOOP('',(#96,#97,#98,#99));
#559=EDGE_LOOP('',(#100,#101,#102,#103));
#560=EDGE_LOOP('',(#104));
#561=EDGE_LOOP('',(#105,#106,#107,#108));
#562=EDGE_LOOP('',(#109));
#563=EDGE_LOOP('',(#110,#111,#112,#113));
#564=EDGE_LOOP('',(#114,#115,#116,#117));
#565=EDGE_LOOP('',(#118,#119,#120,#121));
#566=EDGE_LOOP('',(#122,#123,#124,#125));
#567=EDGE_LOOP('',(#126,#127,#128,#129,#130,#131));
#568=EDGE_LOOP('',(#132,#133,#134,#135));
#569=EDGE_LOOP('',(#136,#137,#138,#139,#140,#141,#142,#143));
#570=EDGE_LOOP('',(#144,#145,#146,#147));
#571=EDGE_LOOP('',(#148,#149,#150,#151));
#572=EDGE_LOOP('',(#152));
#573=EDGE_LOOP('',(#153));
#574=EDGE_LOOP('',(#154));
#575=EDGE_LOOP('',(#155));
#576=EDGE_LOOP('',(#156,#157,#158,#159,#160));
#577=EDGE_LOOP('',(#161,#162,#163,#164));
#578=EDGE_LOOP('',(#165,#166,#167,#168,#169));
#579=EDGE_LOOP('',(#170,#171,#172,#173));
#580=EDGE_LOOP('',(#174,#175,#176,#177));
#581=EDGE_LOOP('',(#178,#179,#180,#181));
#582=EDGE_LOOP('',(#182,#183,#184,#185));
#583=EDGE_LOOP('',(#186,#187,#188,#189));
#584=EDGE_LOOP('',(#190,#191,#192,#193));
#585=EDGE_LOOP('',(#194,#195,#196,#197));
#586=EDGE_LOOP('',(#198,#199,#200,#201));
#587=EDGE_LOOP('',(#202));
#588=EDGE_LOOP('',(#203));
#589=EDGE_LOOP('',(#204));
#590=EDGE_LOOP('',(#205));
#591=EDGE_LOOP('',(#206));
#592=EDGE_LOOP('',(#207));
#593=EDGE_LOOP('',(#208,#209,#210,#211));
#594=EDGE_LOOP('',(#212,#213,#214,#215));
#595=EDGE_LOOP('',(#216,#217,#218,#219,#220,#221));
#596=EDGE_LOOP('',(#222,#223,#224,#225,#226,#227,#228));
#597=EDGE_LOOP('',(#229,#230,#231,#232));
#598=EDGE_LOOP('',(#233,#234,#235,#236,#237,#238));
#599=EDGE_LOOP('',(#239,#240,#241,#242));
#600=EDGE_LOOP('',(#243,#244,#245,#246,#247,#248,#249));
#601=EDGE_LOOP('',(#250));
#602=EDGE_LOOP('',(#251));
#603=EDGE_LOOP('',(#252));
#604=EDGE_LOOP('',(#253));
#605=EDGE_LOOP('',(#254));
#606=EDGE_LOOP('',(#255));
#607=EDGE_LOOP('',(#256));
#608=EDGE_LOOP('',(#257));
#609=EDGE_LOOP('',(#258));
#610=EDGE_LOOP('',(#259));
#611=EDGE_LOOP('',(#260));
#612=EDGE_LOOP('',(#261));
#613=EDGE_LOOP('',(#262));
#614=EDGE_LOOP('',(#263));
#615=EDGE_LOOP('',(#264));
#616=EDGE_LOOP('',(#265));
#617=EDGE_LOOP('',(#266,#267,#268,#269));
#618=FACE_BOUND('',#553,.T.);
#619=FACE_BOUND('',#554,.T.);
#620=FACE_BOUND('',#555,.T.);
#621=FACE_BOUND('',#556,.T.);
#622=FACE_BOUND('',#557,.T.);
#623=FACE_BOUND('',#558,.T.);
#624=FACE_BOUND('',#559,.T.);
#625=FACE_BOUND('',#560,.T.);
#626=FACE_BOUND('',#561,.T.);
#627=FACE_BOUND('',#562,.T.);
#628=FACE_BOUND('',#563,.T.);
#629=FACE_BOUND('',#564,.T.);
#630=FACE_BOUND('',#565,.T.);
#631=FACE_BOUND('',#566,.T.);
#632=FACE_BOUND('',#567,.T.);
#633=FACE_BOUND('',#568,.T.);
#634=FACE_BOUND('',#569,.T.);
#635=FACE_BOUND('',#570,.T.);
#636=FACE_BOUND('',#571,.T.);
#637=FACE_BOUND('',#572,.T.);
#638=FACE_BOUND('',#573,.T.);
#639=FACE_BOUND('',#574,.T.);
#640=FACE_BOUND('',#575,.T.);
#641=FACE_BOUND('',#576,.T.);
#642=FACE_BOUND('',#577,.T.);
#643=FACE_BOUND('',#578,.T.);
#644=FACE_BOUND('',#579,.T.);
#645=FACE_BOUND('',#580,.T.);
#646=FACE_BOUND('',#581,.T.);
#647=FACE_BOUND('',#582,.T.);
#648=FACE_BOUND('',#583,.T.);
#649=FACE_BOUND('',#584,.T.);
#650=FACE_BOUND('',#585,.T.);
#651=FACE_BOUND('',#586,.T.);
#652=FACE_BOUND('',#587,.T.);
#653=FACE_BOUND('',#588,.T.);
#654=FACE_BOUND('',#589,.T.);
#655=FACE_BOUND('',#590,.T.);
#656=FACE_BOUND('',#591,.T.);
#657=FACE_BOUND('',#592,.T.);
#658=FACE_BOUND('',#593,.T.);
#659=FACE_BOUND('',#594,.T.);
#660=FACE_BOUND('',#595,.T.);
#661=FACE_BOUND('',#596,.T.);
#662=FACE_BOUND('',#597,.T.);
#663=FACE_BOUND('',#598,.T.);
#664=FACE_BOUND('',#599,.T.);
#665=FACE_BOUND('',#600,.T.);
#666=FACE_BOUND('',#601,.T.);
#667=FACE_BOUND('',#602,.T.);
#668=FACE_BOUND('',#603,.T.);
#669=FACE_BOUND('',#604,.T.);
#670=FACE_BOUND('',#605,.T.);
#671=FACE_BOUND('',#606,.T.);
#672=FACE_BOUND('',#607,.T.);
#673=FACE_BOUND('',#608,.T.);
#674=FACE_BOUND('',#609,.T.);
#675=FACE_BOUND('',#610,.T.);
#676=FACE_BOUND('',#611,.T.);
#677=FACE_BOUND('',#612,.T.);
#678=FACE_BOUND('',#613,.T.);
#679=FACE_BOUND('',#614,.T.);
#680=FACE_BOUND('',#615,.T.);
#681=FACE_BOUND('',#616,.T.);
#682=FACE_BOUND('',#617,.T.);
#683=CYLINDRICAL_SURFACE('',#752,0.00500000000000007);
#684=CYLINDRICAL_SURFACE('',#756,0.00500000000000008);
#685=CYLINDRICAL_SURFACE('',#763,0.0031);
#686=CYLINDRICAL_SURFACE('',#766,0.0031);
#687=CYLINDRICAL_SURFACE('',#779,0.00500000000000006);
#688=CYLINDRICAL_SURFACE('',#782,0.005);
#689=CYLINDRICAL_SURFACE('',#792,0.0031);
#690=CYLINDRICAL_SURFACE('',#795,0.0031);
#691=CYLINDRICAL_SURFACE('',#799,0.0055);
#692=CYLINDRICAL_SURFACE('',#803,0.0055);
#693=CYLINDRICAL_SURFACE('',#806,0.0055);
#694=CYLINDRICAL_SURFACE('',#808,0.0015);
#695=CYLINDRICAL_SURFACE('',#811,0.0015);
#696=CYLINDRICAL_SURFACE('',#814,0.0015);
#697=CYLINDRICAL_SURFACE('',#817,0.0015);
#698=ADVANCED_FACE('',(#618),#683,.T.);
#699=ADVANCED_FACE('',(#619),#28,.F.);
#700=ADVANCED_FACE('',(#620),#684,.T.);
#701=ADVANCED_FACE('',(#621),#29,.F.);
#702=ADVANCED_FACE('',(#622),#30,.T.);
#703=ADVANCED_FACE('',(#623),#31,.F.);
#704=ADVANCED_FACE('',(#624),#32,.F.);
#705=ADVANCED_FACE('',(#625,#626),#685,.F.);
#706=ADVANCED_FACE('',(#627,#628),#686,.F.);
#707=ADVANCED_FACE('',(#629),#33,.T.);
#708=ADVANCED_FACE('',(#630),#34,.T.);
#709=ADVANCED_FACE('',(#631,#632),#35,.T.);
#710=ADVANCED_FACE('',(#633,#634,#635,#636,#637,#638,#639,#640),#36,.F.);
#711=ADVANCED_FACE('',(#641),#687,.T.);
#712=ADVANCED_FACE('',(#642),#37,.T.);
#713=ADVANCED_FACE('',(#643),#688,.T.);
#714=ADVANCED_FACE('',(#644),#38,.T.);
#715=ADVANCED_FACE('',(#645),#39,.F.);
#716=ADVANCED_FACE('',(#646),#40,.F.);
#717=ADVANCED_FACE('',(#647),#41,.T.);
#718=ADVANCED_FACE('',(#648),#42,.F.);
#719=ADVANCED_FACE('',(#649),#43,.F.);
#720=ADVANCED_FACE('',(#650),#44,.T.);
#721=ADVANCED_FACE('',(#651),#45,.T.);
#722=ADVANCED_FACE('',(#652,#653),#689,.F.);
#723=ADVANCED_FACE('',(#654,#655),#690,.F.);
#724=ADVANCED_FACE('',(#656,#657,#658,#659,#660),#46,.T.);
#725=ADVANCED_FACE('',(#661),#691,.T.);
#726=ADVANCED_FACE('',(#662),#12,.T.);
#727=ADVANCED_FACE('',(#663),#692,.T.);
#728=ADVANCED_FACE('',(#664),#13,.T.);
#729=ADVANCED_FACE('',(#665),#693,.T.);
#730=ADVANCED_FACE('',(#666,#667),#694,.F.);
#731=ADVANCED_FACE('',(#668,#669),#47,.T.);
#732=ADVANCED_FACE('',(#670,#671),#695,.F.);
#733=ADVANCED_FACE('',(#672,#673),#48,.T.);
#734=ADVANCED_FACE('',(#674,#675),#696,.F.);
#735=ADVANCED_FACE('',(#676,#677),#49,.T.);
#736=ADVANCED_FACE('',(#678,#679),#697,.F.);
#737=ADVANCED_FACE('',(#680,#681),#50,.T.);
#738=ADVANCED_FACE('',(#682),#51,.T.);
#739=CLOSED_SHELL('',(#698,#699,#700,#701,#702,#703,#704,#705,#706,#707,
#708,#709,#710,#711,#712,#713,#714,#715,#716,#717,#718,#719,#720,#721,#722,
#723,#724,#725,#726,#727,#728,#729,#730,#731,#732,#733,#734,#735,#736,#737,
#738));
#740=STYLED_ITEM('',(#741),#748);
#741=PRESENTATION_STYLE_ASSIGNMENT((#742));
#742=SURFACE_STYLE_USAGE(.BOTH.,#743);
#743=SURFACE_SIDE_STYLE('',(#744));
#744=SURFACE_STYLE_FILL_AREA(#745);
#745=FILL_AREA_STYLE('',(#746));
#746=FILL_AREA_STYLE_COLOUR('',#747);
#747=COLOUR_RGB('',0.647058823529412,0.647058823529412,0.647058823529412);
#748=MANIFOLD_SOLID_BREP('Part 2',#739);
#749=SHAPE_DEFINITION_REPRESENTATION(#1309,#750);
#750=SHAPE_REPRESENTATION('Part 2',(#751),#1304);
#751=AXIS2_PLACEMENT_3D('',#1020,#821,#822);
#752=AXIS2_PLACEMENT_3D('',#1021,#823,#824);
#753=AXIS2_PLACEMENT_3D('',#1025,#826,#827);
#754=AXIS2_PLACEMENT_3D('',#1029,#829,#830);
#755=AXIS2_PLACEMENT_3D('',#1030,#831,#832);
#756=AXIS2_PLACEMENT_3D('',#1036,#836,#837);
#757=AXIS2_PLACEMENT_3D('',#1040,#839,#840);
#758=AXIS2_PLACEMENT_3D('',#1041,#841,#842);
#759=AXIS2_PLACEMENT_3D('',#1042,#843,#844);
#760=AXIS2_PLACEMENT_3D('',#1048,#848,#849);
#761=AXIS2_PLACEMENT_3D('',#1057,#854,#855);
#762=AXIS2_PLACEMENT_3D('',#1063,#859,#860);
#763=AXIS2_PLACEMENT_3D('',#1069,#864,#865);
#764=AXIS2_PLACEMENT_3D('',#1070,#866,#867);
#765=AXIS2_PLACEMENT_3D('',#1086,#868,#869);
#766=AXIS2_PLACEMENT_3D('',#1095,#870,#871);
#767=AXIS2_PLACEMENT_3D('',#1096,#872,#873);
#768=AXIS2_PLACEMENT_3D('',#1098,#874,#875);
#769=AXIS2_PLACEMENT_3D('',#1121,#876,#877);
#770=AXIS2_PLACEMENT_3D('',#1124,#880,#881);
#771=AXIS2_PLACEMENT_3D('',#1130,#885,#886);
#772=AXIS2_PLACEMENT_3D('',#1137,#891,#892);
#773=AXIS2_PLACEMENT_3D('',#1138,#893,#894);
#774=AXIS2_PLACEMENT_3D('',#1142,#896,#897);
#775=AXIS2_PLACEMENT_3D('',#1159,#906,#907);
#776=AXIS2_PLACEMENT_3D('',#1161,#908,#909);
#777=AXIS2_PLACEMENT_3D('',#1163,#910,#911);
#778=AXIS2_PLACEMENT_3D('',#1165,#912,#913);
#779=AXIS2_PLACEMENT_3D('',#1167,#914,#915);
#780=AXIS2_PLACEMENT_3D('',#1168,#916,#917);
#781=AXIS2_PLACEMENT_3D('',#1176,#919,#920);
#782=AXIS2_PLACEMENT_3D('',#1180,#923,#924);
#783=AXIS2_PLACEMENT_3D('',#1186,#925,#926);
#784=AXIS2_PLACEMENT_3D('',#1187,#927,#928);
#785=AXIS2_PLACEMENT_3D('',#1193,#932,#933);
#786=AXIS2_PLACEMENT_3D('',#1197,#936,#937);
#787=AXIS2_PLACEMENT_3D('',#1201,#940,#941);
#788=AXIS2_PLACEMENT_3D('',#1207,#945,#946);
#789=AXIS2_PLACEMENT_3D('',#1211,#949,#950);
#790=AXIS2_PLACEMENT_3D('',#1215,#953,#954);
#791=AXIS2_PLACEMENT_3D('',#1217,#956,#957);
#792=AXIS2_PLACEMENT_3D('',#1219,#959,#960);
#793=AXIS2_PLACEMENT_3D('',#1220,#961,#962);
#794=AXIS2_PLACEMENT_3D('',#1222,#963,#964);
#795=AXIS2_PLACEMENT_3D('',#1224,#965,#966);
#796=AXIS2_PLACEMENT_3D('',#1225,#967,#968);
#797=AXIS2_PLACEMENT_3D('',#1227,#969,#970);
#798=AXIS2_PLACEMENT_3D('',#1229,#971,#972);
#799=AXIS2_PLACEMENT_3D('',#1235,#976,#977);
#800=AXIS2_PLACEMENT_3D('',#1236,#978,#979);
#801=AXIS2_PLACEMENT_3D('',#1237,#980,#981);
#802=AXIS2_PLACEMENT_3D('',#1259,#982,#983);
#803=AXIS2_PLACEMENT_3D('',#1260,#984,#985);
#804=AXIS2_PLACEMENT_3D('',#1261,#986,#987);
#805=AXIS2_PLACEMENT_3D('',#1283,#988,#989);
#806=AXIS2_PLACEMENT_3D('',#1284,#990,#991);
#807=AXIS2_PLACEMENT_3D('',#1285,#992,#993);
#808=AXIS2_PLACEMENT_3D('',#1286,#994,#995);
#809=AXIS2_PLACEMENT_3D('',#1287,#996,#997);
#810=AXIS2_PLACEMENT_3D('',#1289,#998,#999);
#811=AXIS2_PLACEMENT_3D('',#1290,#1000,#1001);
#812=AXIS2_PLACEMENT_3D('',#1291,#1002,#1003);
#813=AXIS2_PLACEMENT_3D('',#1293,#1004,#1005);
#814=AXIS2_PLACEMENT_3D('',#1294,#1006,#1007);
#815=AXIS2_PLACEMENT_3D('',#1295,#1008,#1009);
#816=AXIS2_PLACEMENT_3D('',#1297,#1010,#1011);
#817=AXIS2_PLACEMENT_3D('',#1298,#1012,#1013);
#818=AXIS2_PLACEMENT_3D('',#1299,#1014,#1015);
#819=AXIS2_PLACEMENT_3D('',#1301,#1016,#1017);
#820=AXIS2_PLACEMENT_3D('',#1302,#1018,#1019);
#821=DIRECTION('',(0.,0.,1.));
#822=DIRECTION('',(1.,0.,0.));
#823=DIRECTION('',(0.,0.,-1.));
#824=DIRECTION('',(-1.,0.,0.));
#825=DIRECTION('',(0.,0.,-1.));
#826=DIRECTION('',(0.,0.,-1.));
#827=DIRECTION('',(-1.,0.,0.));
#828=DIRECTION('',(0.,0.,-1.));
#829=DIRECTION('',(0.,0.,1.));
#830=DIRECTION('',(1.,0.,0.));
#831=DIRECTION('',(1.,0.,0.));
#832=DIRECTION('',(0.,0.,-1.));
#833=DIRECTION('',(0.,0.,-1.));
#834=DIRECTION('',(0.,-1.,0.));
#835=DIRECTION('',(0.,-1.,0.));
#836=DIRECTION('',(0.,0.,-1.));
#837=DIRECTION('',(-1.,0.,0.));
#838=DIRECTION('',(0.,0.,-1.));
#839=DIRECTION('',(0.,0.,-1.));
#840=DIRECTION('',(-1.,0.,0.));
#841=DIRECTION('',(0.,0.,1.));
#842=DIRECTION('',(1.,0.,0.));
#843=DIRECTION('',(0.,1.,0.));
#844=DIRECTION('',(0.,0.,1.));
#845=DIRECTION('',(0.,0.,-1.));
#846=DIRECTION('',(1.,0.,0.));
#847=DIRECTION('',(1.,0.,0.));
#848=DIRECTION('',(1.,0.,0.));
#849=DIRECTION('',(0.,0.,-1.));
#850=DIRECTION('',(0.,-1.,0.));
#851=DIRECTION('',(0.,0.,-1.));
#852=DIRECTION('',(0.,-1.,0.));
#853=DIRECTION('',(0.,0.,-1.));
#854=DIRECTION('',(0.,1.,0.));
#855=DIRECTION('',(0.,0.,1.));
#856=DIRECTION('',(1.,0.,0.));
#857=DIRECTION('',(0.,0.,-1.));
#858=DIRECTION('',(1.,0.,0.));
#859=DIRECTION('',(1.,0.,0.));
#860=DIRECTION('',(0.,0.,-1.));
#861=DIRECTION('',(0.,-1.,0.));
#862=DIRECTION('',(0.,0.,-1.));
#863=DIRECTION('',(0.,-1.,0.));
#864=DIRECTION('',(0.,0.,-1.));
#865=DIRECTION('',(-1.,0.,0.));
#866=DIRECTION('',(0.,0.,1.));
#867=DIRECTION('',(1.,0.,0.));
#868=DIRECTION('',(0.,0.,1.));
#869=DIRECTION('',(1.,0.,0.));
#870=DIRECTION('',(0.,0.,-1.));
#871=DIRECTION('',(-1.,0.,0.));
#872=DIRECTION('',(0.,0.,1.));
#873=DIRECTION('',(1.,0.,0.));
#874=DIRECTION('',(0.,0.,1.));
#875=DIRECTION('',(1.,0.,0.));
#876=DIRECTION('',(0.,1.,0.));
#877=DIRECTION('',(0.,0.,1.));
#878=DIRECTION('',(1.,0.,0.));
#879=DIRECTION('',(1.,0.,0.));
#880=DIRECTION('',(0.,1.,0.));
#881=DIRECTION('',(0.,0.,1.));
#882=DIRECTION('',(1.,0.,0.));
#883=DIRECTION('',(0.,0.,-1.));
#884=DIRECTION('',(1.,0.,0.));
#885=DIRECTION('',(0.,0.,1.));
#886=DIRECTION('',(1.,0.,0.));
#887=DIRECTION('',(1.,0.,0.));
#888=DIRECTION('',(0.,-1.,0.));
#889=DIRECTION('',(1.,0.,0.));
#890=DIRECTION('',(0.,-1.,0.));
#891=DIRECTION('',(0.,0.,1.));
#892=DIRECTION('',(1.,0.,0.));
#893=DIRECTION('',(0.,0.,1.));
#894=DIRECTION('',(1.,0.,0.));
#895=DIRECTION('',(0.,-1.,0.));
#896=DIRECTION('',(0.,0.,1.));
#897=DIRECTION('',(1.,0.,0.));
#898=DIRECTION('',(0.,-1.,0.));
#899=DIRECTION('',(1.,0.,0.));
#900=DIRECTION('',(0.,-1.,0.));
#901=DIRECTION('',(1.,0.,0.));
#902=DIRECTION('',(0.,-1.,0.));
#903=DIRECTION('',(1.,0.,0.));
#904=DIRECTION('',(0.,-1.,0.));
#905=DIRECTION('',(1.,0.,0.));
#906=DIRECTION('',(0.,0.,1.));
#907=DIRECTION('',(1.,0.,0.));
#908=DIRECTION('',(0.,0.,1.));
#909=DIRECTION('',(1.,0.,0.));
#910=DIRECTION('',(0.,0.,1.));
#911=DIRECTION('',(1.,0.,0.));
#912=DIRECTION('',(0.,0.,1.));
#913=DIRECTION('',(1.,0.,0.));
#914=DIRECTION('',(0.,0.,-1.));
#915=DIRECTION('',(-1.,0.,0.));
#916=DIRECTION('',(0.,0.,1.));
#917=DIRECTION('',(1.,0.,0.));
#918=DIRECTION('',(0.,0.,-1.));
#919=DIRECTION('',(1.,0.,0.));
#920=DIRECTION('',(0.,0.,-1.));
#921=DIRECTION('',(0.,0.,-1.));
#922=DIRECTION('',(0.,-1.,0.));
#923=DIRECTION('',(0.,0.,-1.));
#924=DIRECTION('',(-1.,0.,0.));
#925=DIRECTION('',(0.,0.,1.));
#926=DIRECTION('',(1.,0.,0.));
#927=DIRECTION('',(1.,0.,0.));
#928=DIRECTION('',(0.,0.,-1.));
#929=DIRECTION('',(0.,0.,-1.));
#930=DIRECTION('',(0.,-1.,0.));
#931=DIRECTION('',(0.,0.,-1.));
#932=DIRECTION('',(0.,1.,0.));
#933=DIRECTION('',(0.,0.,1.));
#934=DIRECTION('',(0.,0.,-1.));
#935=DIRECTION('',(1.,0.,0.));
#936=DIRECTION('',(1.,0.,0.));
#937=DIRECTION('',(0.,0.,-1.));
#938=DIRECTION('',(0.,0.,-1.));
#939=DIRECTION('',(0.,-1.,0.));
#940=DIRECTION('',(1.,0.,0.));
#941=DIRECTION('',(0.,0.,-1.));
#942=DIRECTION('',(0.,0.,-1.));
#943=DIRECTION('',(0.,-1.,0.));
#944=DIRECTION('',(0.,0.,-1.));
#945=DIRECTION('',(0.,1.,0.));
#946=DIRECTION('',(0.,0.,1.));
#947=DIRECTION('',(0.,0.,-1.));
#948=DIRECTION('',(1.,0.,0.));
#949=DIRECTION('',(1.,0.,0.));
#950=DIRECTION('',(0.,0.,-1.));
#951=DIRECTION('',(0.,0.,-1.));
#952=DIRECTION('',(0.,-1.,0.));
#953=DIRECTION('',(0.,1.,0.));
#954=DIRECTION('',(0.,0.,1.));
#955=DIRECTION('',(1.,0.,0.));
#956=DIRECTION('',(0.,1.,0.));
#957=DIRECTION('',(0.,0.,1.));
#958=DIRECTION('',(1.,0.,0.));
#959=DIRECTION('',(0.,0.,-1.));
#960=DIRECTION('',(-1.,0.,0.));
#961=DIRECTION('',(0.,0.,1.));
#962=DIRECTION('',(1.,0.,0.));
#963=DIRECTION('',(0.,0.,1.));
#964=DIRECTION('',(1.,0.,0.));
#965=DIRECTION('',(0.,0.,-1.));
#966=DIRECTION('',(-1.,0.,0.));
#967=DIRECTION('',(0.,0.,1.));
#968=DIRECTION('',(1.,0.,0.));
#969=DIRECTION('',(0.,0.,1.));
#970=DIRECTION('',(1.,0.,0.));
#971=DIRECTION('',(0.,0.,1.));
#972=DIRECTION('',(1.,0.,0.));
#973=DIRECTION('',(1.,0.,0.));
#974=DIRECTION('',(0.,-1.,0.));
#975=DIRECTION('',(-1.,0.,0.));
#976=DIRECTION('',(-1.,0.,0.));
#977=DIRECTION('',(0.,0.,1.));
#978=DIRECTION('',(0.995893206467705,-0.0905357460425037,0.));
#979=DIRECTION('',(-0.0905357460425037,-0.995893206467705,0.));
#980=DIRECTION('',(0.707106781186547,0.,0.707106781186548));
#981=DIRECTION('',(-0.707106781186548,0.,0.707106781186547));
#982=DIRECTION('',(0.0905357460424923,-0.995893206467706,0.));
#983=DIRECTION('',(-0.995893206467706,-0.0905357460424924,0.));
#984=DIRECTION('',(0.,1.,0.));
#985=DIRECTION('',(0.,0.,1.));
#986=DIRECTION('',(-0.0905357460425061,-0.995893206467705,0.));
#987=DIRECTION('',(-0.995893206467705,0.0905357460425061,0.));
#988=DIRECTION('',(-0.995893206467705,-0.0905357460425086,0.));
#989=DIRECTION('',(-0.0905357460425086,0.995893206467705,0.));
#990=DIRECTION('',(1.,0.,0.));
#991=DIRECTION('',(0.,0.,-1.));
#992=DIRECTION('',(0.707106781186547,0.,0.707106781186548));
#993=DIRECTION('',(0.707106781186548,0.,-0.707106781186547));
#994=DIRECTION('',(0.,0.,-1.));
#995=DIRECTION('',(-1.,0.,0.));
#996=DIRECTION('',(0.,0.,1.));
#997=DIRECTION('',(1.,0.,0.));
#998=DIRECTION('',(0.,0.,1.));
#999=DIRECTION('',(1.,0.,0.));
#1000=DIRECTION('',(0.,0.,-1.));
#1001=DIRECTION('',(-1.,0.,0.));
#1002=DIRECTION('',(0.,0.,1.));
#1003=DIRECTION('',(1.,0.,0.));
#1004=DIRECTION('',(0.,0.,1.));
#1005=DIRECTION('',(1.,0.,0.));
#1006=DIRECTION('',(0.,0.,-1.));
#1007=DIRECTION('',(-1.,0.,0.));
#1008=DIRECTION('',(0.,0.,1.));
#1009=DIRECTION('',(1.,0.,0.));
#1010=DIRECTION('',(0.,0.,1.));
#1011=DIRECTION('',(1.,0.,0.));
#1012=DIRECTION('',(0.,0.,-1.));
#1013=DIRECTION('',(-1.,0.,0.));
#1014=DIRECTION('',(0.,0.,1.));
#1015=DIRECTION('',(1.,0.,0.));
#1016=DIRECTION('',(0.,0.,1.));
#1017=DIRECTION('',(1.,0.,0.));
#1018=DIRECTION('',(0.707106781186547,0.,0.707106781186548));
#1019=DIRECTION('',(0.,1.,0.));
#1020=CARTESIAN_POINT('',(0.,0.,0.));
#1021=CARTESIAN_POINT('',(-0.219075837294283,0.099215489133908,0.0197));
#1022=CARTESIAN_POINT('',(-0.224075837294283,0.099215489133908,0.0197));
#1023=CARTESIAN_POINT('',(-0.224075837294283,0.099215489133908,0.0142));
#1024=CARTESIAN_POINT('',(-0.224075837294283,0.099215489133908,0.0135));
#1025=CARTESIAN_POINT('',(-0.219075837294283,0.099215489133908,0.0142));
#1026=CARTESIAN_POINT('',(-0.219075837294283,0.104215489133908,0.0142));
#1027=CARTESIAN_POINT('',(-0.219075837294283,0.104215489133908,0.0197));
#1028=CARTESIAN_POINT('',(-0.219075837294283,0.104215489133908,0.0135));
#1029=CARTESIAN_POINT('',(-0.219075837294283,0.099215489133908,0.0135));
#1030=CARTESIAN_POINT('',(-0.224075837294283,0.0247721403684759,0.0197));
#1031=CARTESIAN_POINT('',(-0.224075837294283,-0.0496712083969561,0.0197));
#1032=CARTESIAN_POINT('',(-0.224075837294283,-0.0496712083969561,0.0142));
#1033=CARTESIAN_POINT('',(-0.224075837294283,-0.0496712083969561,0.0135));
#1034=CARTESIAN_POINT('',(-0.224075837294283,0.099215489133908,0.0142));
#1035=CARTESIAN_POINT('',(-0.224075837294283,0.0247721403684759,0.0135));
#1036=CARTESIAN_POINT('',(-0.219075837294283,-0.0496712083969561,0.0197));
#1037=CARTESIAN_POINT('',(-0.219075837294283,-0.0546712083969561,0.0197));
#1038=CARTESIAN_POINT('',(-0.219075837294283,-0.0546712083969561,0.0142));
#1039=CARTESIAN_POINT('',(-0.219075837294283,-0.0546712083969561,0.0135));
#1040=CARTESIAN_POINT('',(-0.219075837294283,-0.0496712083969561,0.0142));
#1041=CARTESIAN_POINT('',(-0.219075837294283,-0.0496712083969561,0.0135));
#1042=CARTESIAN_POINT('',(-0.0251918653686954,-0.0546712083969561,0.0197));
#1043=CARTESIAN_POINT('',(0.218570162705717,-0.0546712083969561,0.0165));
#1044=CARTESIAN_POINT('',(0.218570162705717,-0.0546712083969561,0.0142));
#1045=CARTESIAN_POINT('',(0.218570162705717,-0.0546712083969561,0.0135));
#1046=CARTESIAN_POINT('',(-0.219075837294283,-0.0546712083969561,0.0142));
#1047=CARTESIAN_POINT('',(-0.0251918653686954,-0.0546712083969561,0.0135));
#1048=CARTESIAN_POINT('',(-0.20529405772686,0.0250625498592854,0.0197));
#1049=CARTESIAN_POINT('',(-0.20529405772686,0.0250625498592854,0.0135));
#1050=CARTESIAN_POINT('',(-0.20529405772686,0.0849981755018234,0.0135));
#1051=CARTESIAN_POINT('',(-0.20529405772686,-0.0348730757832527,0.0135));
#1052=CARTESIAN_POINT('',(-0.20529405772686,0.0849981755018234,0.0197));
#1053=CARTESIAN_POINT('',(-0.20529405772686,0.0849981755018234,0.0197));
#1054=CARTESIAN_POINT('',(-0.20529405772686,0.0250625498592854,0.0197));
#1055=CARTESIAN_POINT('',(-0.20529405772686,-0.0348730757832527,0.0197));
#1056=CARTESIAN_POINT('',(-0.20529405772686,-0.0348730757832527,0.0197));
#1057=CARTESIAN_POINT('',(-0.0189009755849838,0.0849981755018234,0.0197));
#1058=CARTESIAN_POINT('',(-0.0189009755849838,0.0849981755018234,0.0135));
#1059=CARTESIAN_POINT('',(0.167492106556892,0.0849981755018234,0.0135));
#1060=CARTESIAN_POINT('',(0.167492106556892,0.0849981755018234,0.0197));
#1061=CARTESIAN_POINT('',(0.167492106556892,0.0849981755018234,0.0197));
#1062=CARTESIAN_POINT('',(-0.0189009755849838,0.0849981755018234,0.0197));
#1063=CARTESIAN_POINT('',(0.167492106556892,0.0250625498592854,0.0197));
#1064=CARTESIAN_POINT('',(0.167492106556892,0.0250625498592854,0.0135));
#1065=CARTESIAN_POINT('',(0.167492106556892,-0.0348730757832527,0.0135));
#1066=CARTESIAN_POINT('',(0.167492106556892,-0.0348730757832527,0.0197));
#1067=CARTESIAN_POINT('',(0.167492106556892,-0.0348730757832527,0.0197));
#1068=CARTESIAN_POINT('',(0.167492106556892,0.0250625498592854,0.0197));
#1069=CARTESIAN_POINT('',(-0.219075837294283,-0.0496712083969561,0.0197));
#1070=CARTESIAN_POINT('',(-0.219075837294283,-0.0496712083969561,0.0155));
#1071=CARTESIAN_POINT('',(-0.215975837294283,-0.0496712083969561,0.0155));
#1072=CARTESIAN_POINT('',(-0.222170996915974,-0.049498041089837,0.0183623103313622));
#1073=CARTESIAN_POINT('',(-0.222219983046327,-0.0503736098979045,0.0183199989840944));
#1074=CARTESIAN_POINT('',(-0.221536708615275,-0.0521320716783137,0.018295707147267));
#1075=CARTESIAN_POINT('',(-0.219777939974323,-0.0528153374306335,0.0183200134244388));
#1076=CARTESIAN_POINT('',(-0.218902669987164,-0.0527663680186469,0.0183623103313622));
#1077=CARTESIAN_POINT('',(-0.222170996915974,-0.049498041089837,0.0183623103313622));
#1078=CARTESIAN_POINT('',(-0.218902669987163,-0.0527663680186468,0.0183623103313622));
#1079=CARTESIAN_POINT('',(-0.218902669987163,-0.0527663680186468,0.0183623103313622));
#1080=CARTESIAN_POINT('',(-0.217993766597512,-0.0527155168924836,0.0184062325526637));
#1081=CARTESIAN_POINT('',(-0.216807349514097,-0.052064039976296,0.0189872985929297));
#1082=CARTESIAN_POINT('',(-0.216001628549583,-0.0505355406993409,0.0195830691275927));
#1083=CARTESIAN_POINT('',(-0.215943587838205,-0.049616889714537,0.0197));
#1084=CARTESIAN_POINT('',(-0.216016425586127,-0.049171208396956,0.0197));
#1085=CARTESIAN_POINT('',(-0.216016425586128,-0.0491712083969561,0.0197));
#1086=CARTESIAN_POINT('',(-0.219075837294283,-0.0496712083969561,0.0197));
#1087=CARTESIAN_POINT('',(-0.218575837294283,-0.0466117966888004,0.0197));
#1088=CARTESIAN_POINT('',(-0.218575837294283,-0.0466117966888004,0.0197));
#1089=CARTESIAN_POINT('',(-0.219024436363464,-0.046538482092405,0.0197));
#1090=CARTESIAN_POINT('',(-0.219936649596489,-0.0465955521595563,0.0195840870758732));
#1091=CARTESIAN_POINT('',(-0.221091498190087,-0.0472062460681202,0.0191334206824336));
#1092=CARTESIAN_POINT('',(-0.221895954714341,-0.0481828279955329,0.0186055607345929));
#1093=CARTESIAN_POINT('',(-0.222146088077097,-0.0490528252255009,0.0183838251259408));
#1094=CARTESIAN_POINT('',(-0.222170996915974,-0.049498041089837,0.0183623103313621));
#1095=CARTESIAN_POINT('',(-0.219075837294283,0.099215489133908,0.0197));
#1096=CARTESIAN_POINT('',(-0.219075837294283,0.099215489133908,0.0155));
#1097=CARTESIAN_POINT('',(-0.215975837294283,0.099215489133908,0.0155));
#1098=CARTESIAN_POINT('',(-0.219075837294283,0.099215489133908,0.0197));
#1099=CARTESIAN_POINT('',(-0.218575837294283,0.0961560774257523,0.0197));
#1100=CARTESIAN_POINT('',(-0.216016425586128,0.0987154891339081,0.0197));
#1101=CARTESIAN_POINT('',(-0.216016425586128,0.0987154891339081,0.0197));
#1102=CARTESIAN_POINT('',(-0.215943110989732,0.0991640882030895,0.0197));
#1103=CARTESIAN_POINT('',(-0.216000181056883,0.100076301436114,0.0195840870758732));
#1104=CARTESIAN_POINT('',(-0.216610874965447,0.101231150029712,0.0191334206824336));
#1105=CARTESIAN_POINT('',(-0.21758745689286,0.102035606553966,0.0186055607345929));
#1106=CARTESIAN_POINT('',(-0.218457454122828,0.102285739916722,0.0183838251259409));
#1107=CARTESIAN_POINT('',(-0.218902669987164,0.102310648755599,0.0183623103313622));
#1108=CARTESIAN_POINT('',(-0.218902669987164,0.102310648755599,0.0183623103313622));
#1109=CARTESIAN_POINT('',(-0.218902669987164,0.102310648755599,0.0183623103313622));
#1110=CARTESIAN_POINT('',(-0.219778238795231,0.102359634885951,0.0183199989840944));
#1111=CARTESIAN_POINT('',(-0.221536700575641,0.1016763604549,0.0182957071472671));
#1112=CARTESIAN_POINT('',(-0.22221996632796,0.0999175918139475,0.0183200134244388));
#1113=CARTESIAN_POINT('',(-0.222170996915974,0.0990423218267885,0.0183623103313622));
#1114=CARTESIAN_POINT('',(-0.222170996915974,0.0990423218267885,0.0183623103313622));
#1115=CARTESIAN_POINT('',(-0.222170996915974,0.0990423218267885,0.0183623103313622));
#1116=CARTESIAN_POINT('',(-0.222120145789811,0.0981334184371367,0.0184062325526636));
#1117=CARTESIAN_POINT('',(-0.221468668873623,0.0969470013537219,0.0189872985929297));
#1118=CARTESIAN_POINT('',(-0.219940169596668,0.0961412803892076,0.0195830691275927));
#1119=CARTESIAN_POINT('',(-0.219021518611864,0.0960832396778296,0.0197));
#1120=CARTESIAN_POINT('',(-0.218575837294283,0.0961560774257523,0.0197));
#1121=CARTESIAN_POINT('',(-0.0189009755849838,-0.0348730757832527,0.0197));
#1122=CARTESIAN_POINT('',(-0.0189009755849838,-0.0348730757832527,0.0135));
#1123=CARTESIAN_POINT('',(-0.0189009755849838,-0.0348730757832527,0.0197));
#1124=CARTESIAN_POINT('',(-0.0251918653686954,0.104215489133908,0.0197));
#1125=CARTESIAN_POINT('',(-0.0251918653686954,0.104215489133908,0.0142));
#1126=CARTESIAN_POINT('',(0.218570162705717,0.104215489133908,0.0142));
#1127=CARTESIAN_POINT('',(0.218570162705717,0.104215489133908,0.0165));
#1128=CARTESIAN_POINT('',(0.218570162705717,0.104215489133908,0.0135));
#1129=CARTESIAN_POINT('',(-0.0251918653686954,0.104215489133908,0.0135));
#1130=CARTESIAN_POINT('',(-0.000252837294283104,0.024772140368476,0.0197));
#1131=CARTESIAN_POINT('',(0.168692106556892,-0.0491712083969561,0.0197));
#1132=CARTESIAN_POINT('',(0.168992106556892,-0.0491712083969561,0.0197));
#1133=CARTESIAN_POINT('',(0.168992106556892,0.024772140368476,0.0197));
#1134=CARTESIAN_POINT('',(0.168992106556892,0.0987154891339081,0.0197));
#1135=CARTESIAN_POINT('',(-0.000252837294283104,0.0987154891339081,0.0197));
#1136=CARTESIAN_POINT('',(-0.218575837294283,-0.0496712083969561,0.0197));
#1137=CARTESIAN_POINT('',(-0.000252837294283104,0.024772140368476,0.0135));
#1138=CARTESIAN_POINT('',(0.218570162705717,0.0992154891339081,0.0135));
#1139=CARTESIAN_POINT('',(0.223570162705717,0.099215489133908,0.0135));
#1140=CARTESIAN_POINT('',(0.223570162705717,0.0247721403684759,0.0135));
#1141=CARTESIAN_POINT('',(0.223570162705717,-0.0496712083969561,0.0135));
#1142=CARTESIAN_POINT('',(0.218570162705717,-0.0496712083969561,0.0135));
#1143=CARTESIAN_POINT('',(0.182789400219918,0.0195284448564053,0.0135));
#1144=CARTESIAN_POINT('',(0.182789400219918,0.0215024650096893,0.0135));
#1145=CARTESIAN_POINT('',(0.182789400219918,0.0175544247031212,0.0135));
#1146=CARTESIAN_POINT('',(0.189163610339165,0.0175544247031212,0.0135));
#1147=CARTESIAN_POINT('',(0.195537820458412,0.0175544247031212,0.0135));
#1148=CARTESIAN_POINT('',(0.195537820458412,0.0195284448564053,0.0135));
#1149=CARTESIAN_POINT('',(0.195537820458412,0.0215024650096893,0.0135));
#1150=CARTESIAN_POINT('',(0.189163610339165,0.0215024650096893,0.0135));
#1151=CARTESIAN_POINT('',(0.178191587328911,0.0863455662553029,0.0135));
#1152=CARTESIAN_POINT('',(0.178191587328911,0.0942477468499575,0.0135));
#1153=CARTESIAN_POINT('',(0.178191587328911,0.0784433856606484,0.0135));
#1154=CARTESIAN_POINT('',(0.189420692622662,0.0784433856606484,0.0135));
#1155=CARTESIAN_POINT('',(0.200649797916413,0.0784433856606484,0.0135));
#1156=CARTESIAN_POINT('',(0.200649797916413,0.0863455662553029,0.0135));
#1157=CARTESIAN_POINT('',(0.200649797916413,0.0942477468499575,0.0135));
#1158=CARTESIAN_POINT('',(0.189420692622662,0.0942477468499575,0.0135));
#1159=CARTESIAN_POINT('',(0.218570162705717,0.099215489133908,0.0135));
#1160=CARTESIAN_POINT('',(0.220070162705717,0.099215489133908,0.0135));
#1161=CARTESIAN_POINT('',(0.218570162705717,-0.0496712083969561,0.0135));
#1162=CARTESIAN_POINT('',(0.220070162705717,-0.0496712083969561,0.0135));
#1163=CARTESIAN_POINT('',(-0.219075837294283,0.099215489133908,0.0135));
#1164=CARTESIAN_POINT('',(-0.217575837294283,0.099215489133908,0.0135));
#1165=CARTESIAN_POINT('',(-0.219075837294283,-0.0496712083969561,0.0135));
#1166=CARTESIAN_POINT('',(-0.217575837294283,-0.0496712083969561,0.0135));
#1167=CARTESIAN_POINT('',(0.218570162705717,-0.0496712083969561,0.0165));
#1168=CARTESIAN_POINT('',(0.218570162705717,-0.0496712083969561,0.0165));
#1169=CARTESIAN_POINT('',(0.220757855188384,-0.0541672067956748,0.0165));
#1170=CARTESIAN_POINT('',(0.223570162705717,-0.0496712083969561,0.0165));
#1171=CARTESIAN_POINT('',(0.220757855188384,-0.0541672067956749,0.0165));
#1172=CARTESIAN_POINT('',(0.220049965133759,-0.0545116565960794,0.0157517953690173));
#1173=CARTESIAN_POINT('',(0.219309503008317,-0.0546712083969561,0.0149754266875299));
#1174=CARTESIAN_POINT('',(0.218570162705717,-0.0546712083969561,0.0142));
#1175=CARTESIAN_POINT('',(0.223570162705717,-0.0496712083969561,0.0165));
#1176=CARTESIAN_POINT('',(0.223570162705717,0.0247721403684759,0.0165));
#1177=CARTESIAN_POINT('',(0.223570162705717,0.099215489133908,0.0165));
#1178=CARTESIAN_POINT('',(0.223570162705717,0.099215489133908,0.0165));
#1179=CARTESIAN_POINT('',(0.223570162705717,0.0247721403684759,0.0165));
#1180=CARTESIAN_POINT('',(0.218570162705717,0.0992154891339081,0.0165));
#1181=CARTESIAN_POINT('',(0.220757855188384,0.103711487532627,0.0165));
#1182=CARTESIAN_POINT('',(0.220049965133759,0.104055937333031,0.0157517953690173));
#1183=CARTESIAN_POINT('',(0.219309503008899,0.104215489133908,0.0149754266869753));
#1184=CARTESIAN_POINT('',(0.218570162705717,0.104215489133908,0.0142));
#1185=CARTESIAN_POINT('',(0.220757855188384,0.103711487532627,0.0165));
#1186=CARTESIAN_POINT('',(0.218570162705717,0.0992154891339081,0.0165));
#1187=CARTESIAN_POINT('',(0.178191587328911,0.0863455662553029,0.0165));
#1188=CARTESIAN_POINT('',(0.178191587328911,0.0942477468499575,0.0165));
#1189=CARTESIAN_POINT('',(0.178191587328911,0.0942477468499575,0.0165));
#1190=CARTESIAN_POINT('',(0.178191587328911,0.0863455662553029,0.0165));
#1191=CARTESIAN_POINT('',(0.178191587328911,0.0784433856606484,0.0165));
#1192=CARTESIAN_POINT('',(0.178191587328911,0.0784433856606484,0.0165));
#1193=CARTESIAN_POINT('',(0.189420692622662,0.0942477468499575,0.0165));
#1194=CARTESIAN_POINT('',(0.200649797916413,0.0942477468499575,0.0165));
#1195=CARTESIAN_POINT('',(0.200649797916413,0.0942477468499575,0.0165));
#1196=CARTESIAN_POINT('',(0.189420692622662,0.0942477468499575,0.0165));
#1197=CARTESIAN_POINT('',(0.200649797916413,0.0863455662553029,0.0165));
#1198=CARTESIAN_POINT('',(0.200649797916413,0.0784433856606484,0.0165));
#1199=CARTESIAN_POINT('',(0.200649797916413,0.0784433856606484,0.0165));
#1200=CARTESIAN_POINT('',(0.200649797916413,0.0863455662553029,0.0165));
#1201=CARTESIAN_POINT('',(0.182789400219918,0.0195284448564053,0.0165));
#1202=CARTESIAN_POINT('',(0.182789400219918,0.0215024650096893,0.0165));
#1203=CARTESIAN_POINT('',(0.182789400219918,0.0215024650096893,0.0165));
#1204=CARTESIAN_POINT('',(0.182789400219918,0.0195284448564053,0.0165));
#1205=CARTESIAN_POINT('',(0.182789400219918,0.0175544247031212,0.0165));
#1206=CARTESIAN_POINT('',(0.182789400219918,0.0175544247031212,0.0165));
#1207=CARTESIAN_POINT('',(0.189163610339165,0.0215024650096893,0.0165));
#1208=CARTESIAN_POINT('',(0.195537820458412,0.0215024650096893,0.0165));
#1209=CARTESIAN_POINT('',(0.195537820458412,0.0215024650096893,0.0165));
#1210=CARTESIAN_POINT('',(0.189163610339165,0.0215024650096893,0.0165));
#1211=CARTESIAN_POINT('',(0.195537820458412,0.0195284448564053,0.0165));
#1212=CARTESIAN_POINT('',(0.195537820458412,0.0175544247031212,0.0165));
#1213=CARTESIAN_POINT('',(0.195537820458412,0.0175544247031212,0.0165));
#1214=CARTESIAN_POINT('',(0.195537820458412,0.0195284448564053,0.0165));
#1215=CARTESIAN_POINT('',(0.189420692622662,0.0784433856606484,0.0165));
#1216=CARTESIAN_POINT('',(0.189420692622662,0.0784433856606484,0.0165));
#1217=CARTESIAN_POINT('',(0.189163610339165,0.0175544247031212,0.0165));
#1218=CARTESIAN_POINT('',(0.189163610339165,0.0175544247031212,0.0165));
#1219=CARTESIAN_POINT('',(0.218570162705717,-0.0496712083969561,0.0165));
#1220=CARTESIAN_POINT('',(0.218570162705717,-0.0496712083969561,0.0155));
#1221=CARTESIAN_POINT('',(0.221670162705717,-0.0496712083969561,0.0155));
#1222=CARTESIAN_POINT('',(0.218570162705717,-0.0496712083969561,0.0165));
#1223=CARTESIAN_POINT('',(0.221670162705717,-0.0496712083969561,0.0165));
#1224=CARTESIAN_POINT('',(0.218570162705717,0.099215489133908,0.0165));
#1225=CARTESIAN_POINT('',(0.218570162705717,0.099215489133908,0.0155));
#1226=CARTESIAN_POINT('',(0.221670162705717,0.099215489133908,0.0155));
#1227=CARTESIAN_POINT('',(0.218570162705717,0.099215489133908,0.0165));
#1228=CARTESIAN_POINT('',(0.221670162705717,0.099215489133908,0.0165));
#1229=CARTESIAN_POINT('',(-0.000252837294283104,0.024772140368476,0.0165));
#1230=CARTESIAN_POINT('',(0.220757855188384,0.103711487532627,0.0165));
#1231=CARTESIAN_POINT('',(0.172192106556892,0.103711487532627,0.0165));
#1232=CARTESIAN_POINT('',(0.172192106556892,-0.0541672067956748,0.0165));
#1233=CARTESIAN_POINT('',(0.172192106556892,-0.0541672067956749,0.0165));
#1234=CARTESIAN_POINT('',(0.168692106556892,-0.0541672067956749,0.0165));
#1235=CARTESIAN_POINT('',(-0.000252837294283104,-0.0491712083969561,0.0142));
#1236=CARTESIAN_POINT('',(-0.218575837294283,-0.0491712083969561,0.0142));
#1237=CARTESIAN_POINT('',(0.174492106556892,-0.0491712083969561,0.0142));
#1238=CARTESIAN_POINT('',(-0.219075837294283,-0.0546712083969561,0.0142));
#1239=CARTESIAN_POINT('',(-0.224075837294283,-0.0546712083969561,0.0142));
#1240=CARTESIAN_POINT('',(-0.224075837294283,-0.049671208396956,0.0142));
#1241=CARTESIAN_POINT('',(-0.219075837294211,-0.0546712083969561,0.0145957845878818));
#1242=CARTESIAN_POINT('',(-0.224075837275215,-0.0546712083778843,0.0149555914923321));
#1243=CARTESIAN_POINT('',(-0.224075837294283,-0.0496712083968841,0.0145957845878818));
#1244=CARTESIAN_POINT('',(-0.219068039546034,-0.0545854331658421,0.015387335417658));
#1245=CARTESIAN_POINT('',(-0.223830820767187,-0.0544261918698624,0.0164283566738634));
#1246=CARTESIAN_POINT('',(-0.223990062063169,-0.0496634106487072,0.015387335417658));
#1247=CARTESIAN_POINT('',(-0.219033492800708,-0.0542054189677584,0.0165195543417348));
#1248=CARTESIAN_POINT('',(-0.222940050073745,-0.0535354211764172,0.0180579629870451));
#1249=CARTESIAN_POINT('',(-0.223610047865086,-0.0496288639033807,0.0165195543417345));
#1250=CARTESIAN_POINT('',(-0.218977699405155,-0.0535916916163994,0.0175440878450733));
#1251=CARTESIAN_POINT('',(-0.221910142139211,-0.0525055132418865,0.0189881612951056));
#1252=CARTESIAN_POINT('',(-0.222996320513725,-0.049573070507828,0.0175440878450744));
#1253=CARTESIAN_POINT('',(-0.218928066988384,-0.0530457350323207,0.0181236065856408));
#1254=CARTESIAN_POINT('',(-0.221259986384589,-0.0518553574872574,0.0192927139932178));
#1255=CARTESIAN_POINT('',(-0.22245036392965,-0.0495234380910566,0.0181236065856384));
#1256=CARTESIAN_POINT('',(-0.218900716840361,-0.0527448834038183,0.0183807710945863));
#1257=CARTESIAN_POINT('',(-0.220959766429413,-0.0515551375320866,0.0193977521705966));
#1258=CARTESIAN_POINT('',(-0.222149512301145,-0.0494960879430344,0.0183807710945864));
#1259=CARTESIAN_POINT('',(-0.218575837294283,-0.0491712083969561,0.0142));
#1260=CARTESIAN_POINT('',(-0.218575837294283,0.024772140368476,0.0142));
#1261=CARTESIAN_POINT('',(-0.218575837294283,0.0987154891339081,0.0142));
#1262=CARTESIAN_POINT('',(-0.224075837294283,0.099215489133908,0.0142));
#1263=CARTESIAN_POINT('',(-0.224075837294283,0.104215489133908,0.0142));
#1264=CARTESIAN_POINT('',(-0.219075837294283,0.104215489133908,0.0142));
#1265=CARTESIAN_POINT('',(-0.224075837294283,0.0992154891338361,0.0145957845878818));
#1266=CARTESIAN_POINT('',(-0.224075837275215,0.10421548911484,0.0149555914923323));
#1267=CARTESIAN_POINT('',(-0.219075837294211,0.104215489133908,0.0145957845878818));
#1268=CARTESIAN_POINT('',(-0.223990062063169,0.0992076913856592,0.0153873354176581));
#1269=CARTESIAN_POINT('',(-0.223830820767187,0.103970472606813,0.016428356673863));
#1270=CARTESIAN_POINT('',(-0.219068039546034,0.104129713902794,0.0153873354176578));
#1271=CARTESIAN_POINT('',(-0.223610047865086,0.0991731446403326,0.016519554341734));
#1272=CARTESIAN_POINT('',(-0.222940050073745,0.10307970191337,0.018057962987045));
#1273=CARTESIAN_POINT('',(-0.219033492800708,0.10374969970471,0.0165195543417351));
#1274=CARTESIAN_POINT('',(-0.222996320513724,0.0991173512447803,0.0175440878450752));
#1275=CARTESIAN_POINT('',(-0.221910142139213,0.102049793978839,0.0189881612951055));
#1276=CARTESIAN_POINT('',(-0.218977699405154,0.103135972353353,0.0175440878450716));
#1277=CARTESIAN_POINT('',(-0.222450363929653,0.099067718828008,0.018123606585636));
#1278=CARTESIAN_POINT('',(-0.221259986384586,0.101399638224209,0.0192927139932176));
#1279=CARTESIAN_POINT('',(-0.218928066988384,0.102590015769269,0.018123606585644));
#1280=CARTESIAN_POINT('',(-0.222149512301145,0.0990403686799865,0.0183807710945862));
#1281=CARTESIAN_POINT('',(-0.220959766429414,0.101099418269039,0.0193977521705966));
#1282=CARTESIAN_POINT('',(-0.218900716840361,0.10228916414077,0.0183807710945862));
#1283=CARTESIAN_POINT('',(-0.218575837294283,0.0987154891339081,0.0142));
#1284=CARTESIAN_POINT('',(-0.0251918653686954,0.0987154891339081,0.0142));
#1285=CARTESIAN_POINT('',(0.174492106556892,0.0987154891339081,0.0142));
#1286=CARTESIAN_POINT('',(0.218570162705717,0.099215489133908,0.0155));
#1287=CARTESIAN_POINT('',(0.218570162705717,0.099215489133908,0.0155));
#1288=CARTESIAN_POINT('',(0.220070162705717,0.099215489133908,0.0155));
#1289=CARTESIAN_POINT('',(-0.000252837294283104,0.024772140368476,0.0155));
#1290=CARTESIAN_POINT('',(0.218570162705717,-0.0496712083969561,0.0155));
#1291=CARTESIAN_POINT('',(0.218570162705717,-0.0496712083969561,0.0155));
#1292=CARTESIAN_POINT('',(0.220070162705717,-0.0496712083969561,0.0155));
#1293=CARTESIAN_POINT('',(-0.000252837294283104,0.024772140368476,0.0155));
#1294=CARTESIAN_POINT('',(-0.219075837294283,0.099215489133908,0.0155));
#1295=CARTESIAN_POINT('',(-0.219075837294283,0.099215489133908,0.0155));
#1296=CARTESIAN_POINT('',(-0.217575837294283,0.099215489133908,0.0155));
#1297=CARTESIAN_POINT('',(-0.000252837294283104,0.024772140368476,0.0155));
#1298=CARTESIAN_POINT('',(-0.219075837294283,-0.0496712083969561,0.0155));
#1299=CARTESIAN_POINT('',(-0.219075837294283,-0.0496712083969561,0.0155));
#1300=CARTESIAN_POINT('',(-0.217575837294283,-0.0496712083969561,0.0155));
#1301=CARTESIAN_POINT('',(-0.000252837294283104,0.024772140368476,0.0155));
#1302=CARTESIAN_POINT('',(0.172192106556892,0.024772140368476,0.0165));
#1303=MECHANICAL_DESIGN_GEOMETRIC_PRESENTATION_REPRESENTATION('',(#740),
#1304);
#1304=(
GEOMETRIC_REPRESENTATION_CONTEXT(3)
GLOBAL_UNCERTAINTY_ASSIGNED_CONTEXT((#1305))
GLOBAL_UNIT_ASSIGNED_CONTEXT((#1308,#1307,#1306))
REPRESENTATION_CONTEXT('Part 2','TOP_LEVEL_ASSEMBLY_PART')
);
#1305=UNCERTAINTY_MEASURE_WITH_UNIT(LENGTH_MEASURE(2.E-5),#1308,
'DISTANCE_ACCURACY_VALUE','Maximum Tolerance applied to model');
#1306=(
NAMED_UNIT(*)
SI_UNIT($,.STERADIAN.)
SOLID_ANGLE_UNIT()
);
#1307=(
NAMED_UNIT(*)
PLANE_ANGLE_UNIT()
SI_UNIT($,.RADIAN.)
);
#1308=(
LENGTH_UNIT()
NAMED_UNIT(*)
SI_UNIT($,.METRE.)
);
#1309=PRODUCT_DEFINITION_SHAPE('','',#1310);
#1310=PRODUCT_DEFINITION('','',#1312,#1311);
#1311=PRODUCT_DEFINITION_CONTEXT('',#1318,'design');
#1312=PRODUCT_DEFINITION_FORMATION_WITH_SPECIFIED_SOURCE('','',#1314,
 .NOT_KNOWN.);
#1313=PRODUCT_RELATED_PRODUCT_CATEGORY('','',(#1314));
#1314=PRODUCT('Part 2','Part 2','Part 2',(#1316));
#1315=PRODUCT_CATEGORY('','');
#1316=PRODUCT_CONTEXT('',#1318,'mechanical');
#1317=APPLICATION_PROTOCOL_DEFINITION('international standard',
'ap242_managed_model_based_3d_engineering',2011,#1318);
#1318=APPLICATION_CONTEXT('managed model based 3d engineering');
ENDSEC;
END-ISO-10303-21;
